<?xml version="1.0" encoding="UTF-8"?>
<!DOCTYPE svg PUBLIC "-//W3C//DTD SVG 1.1//EN" "http://www.w3.org/Graphics/SVG/1.1/DTD/svg11.dtd">
<!-- Creator: CorelDRAW 2017 -->
<svg xmlns="http://www.w3.org/2000/svg" xml:space="preserve" width="149.232mm" height="153.422mm" version="1.1" style="shape-rendering:geometricPrecision; text-rendering:geometricPrecision; image-rendering:optimizeQuality; fill-rule:evenodd; clip-rule:evenodd"
viewBox="0 0 713.93 733.98"
 xmlns:xlink="http://www.w3.org/1999/xlink">
 <defs>
  <style type="text/css">
   <![CDATA[
    .fil19 {fill:#FEFEFE;fill-rule:nonzero}
    .fil4 {fill:#FFF5DF;fill-rule:nonzero}
    .fil23 {fill:#FBD1B5;fill-rule:nonzero}
    .fil6 {fill:#FDCA57;fill-rule:nonzero}
    .fil25 {fill:#F8BE9C;fill-rule:nonzero}
    .fil27 {fill:#F5AC82;fill-rule:nonzero}
    .fil15 {fill:#F6A62C;fill-rule:nonzero}
    .fil26 {fill:#F5A77D;fill-rule:nonzero}
    .fil39 {fill:#F5A680;fill-rule:nonzero}
    .fil13 {fill:#F5A024;fill-rule:nonzero}
    .fil8 {fill:#F28E36;fill-rule:nonzero}
    .fil30 {fill:#EF7A44;fill-rule:nonzero}
    .fil20 {fill:#EB5F30;fill-rule:nonzero}
    .fil22 {fill:#EA5988;fill-rule:nonzero}
    .fil17 {fill:#E63835;fill-rule:nonzero}
    .fil7 {fill:#E73167;fill-rule:nonzero}
    .fil32 {fill:#E72D6A;fill-rule:nonzero}
    .fil35 {fill:#E6275A;fill-rule:nonzero}
    .fil24 {fill:#F2B32C;fill-rule:nonzero}
    .fil28 {fill:#EA8F5E;fill-rule:nonzero}
    .fil43 {fill:#EFB230;fill-rule:nonzero}
    .fil41 {fill:#EDE4E7;fill-rule:nonzero}
    .fil10 {fill:#DA2555;fill-rule:nonzero}
    .fil34 {fill:#DA2646;fill-rule:nonzero}
    .fil5 {fill:#E8D9B7;fill-rule:nonzero}
    .fil16 {fill:#D42734;fill-rule:nonzero}
    .fil12 {fill:#CF2928;fill-rule:nonzero}
    .fil37 {fill:#B12C40;fill-rule:nonzero}
    .fil1 {fill:#7DC8C2;fill-rule:nonzero}
    .fil14 {fill:#50BBB6;fill-rule:nonzero}
    .fil11 {fill:#25B4B2;fill-rule:nonzero}
    .fil0 {fill:#29B4AB;fill-rule:nonzero}
    .fil29 {fill:#473D55;fill-rule:nonzero}
    .fil2 {fill:#00A394;fill-rule:nonzero}
    .fil38 {fill:#009A89;fill-rule:nonzero}
    .fil9 {fill:#00947D;fill-rule:nonzero}
    .fil3 {fill:#009D82;fill-rule:nonzero}
    .fil21 {fill:#009A81;fill-rule:nonzero}
    .fil18 {fill:#008B6D;fill-rule:nonzero}
    .fil40 {fill:#008373;fill-rule:nonzero}
    .fil42 {fill:#007560;fill-rule:nonzero}
    .fil31 {fill:#007161;fill-rule:nonzero}
    .fil33 {fill:#006E5E;fill-rule:nonzero}
    .fil36 {fill:#1A534B;fill-rule:nonzero}
   ]]>
  </style>
 </defs>
 <g id="Capa_x0020_1">
  <metadata id="CorelCorpID_0Corel-Layer"/>
  <path class="fil0" d="M307.58 227.69c-0.18,0 -0.37,-0.06 -0.52,-0.18 -1.75,-1.39 -3.55,-2.76 -5.34,-4.07 -0.38,-0.27 -0.46,-0.8 -0.19,-1.18 0.27,-0.38 0.8,-0.46 1.18,-0.19 1.82,1.32 3.64,2.71 5.4,4.11 0.36,0.29 0.43,0.82 0.13,1.18 -0.17,0.21 -0.41,0.32 -0.66,0.32z"/>
  <path class="fil0" d="M199.93 193.44c-0.44,0 -0.81,-0.34 -0.84,-0.79 -0.03,-0.47 0.32,-0.87 0.79,-0.89 2.78,-0.17 5.62,-0.26 8.46,-0.27l0.45 0c1.59,0 3.17,0.02 4.75,0.07 0.47,0.02 0.83,0.41 0.82,0.87 -0.02,0.46 -0.34,0.83 -0.87,0.82 -1.56,-0.05 -3.13,-0.07 -4.7,-0.07l-0.45 0c-2.8,0.01 -5.61,0.1 -8.36,0.27l-0.05 0zm40.55 2.99l-0.17 -0.02c-4.4,-0.91 -8.89,-1.64 -13.34,-2.16 -0.46,-0.05 -0.79,-0.47 -0.74,-0.94 0.06,-0.46 0.48,-0.79 0.94,-0.74 4.5,0.53 9.03,1.27 13.48,2.19 0.46,0.09 0.75,0.54 0.66,1 -0.08,0.4 -0.43,0.67 -0.83,0.67zm-67.29 1.53c-0.37,0 -0.7,-0.24 -0.81,-0.61 -0.13,-0.45 0.13,-0.91 0.58,-1.04 4.27,-1.24 8.76,-2.25 13.35,-3.01 0.46,-0.08 0.89,0.23 0.97,0.69 0.08,0.46 -0.23,0.89 -0.69,0.97 -4.52,0.75 -8.95,1.75 -13.15,2.97l-0.23 0.03zm93.33 6.17l-0.31 -0.06c-4.18,-1.63 -8.49,-3.11 -12.79,-4.38 -0.45,-0.13 -0.7,-0.6 -0.57,-1.05 0.13,-0.45 0.6,-0.7 1.05,-0.57 4.35,1.29 8.69,2.77 12.92,4.42 0.43,0.17 0.65,0.66 0.48,1.09 -0.13,0.33 -0.45,0.54 -0.79,0.54zm-118.07 4.83c-0.28,0 -0.55,-0.14 -0.71,-0.39 -0.25,-0.39 -0.14,-0.91 0.26,-1.16 3.77,-2.4 7.83,-4.57 12.09,-6.45 0.43,-0.19 0.92,0.01 1.11,0.43 0.19,0.43 -0.01,0.92 -0.43,1.11 -4.18,1.84 -8.17,3.97 -11.86,6.33 -0.14,0.09 -0.3,0.13 -0.45,0.13zm142.44 7.14l-0.43 -0.12c-3.83,-2.31 -7.83,-4.48 -11.87,-6.47 -0.42,-0.2 -0.59,-0.71 -0.39,-1.13 0.2,-0.42 0.71,-0.59 1.13,-0.38 4.08,2 8.12,4.2 11.99,6.54 0.4,0.24 0.53,0.76 0.29,1.16 -0.16,0.26 -0.44,0.41 -0.72,0.41zm-162.29 11.2c-0.17,0 -0.35,-0.05 -0.5,-0.17 -0.37,-0.28 -0.45,-0.81 -0.18,-1.18 2.74,-3.7 5.82,-7.14 9.17,-10.22 0.34,-0.31 0.88,-0.29 1.19,0.05 0.32,0.34 0.29,0.88 -0.05,1.19 -3.27,3.01 -6.28,6.36 -8.96,9.98 -0.17,0.22 -0.42,0.34 -0.68,0.34zm-11.61 24.38l-0.2 -0.02c-0.45,-0.11 -0.73,-0.57 -0.62,-1.02 1.08,-4.37 2.65,-8.72 4.66,-12.92 0.2,-0.42 0.7,-0.6 1.13,-0.4 0.42,0.2 0.6,0.71 0.39,1.13 -1.96,4.1 -3.49,8.34 -4.55,12.6 -0.09,0.38 -0.44,0.64 -0.82,0.64zm-0.2 26.91c-0.38,0 -0.72,-0.25 -0.82,-0.64 -1.05,-4.19 -1.58,-8.56 -1.58,-13l0 -0.68c0.01,-0.46 0.38,-0.83 0.84,-0.83l0.01 0c0.47,0 0.84,0.39 0.84,0.85l-0 0.66c0,4.3 0.51,8.53 1.53,12.59 0.11,0.45 -0.16,0.91 -0.61,1.02l-0.21 0.03zm10.41 25.06c-0.32,0 -0.63,-0.18 -0.77,-0.5 -0.9,-1.99 -1.85,-3.97 -2.79,-5.96 -1.01,-2.11 -2.02,-4.22 -2.97,-6.35 -0.19,-0.43 -0,-0.92 0.42,-1.12 0.42,-0.19 0.92,-0 1.12,0.42 0.95,2.12 1.95,4.22 2.96,6.32 0.95,1.99 1.9,3.99 2.81,5.99 0.19,0.43 0,0.92 -0.42,1.12l-0.35 0.07zm5.87 26.21l-0.07 -0c-0.46,-0.04 -0.81,-0.45 -0.77,-0.91 0.1,-1.1 0.15,-2.21 0.15,-3.3 0,-0.85 -0.03,-1.7 -0.09,-2.55 -0.17,-2.39 -0.56,-4.79 -1.21,-7.33 -0.11,-0.45 0.16,-0.91 0.61,-1.03 0.44,-0.11 0.91,0.16 1.03,0.61 0.67,2.65 1.08,5.14 1.26,7.63 0.06,0.89 0.09,1.78 0.09,2.67 0,1.14 -0.05,2.3 -0.15,3.45 -0.04,0.44 -0.41,0.77 -0.84,0.77zm-9.94 24.95c-0.17,0 -0.34,-0.05 -0.49,-0.16 -0.38,-0.27 -0.46,-0.8 -0.19,-1.18 2.71,-3.75 4.91,-7.68 6.55,-11.65 0.18,-0.43 0.67,-0.63 1.1,-0.46 0.43,0.18 0.64,0.67 0.46,1.1 -1.69,4.09 -3.95,8.13 -6.74,11.99 -0.17,0.23 -0.42,0.35 -0.69,0.35zm-19.28 19.03c-0.25,0 -0.5,-0.11 -0.67,-0.33 -0.29,-0.37 -0.22,-0.9 0.15,-1.18 3.97,-3.07 7.32,-5.94 10.25,-8.77 0.34,-0.32 0.87,-0.31 1.19,0.02 0.32,0.34 0.31,0.87 -0.02,1.19 -2.98,2.87 -6.38,5.78 -10.39,8.89 -0.15,0.12 -0.34,0.18 -0.52,0.18zm-22.06 15.88c-0.26,0 -0.52,-0.12 -0.69,-0.35 -0.27,-0.38 -0.18,-0.91 0.2,-1.18 3.22,-2.3 6.44,-4.57 9.64,-6.83l1.45 -1.03c0.38,-0.27 0.91,-0.18 1.18,0.2 0.27,0.38 0.18,0.91 -0.2,1.18l-1.46 1.03c-3.2,2.26 -6.42,4.53 -9.63,6.82 -0.15,0.11 -0.32,0.16 -0.49,0.16zm-21.78 16.26c-0.25,0 -0.5,-0.11 -0.66,-0.32 -0.29,-0.36 -0.23,-0.9 0.14,-1.19 3.32,-2.63 6.85,-5.34 10.81,-8.28 0.38,-0.28 0.9,-0.2 1.18,0.18 0.28,0.37 0.2,0.9 -0.17,1.18 -3.94,2.93 -7.47,5.63 -10.77,8.25 -0.16,0.12 -0.34,0.18 -0.52,0.18zm-20.44 17.9c-0.22,0 -0.44,-0.08 -0.6,-0.25 -0.33,-0.33 -0.32,-0.87 0.01,-1.19 3.09,-3.04 6.46,-6.16 10.02,-9.26 0.35,-0.31 0.88,-0.27 1.19,0.08 0.31,0.35 0.27,0.88 -0.08,1.19 -3.53,3.08 -6.88,6.17 -9.94,9.19 -0.16,0.16 -0.38,0.24 -0.59,0.24zm-17.76 20.53c-0.17,0 -0.34,-0.05 -0.49,-0.16 -0.38,-0.27 -0.47,-0.8 -0.19,-1.18 2.57,-3.58 5.43,-7.18 8.49,-10.71 0.31,-0.35 0.84,-0.39 1.19,-0.08 0.35,0.31 0.39,0.84 0.08,1.19 -3.03,3.48 -5.85,7.04 -8.39,10.58 -0.17,0.23 -0.42,0.35 -0.69,0.35zm-13.25 23.66l-0.32 -0.06c-0.43,-0.17 -0.64,-0.67 -0.46,-1.1 0.72,-1.76 1.49,-3.52 2.31,-5.24 1.13,-2.37 2.36,-4.75 3.67,-7.07 0.23,-0.41 0.74,-0.55 1.15,-0.32 0.41,0.23 0.55,0.74 0.32,1.15 -1.29,2.29 -2.5,4.63 -3.62,6.97 -0.8,1.69 -1.57,3.42 -2.27,5.15 -0.13,0.33 -0.45,0.52 -0.78,0.52zm-6.81 26.23l-0.11 -0.01c-0.46,-0.06 -0.79,-0.48 -0.73,-0.94 0.58,-4.55 1.44,-9.08 2.57,-13.44 0.12,-0.45 0.57,-0.72 1.03,-0.61 0.45,0.12 0.72,0.58 0.61,1.03 -1.11,4.3 -1.96,8.75 -2.53,13.23 -0.05,0.43 -0.42,0.74 -0.84,0.74zm-0.14 27.12c-0.42,0 -0.79,-0.32 -0.84,-0.75 -0.5,-4.37 -0.75,-8.8 -0.75,-13.17l0 -0.5c0,-0.46 0.38,-0.84 0.84,-0.84 0.44,0.05 0.85,0.38 0.84,0.85l-0 0.49c0,4.3 0.25,8.66 0.74,12.97 0.05,0.46 -0.28,0.88 -0.74,0.94l-0.1 0zm6.14 26.42c-0.35,0 -0.67,-0.21 -0.79,-0.56 -1.53,-4.27 -2.82,-8.69 -3.86,-13.13 -0.11,-0.45 0.18,-0.91 0.63,-1.01 0.45,-0.1 0.91,0.18 1.01,0.63 1.02,4.38 2.3,8.73 3.8,12.94 0.16,0.44 -0.07,0.92 -0.51,1.08l-0.28 0.05zm12.07 24.29c-0.27,0 -0.54,-0.13 -0.71,-0.38 -2.48,-3.77 -4.78,-7.77 -6.81,-11.87 -0.21,-0.42 -0.04,-0.92 0.38,-1.13 0.42,-0.21 0.92,-0.04 1.13,0.38 2,4.04 4.26,7.98 6.71,11.69 0.26,0.39 0.15,0.91 -0.24,1.17 -0.14,0.09 -0.3,0.14 -0.46,0.14zm17.67 20.55c-0.2,0 -0.4,-0.07 -0.56,-0.21 -3.37,-3.01 -6.59,-6.3 -9.58,-9.78 -0.3,-0.35 -0.26,-0.88 0.09,-1.19 0.36,-0.3 0.89,-0.26 1.19,0.09 2.94,3.42 6.11,6.66 9.42,9.62 0.35,0.31 0.38,0.84 0.07,1.19 -0.17,0.19 -0.4,0.28 -0.63,0.28zm22.32 15.39l-0.4 -0.1c-4.08,-2.18 -8.01,-4.56 -11.69,-7.09 -0.39,-0.27 -0.48,-0.79 -0.22,-1.17 0.26,-0.38 0.79,-0.48 1.17,-0.22 3.63,2.49 7.51,4.84 11.53,6.99 0.41,0.22 0.57,0.73 0.35,1.14 -0.15,0.29 -0.44,0.45 -0.74,0.45zm25.04 10.47l-0.26 -0.04c-4.46,-1.44 -8.78,-3.02 -12.82,-4.7 -0.43,-0.18 -0.63,-0.67 -0.46,-1.1 0.18,-0.43 0.67,-0.64 1.1,-0.46 4,1.66 8.27,3.22 12.69,4.65 0.44,0.14 0.69,0.62 0.54,1.06 -0.12,0.36 -0.45,0.59 -0.8,0.59zm26.34 6.65l-0.16 -0.02c-4.61,-0.9 -9.09,-1.89 -13.31,-2.94 -0.45,-0.11 -0.73,-0.57 -0.61,-1.02 0.11,-0.45 0.57,-0.73 1.02,-0.62 4.2,1.05 8.64,2.03 13.23,2.92 0.46,0.09 0.76,0.53 0.67,0.99 -0.08,0.4 -0.43,0.68 -0.83,0.68zm26.85 4.21l-0.11 -0.01c-4.9,-0.62 -9.31,-1.24 -13.48,-1.89 -0.46,-0.07 -0.78,-0.5 -0.71,-0.96 0.07,-0.46 0.5,-0.78 0.96,-0.71 4.16,0.64 8.56,1.26 13.44,1.88 0.46,0.06 0.79,0.48 0.73,0.95 -0.05,0.43 -0.42,0.74 -0.84,0.74z"/>
  <path class="fil0" d="M158.39 631.73l-0.09 -0.01c-2.23,-0.24 -4.47,-0.48 -6.71,-0.74 -0.46,-0.05 -0.8,-0.47 -0.75,-0.93 0.05,-0.46 0.47,-0.78 0.93,-0.74 2.24,0.25 4.48,0.49 6.71,0.74 0.46,0.05 0.8,0.47 0.75,0.93 -0.05,0.43 -0.41,0.75 -0.84,0.75z"/>
  <path class="fil0" d="M484.99 254.66c-0.42,0 -0.78,-0.31 -0.83,-0.73 -0.06,-0.46 0.26,-0.89 0.72,-0.95 2.23,-0.3 4.47,-0.58 6.72,-0.83 0.43,-0.06 0.88,0.28 0.94,0.74 0.05,0.46 -0.28,0.88 -0.74,0.93 -2.23,0.26 -4.46,0.54 -6.68,0.83l-0.11 0.01z"/>
  <path class="fil0" d="M545.53 252.01l-0.05 -0c-4.39,-0.24 -8.91,-0.39 -13.44,-0.42 -0.47,-0.01 -0.84,-0.38 -0.84,-0.85 0,-0.46 0.38,-0.84 0.84,-0.84l0.01 0c4.55,0.04 9.1,0.18 13.52,0.43 0.47,0.03 0.82,0.42 0.79,0.89 -0.02,0.45 -0.4,0.8 -0.84,0.8zm-40.42 0.53c-0.44,0 -0.81,-0.34 -0.84,-0.78 -0.04,-0.47 0.31,-0.87 0.78,-0.91 4.53,-0.35 9.07,-0.6 13.49,-0.76 0.45,-0.04 0.86,0.35 0.87,0.81 0.02,0.47 -0.35,0.86 -0.81,0.87 -4.4,0.16 -8.91,0.41 -13.42,0.76l-0.07 0zm67.21 2.35l-0.14 -0.01c-4.34,-0.71 -8.82,-1.31 -13.31,-1.79 -0.46,-0.05 -0.8,-0.47 -0.75,-0.93 0.05,-0.46 0.49,-0.8 0.93,-0.75 4.52,0.48 9.03,1.09 13.41,1.8 0.46,0.08 0.77,0.51 0.7,0.97 -0.07,0.41 -0.43,0.71 -0.83,0.71zm26.29 5.91l-0.24 -0.03c-4.22,-1.23 -8.6,-2.36 -13,-3.35 -0.45,-0.1 -0.74,-0.55 -0.64,-1.01 0.1,-0.45 0.55,-0.74 1.01,-0.64 4.44,1 8.85,2.13 13.11,3.37 0.45,0.13 0.7,0.6 0.57,1.05 -0.11,0.37 -0.44,0.61 -0.81,0.61zm25.29 9.3l-0.35 -0.08c-4.03,-1.81 -8.21,-3.52 -12.42,-5.07 -0.44,-0.16 -0.66,-0.64 -0.5,-1.08 0.16,-0.44 0.65,-0.66 1.08,-0.5 4.25,1.56 8.47,3.28 12.53,5.11 0.43,0.19 0.61,0.69 0.42,1.12 -0.14,0.31 -0.45,0.5 -0.77,0.5zm23.59 12.99c-0.16,0 -0.32,-0.05 -0.47,-0.14 -3.71,-2.47 -7.57,-4.8 -11.47,-6.95 -0.41,-0.22 -0.56,-0.74 -0.33,-1.15 0.23,-0.41 0.74,-0.55 1.15,-0.33 3.94,2.17 7.83,4.53 11.59,7.02 0.39,0.26 0.49,0.78 0.24,1.17 -0.16,0.24 -0.43,0.38 -0.7,0.38zm21.14 16.69c-0.21,0 -0.42,-0.07 -0.58,-0.23 -3.24,-3.03 -6.66,-5.97 -10.17,-8.74 -0.36,-0.29 -0.43,-0.82 -0.14,-1.18 0.29,-0.37 0.82,-0.43 1.19,-0.14 3.55,2.8 7,5.77 10.28,8.83 0.34,0.32 0.36,0.85 0.04,1.19 -0.17,0.18 -0.39,0.27 -0.62,0.27zm18.03 20.01c-0.25,0 -0.51,-0.12 -0.67,-0.34 -2.66,-3.53 -5.53,-7.01 -8.53,-10.34 -0.31,-0.35 -0.29,-0.88 0.06,-1.19 0.35,-0.31 0.88,-0.29 1.19,0.06 3.04,3.37 5.94,6.88 8.63,10.46 0.28,0.37 0.21,0.9 -0.17,1.18 -0.15,0.11 -0.33,0.17 -0.51,0.17zm14.1 22.94c-0.31,0 -0.61,-0.17 -0.76,-0.47 -1.93,-3.97 -4.1,-7.91 -6.46,-11.74 -0.24,-0.4 -0.12,-0.92 0.28,-1.16 0.39,-0.24 0.91,-0.12 1.16,0.28 2.38,3.87 4.58,7.87 6.53,11.88 0.2,0.42 0.03,0.92 -0.39,1.13l-0.37 0.08zm9.14 25.3c-0.38,0 -0.73,-0.26 -0.82,-0.65 -1.03,-4.28 -2.33,-8.58 -3.86,-12.81 -0.16,-0.44 0.07,-0.92 0.51,-1.08 0.43,-0.16 0.92,0.07 1.08,0.51 1.55,4.28 2.87,8.65 3.91,12.99 0.11,0.45 -0.17,0.91 -0.62,1.02l-0.2 0.02zm3.18 26.7l-0.01 0c-0.47,-0 -0.84,-0.38 -0.84,-0.85l0 -0.81c0,-2.67 -0.12,-5.48 -0.36,-8.35 -0.12,-1.4 -0.26,-2.79 -0.43,-4.18 -0.06,-0.46 0.27,-0.88 0.73,-0.94 0.45,-0.05 0.88,0.27 0.94,0.74 0.17,1.41 0.32,2.83 0.44,4.25 0.24,2.92 0.36,5.77 0.36,8.49l-0 0.82c-0,0.46 -0.38,0.84 -0.84,0.84zm-5.21 26.27l-0.33 -0.07c-0.43,-0.18 -0.62,-0.68 -0.44,-1.11 1.01,-2.34 1.87,-4.73 2.56,-7.1 0.52,-1.79 0.97,-3.67 1.33,-5.58 0.09,-0.46 0.53,-0.76 0.99,-0.67 0.46,0.09 0.76,0.53 0.67,0.99 -0.37,1.96 -0.84,3.89 -1.37,5.73 -0.71,2.45 -1.59,4.91 -2.63,7.31 -0.14,0.32 -0.45,0.51 -0.77,0.51zm-14.9 22.32c-0.2,0 -0.41,-0.07 -0.57,-0.22 -0.34,-0.31 -0.37,-0.85 -0.05,-1.19 3.15,-3.45 5.94,-6.97 8.3,-10.45 0.26,-0.39 0.79,-0.48 1.17,-0.23 0.39,0.26 0.49,0.79 0.23,1.17 -2.41,3.55 -5.25,7.13 -8.46,10.64 -0.17,0.18 -0.39,0.28 -0.62,0.28zm-20.04 18c-0.25,0 -0.5,-0.11 -0.67,-0.33 -0.28,-0.37 -0.21,-0.9 0.15,-1.18 1.11,-0.86 2.22,-1.72 3.32,-2.6 2.48,-1.98 4.86,-3.97 7.05,-5.92 0.34,-0.31 0.88,-0.28 1.19,0.07 0.31,0.35 0.28,0.88 -0.07,1.19 -2.22,1.97 -4.61,3.98 -7.12,5.98 -1.1,0.88 -2.22,1.75 -3.34,2.62 -0.15,0.12 -0.33,0.17 -0.51,0.17zm-21.68 16.03c-0.25,0 -0.51,-0.12 -0.68,-0.34 -0.28,-0.37 -0.2,-0.9 0.17,-1.18 2.99,-2.24 6.01,-4.44 9.03,-6.64l1.84 -1.34c0.38,-0.27 0.9,-0.19 1.18,0.19 0.27,0.38 0.19,0.9 -0.18,1.18l-1.84 1.34c-3.02,2.2 -6.03,4.39 -9.02,6.63 -0.15,0.11 -0.33,0.17 -0.51,0.17zm-20.55 17.42c-0.21,0 -0.43,-0.08 -0.59,-0.24 -0.33,-0.33 -0.34,-0.86 -0.02,-1.19l0.56 -0.57c2.84,-2.83 5.93,-5.64 9.45,-8.58 0.36,-0.3 0.89,-0.25 1.19,0.1 0.3,0.36 0.25,0.89 -0.11,1.19 -3.48,2.91 -6.54,5.69 -9.34,8.48l-0.54 0.55c-0.17,0.17 -0.39,0.25 -0.6,0.25zm-12.31 23.31l-0.02 0c-0.47,-0.01 -0.83,-0.4 -0.82,-0.87 0.11,-4.21 1.5,-8.62 4.12,-13.13 0.23,-0.4 0.75,-0.54 1.15,-0.3 0.4,0.23 0.54,0.75 0.3,1.15 -2.48,4.25 -3.79,8.4 -3.89,12.32 -0.01,0.46 -0.39,0.82 -0.84,0.82zm13.8 21.83c-0.17,0 -0.34,-0.05 -0.49,-0.16 -4.4,-3.15 -7.66,-6.24 -9.94,-9.43 -0.27,-0.38 -0.18,-0.91 0.19,-1.18 0.38,-0.27 0.91,-0.19 1.18,0.2 2.18,3.04 5.3,6 9.55,9.04 0.38,0.27 0.47,0.8 0.19,1.18 -0.17,0.23 -0.42,0.35 -0.69,0.35zm22.94 14.15l-0.44 -0.12c-2.46,-1.51 -4.95,-2.99 -7.44,-4.46 -1.38,-0.82 -2.75,-1.63 -4.12,-2.45 -0.4,-0.24 -0.53,-0.76 -0.29,-1.16 0.24,-0.4 0.76,-0.53 1.16,-0.29 1.37,0.82 2.74,1.64 4.11,2.45 2.5,1.48 4.99,2.96 7.46,4.47 0.4,0.24 0.52,0.76 0.28,1.16 -0.16,0.26 -0.44,0.4 -0.72,0.4zm21.65 15.98c-0.21,0 -0.42,-0.08 -0.59,-0.24 -0.98,-0.95 -2,-1.89 -3.03,-2.78 -2.21,-1.93 -4.59,-3.8 -7.26,-5.72 -0.38,-0.27 -0.46,-0.8 -0.19,-1.18 0.27,-0.38 0.8,-0.47 1.18,-0.19 2.71,1.95 5.13,3.85 7.38,5.81 1.05,0.91 2.09,1.87 3.1,2.85 0.33,0.32 0.34,0.86 0.02,1.19 -0.17,0.17 -0.39,0.25 -0.61,0.25zm14.76 22.28c-0.35,0 -0.68,-0.22 -0.8,-0.57 -1.36,-3.98 -3.37,-7.95 -5.98,-11.79 -0.26,-0.39 -0.16,-0.91 0.23,-1.17 0.38,-0.27 0.91,-0.16 1.17,0.22 2.69,3.97 4.77,8.07 6.18,12.19 0.15,0.44 -0.08,0.92 -0.52,1.07l-0.27 0.05zm-0.49 26.37l-0.31 -0.06c-0.43,-0.17 -0.65,-0.66 -0.48,-1.09 1.63,-4.14 2.5,-8.38 2.6,-12.6l0 -0.25c0.01,-0.46 0.37,-0.89 0.86,-0.83 0.47,0.01 0.84,0.39 0.83,0.86l-0.01 0.25c-0.1,4.42 -1.02,8.85 -2.72,13.18 -0.13,0.33 -0.45,0.53 -0.79,0.53zm-16.29 21.09c-0.25,0 -0.5,-0.11 -0.66,-0.32 -0.29,-0.37 -0.22,-0.9 0.15,-1.19 3.56,-2.78 6.73,-5.92 9.41,-9.33 0.29,-0.37 0.82,-0.43 1.19,-0.14 0.37,0.29 0.43,0.82 0.14,1.18 -2.76,3.52 -6.02,6.75 -9.7,9.62 -0.16,0.12 -0.34,0.18 -0.52,0.18zm-24.02 11.93c-0.36,0 -0.69,-0.23 -0.81,-0.6 -0.14,-0.45 0.11,-0.92 0.56,-1.05 4.55,-1.4 8.62,-2.99 12.44,-4.84 0.42,-0.2 0.92,-0.03 1.13,0.39 0.2,0.42 0.03,0.92 -0.39,1.13 -3.9,1.89 -8.04,3.5 -12.67,4.93l-0.25 0.04zm-26.36 5.53c-0.42,0 -0.78,-0.31 -0.83,-0.73 -0.07,-0.46 0.26,-0.89 0.72,-0.95l0.35 -0.05c5,-0.74 9.1,-1.44 12.89,-2.2 0.45,-0.1 0.9,0.2 0.99,0.66 0.09,0.46 -0.2,0.9 -0.66,0.99 -3.82,0.77 -7.94,1.47 -12.97,2.22l-0.37 0.05 -0.11 0.01zm-26.78 3.13c-0.43,0 -0.8,-0.33 -0.84,-0.77 -0.04,-0.46 0.3,-0.87 0.77,-0.91 4.43,-0.39 8.93,-0.85 13.39,-1.37 0.45,-0.05 0.88,0.28 0.94,0.74 0.05,0.46 -0.28,0.88 -0.74,0.94 -4.47,0.52 -8.99,0.98 -13.44,1.37l-0.07 0zm-26.91 1.57c-0.45,0 -0.83,-0.36 -0.84,-0.82 -0.01,-0.47 0.35,-0.86 0.82,-0.87 4.44,-0.13 8.97,-0.32 13.44,-0.58 0.46,-0.04 0.86,0.33 0.89,0.79 0.03,0.47 -0.33,0.87 -0.79,0.89 -4.49,0.26 -9.03,0.46 -13.49,0.59l-0.03 0zm-13.48 0.19c-4.48,0 -9.03,-0.07 -13.5,-0.2 -0.47,-0.02 -0.83,-0.4 -0.82,-0.87 0.01,-0.47 0.39,-0.85 0.87,-0.82 4.46,0.13 8.99,0.2 13.46,0.2 0.47,0 0.84,0.38 0.84,0.84 0,0.47 -0.38,0.84 -0.84,0.84z"/>
  <path class="fil0" d="M530.1 661.33l-0.05 -0c-2.25,-0.13 -4.5,-0.28 -6.75,-0.45 -0.47,-0.03 -0.81,-0.44 -0.78,-0.9 0.04,-0.47 0.48,-0.81 0.9,-0.78 2.24,0.17 4.48,0.31 6.73,0.45 0.46,0.03 0.82,0.43 0.79,0.89 -0.03,0.45 -0.4,0.8 -0.84,0.8z"/>
  <path class="fil1" d="M614.14 691.06c0,12.46 -118.71,22.55 -265.15,22.55 -3.65,0 -7.26,0 -10.87,-0.03 -6.9,11.44 -69.87,20.4 -146.53,20.4 -81.28,0 -147.17,-10.08 -147.17,-22.5 0,-6.31 16.98,-12 44.34,-16.08 -3.22,-1.4 -4.91,-2.85 -4.91,-4.34 0,-12.47 118.71,-22.56 265.14,-22.56 146.44,0 265.15,10.09 265.15,22.56z"/>
  <path class="fil2" d="M538.76 350.91l-328.85 0c-1.7,0 -3.09,-1.4 -3.09,-3.09 0,-1.7 1.38,-3.09 3.09,-3.09l337.88 0c1.71,0 3.09,1.38 3.09,3.09 0,1.69 -1.38,3.09 -3.09,3.09l-9.03 0z"/>
  <polygon class="fil3" points="547.79,344.74 209.91,344.74 249.1,319.37 521.9,319.37 "/>
  <path class="fil2" d="M232.51 400.75l-24.44 0c-1.7,0 -3.09,-1.38 -3.09,-3.09 0,-1.7 1.39,-3.09 3.09,-3.09l337.88 0c1.71,0 3.11,1.38 3.11,3.09 0,1.71 -1.4,3.09 -3.11,3.09l-313.44 0z"/>
  <path class="fil4" d="M542.69 394.57l-330.59 0c1.15,-1.32 1.97,-2.75 2.6,-4.27l325.66 -0.37c0.71,1.57 1.47,3.12 2.33,4.64z"/>
  <path class="fil5" d="M540.36 389.93l-325.66 0.37c0.54,-1.25 0.94,-2.53 1.28,-3.81l321.56 -4.54c0.72,2.7 1.67,5.37 2.82,7.98z"/>
  <path class="fil5" d="M212.48 350.91l326.28 0c-0.99,2.8 -1.74,5.65 -2.24,8.54l-321.81 -3.17c-0.64,-1.81 -1.39,-3.6 -2.23,-5.37z"/>
  <path class="fil4" d="M537.55 381.95l-321.56 4.54c1.06,-3.95 1.62,-7.98 1.69,-12.02l318.71 2.03c0.29,1.84 0.68,3.65 1.17,5.45z"/>
  <path class="fil4" d="M214.71 356.28l321.81 3.17c-0.41,2.26 -0.64,4.54 -0.72,6.82l-318.1 2.4 -0.24 0.02c-0.39,-4.19 -1.32,-8.34 -2.75,-12.4z"/>
  <path class="fil5" d="M536.38 376.5l-318.71 -2.03c0.05,-1.92 -0.02,-3.87 -0.22,-5.79l0.24 -0.02 318.1 -2.4c-0.15,3.41 0.05,6.84 0.59,10.23z"/>
  <path class="fil2" d="M382.26 491.58l161.53 0c1.5,0 2.73,1.23 2.73,2.73 0,1.5 -1.23,2.73 -2.73,2.73l-340.16 0c-1.5,0 -2.72,-1.23 -2.72,-2.73 0,-1.5 1.21,-2.73 2.72,-2.73l178.63 0z"/>
  <path class="fil2" d="M543.3 453.93c1.5,0 2.73,1.22 2.73,2.72 0,1.5 -1.23,2.74 -2.73,2.74l-4.96 0 0.12 -0.34 -17.3 0.34 -318 0c-1.5,0 -2.73,-1.23 -2.73,-2.74 0,-1.5 1.23,-2.72 2.73,-2.72l340.14 0z"/>
  <path class="fil5" d="M521.16 459.38l17.18 0c-0.88,2.26 -1.55,4.59 -2.03,6.95l-327.25 5.77c-0.19,-2.21 -0.49,-4.42 -0.91,-6.62l313 -6.11z"/>
  <path class="fil5" d="M538.25 491.58l-155.99 0 154.17 -6.09c0.45,2.06 1.06,4.1 1.82,6.09z"/>
  <path class="fil4" d="M536.43 485.49l-154.17 6.09 -174.2 0 0 -0.66c0.22,-1.11 0.42,-2.23 0.57,-3.34l326.72 -9.08 0.1 0c0.14,2.34 0.47,4.69 0.98,6.99z"/>
  <path class="fil4" d="M209.07 472.11l327.25 -5.77c-0.56,2.6 -0.86,5.25 -0.93,7.92l-0.03 0 -326.05 1.4c-0.05,-1.18 -0.12,-2.36 -0.24,-3.54z"/>
  <path class="fil5" d="M535.45 478.5l-0.1 0 -326.72 9.08c0.59,-3.95 0.81,-7.95 0.67,-11.93l326.05 -1.4 0.03 0c-0.05,1.42 -0.03,2.84 0.07,4.25z"/>
  <path class="fil4" d="M521.16 459.38l-313 6.11c-0.32,-1.7 -0.72,-3.41 -1.18,-5.1l0 -1.01 314.18 0z"/>
  <path class="fil6" d="M533.95 515.62c0.34,3.98 0.15,7.98 -0.31,11.97 -0.29,2.46 -0.67,4.93 -1.1,7.38 -0.04,0.22 0.03,0.52 0.25,0.52l0 1.3 -58.18 0c5.52,-12.18 5.08,-26.94 -1.16,-38.78l0 -0.69 53.8 0 0 0.37c4.08,5.03 6.13,11.49 6.68,17.94z"/>
  <path class="fil7" d="M473.46 498c6.24,11.85 6.68,26.6 1.16,38.78l-207.98 0c-1.64,-5.28 -2.19,-10.87 -1.62,-16.37 0.35,-3.32 1.1,-6.58 1.94,-9.81 1.18,-4.47 2.53,-8.91 4.07,-13.3l202.42 0 0 0.69z"/>
  <path class="fil6" d="M271.04 497.3c-1.54,4.39 -2.89,8.83 -4.07,13.3 -0.84,3.22 -1.59,6.48 -1.94,9.81 -0.57,5.5 -0.01,11.09 1.62,16.37l-47.69 0 0 -0.68c-0.8,-3.02 -1.28,-6.13 -1.49,-9.23 -0.68,-10.38 1.89,-20.96 7.36,-29.82l46.29 0 -0.08 0.25z"/>
  <path class="fil8" d="M533.88 401.27c0.47,0 0.86,0.41 1.1,0.78 10.16,15.76 9.66,35.41 -1.33,50.83l0 1.05 -17.55 0 0 -0.89c5.57,-8.61 6.31,-18.62 5.57,-28.22 -0.64,-8.32 -2.43,-16.84 -8.12,-23.88l20.34 0 0 0.34z"/>
  <path class="fil7" d="M521.66 424.82c0.74,9.6 0,19.61 -5.57,28.22l0 0.89 -286.96 0c-4.46,-15.17 -4.44,-31.12 0.03,-46.28 0.69,-2.33 1.52,-4.71 3.19,-6.72l281.19 0c5.69,7.04 7.48,15.56 8.12,23.88z"/>
  <path class="fil8" d="M211.45 400.94l20.91 0c-1.67,2.01 -2.5,4.39 -3.19,6.72 -4.47,15.16 -4.49,31.1 -0.03,46.28l-18.04 0 0 -1.1c-1.69,-1.81 -2.45,-4 -3.09,-6.16 -3.46,-11.88 -3.74,-24.32 -0.83,-36.29 0.81,-3.31 1.89,-6.65 4.27,-9.45z"/>
  <path class="fil2" d="M535.1 545.03l-327.82 0c-2.26,0 -4.12,-1.86 -4.12,-4.12l0 -0.02c0,-2.26 1.86,-4.12 4.12,-4.12l335.8 0c2.28,0 4.13,1.86 4.13,4.12l0 0.02c0,2.26 -1.85,4.12 -4.13,4.12l-7.98 0z"/>
  <path class="fil2" d="M208.46 603.34l332.8 0c2.26,0 4.12,1.88 4.12,4.14 0,1.15 -0.45,2.18 -1.21,2.92 -0.74,0.76 -1.77,1.22 -2.9,1.22l-335.8 0c-2.28,0 -4.14,-1.86 -4.14,-4.13 0,-1.13 0.46,-2.16 1.22,-2.92 0.74,-0.74 1.77,-1.22 2.92,-1.22l3 0z"/>
  <path class="fil9" d="M532.8 535.48c-0.22,0 -0.29,-0.3 -0.25,-0.52 0.42,-2.45 0.81,-4.91 1.1,-7.38l9.44 9.2 -10.28 0 0 -1.3z"/>
  <path class="fil5" d="M539.01 603.34l-330.56 0c1.13,-1.75 1.96,-3.69 2.58,-5.7l0.02 0 325.63 -0.49 0.02 0c0.69,2.09 1.45,4.15 2.31,6.19z"/>
  <path class="fil4" d="M536.69 597.15l-325.63 0.49c0.52,-1.67 0.93,-3.38 1.27,-5.08l321.56 -6.06c0.71,3.61 1.65,7.17 2.8,10.65z"/>
  <path class="fil4" d="M208.81 545.03l326.28 0c-0.99,3.74 -1.74,7.56 -2.24,11.41l-321.81 -4.23c-0.64,-2.41 -1.39,-4.81 -2.23,-7.17z"/>
  <path class="fil5" d="M533.88 586.5l-321.56 6.06c1.06,-5.28 1.62,-10.67 1.69,-16.05l318.71 2.72c0.29,2.43 0.68,4.86 1.17,7.28z"/>
  <path class="fil5" d="M211.04 552.21l321.81 4.23c-0.4,3.02 -0.64,6.06 -0.72,9.12l-318.1 3.21 -0.23 0.02c-0.39,-5.6 -1.32,-11.16 -2.75,-16.57z"/>
  <path class="fil4" d="M532.72 579.22l-318.71 -2.72c0.05,-2.58 -0.02,-5.17 -0.22,-7.73l0.23 -0.02 318.1 -3.21c-0.15,4.56 0.05,9.13 0.59,13.67z"/>
  <path class="fil9" d="M218.96 536.1l0 0.68 -11.68 0 10.19 -9.91c0.2,3.11 0.69,6.21 1.49,9.23z"/>
  <path class="fil7" d="M553.32 614.06c11.41,22.7 10.82,51.02 -1.5,73.23l0 0.25 -19.68 0 0 -0.05c6.26,-12.39 7.07,-26.8 6.24,-40.64 -0.73,-11.97 -2.72,-24.27 -9.1,-34.4l21.92 0 0.61 0.52c0.64,-0.23 1.2,0.47 1.5,1.08z"/>
  <path class="fil10" d="M529.29 612.46l-315.4 0c0.17,-0.29 0.37,-0.57 0.57,-0.84l326.79 0c1.13,0 2.16,-0.46 2.9,-1.22 0.76,-0.74 1.21,-1.77 1.21,-2.92l5.84 4.98 -21.92 0z"/>
  <path class="fil6" d="M538.39 646.85c0.83,13.84 0.02,28.25 -6.24,40.64l0 0.05 -322.15 0c-4.73,-21.47 -4.61,-43.96 0.32,-65.4 0.76,-3.36 1.7,-6.8 3.58,-9.69l315.4 0c6.38,10.13 8.37,22.43 9.1,34.4z"/>
  <path class="fil10" d="M214.47 611.61c-0.2,0.27 -0.41,0.56 -0.57,0.84l-23.48 0c0.12,-0.17 0.24,-0.35 0.35,-0.52l10.55 -4.46c0,2.28 1.86,4.13 4.14,4.13l9.01 0z"/>
  <path class="fil7" d="M190.42 612.46l23.48 0c-1.87,2.89 -2.82,6.33 -3.58,9.69 -4.93,21.43 -5.05,43.93 -0.32,65.4l-19.6 0 -0.37 -0.34c-1.89,-2.6 -2.75,-5.76 -3.46,-8.88 -3.9,-17.11 -4.22,-35.02 -0.94,-52.25 0.91,-4.78 2.14,-9.59 4.79,-13.62z"/>
  <path class="fil11" d="M561.49 648.42l0 0c-0.01,-0.14 -0.01,-0.27 -0.01,-0.41 0.01,0.27 0.01,0.41 0.01,0.41zm-0.99 -11.86c-1.07,-6.79 -3.02,-13.44 -5.84,-19.7 3.24,5.56 4.95,13.29 5.84,19.7z"/>
  <path class="fil12" d="M561.49 648.42l-23.14 -2.24c-0.76,-11.75 -2.79,-23.79 -9.06,-33.72l21.92 0c1.31,1.2 2.45,2.7 3.44,4.4 2.82,6.27 4.77,12.91 5.84,19.7 0.77,5.53 0.94,10.1 0.98,11.45 0,0.14 0,0.27 0.01,0.41l0 0z"/>
  <path class="fil13" d="M538.35 646.18l-325.65 -31.57c0.35,-0.75 0.75,-1.47 1.2,-2.16l315.4 0c6.26,9.94 8.3,21.97 9.06,33.72z"/>
  <path class="fil12" d="M212.7 614.61l-22.28 -2.16 23.48 0c-0.45,0.69 -0.84,1.41 -1.2,2.16z"/>
  <path class="fil14" d="M217.37 524.28c0,0 -0,-0.11 0,-0.31 0,0.1 0,0.2 0,0.31l-0 0zm3.11 -18.23c1.05,-3.06 2.47,-6.17 4.36,-9 -1.76,2.85 -3.21,5.87 -4.36,9zm306.8 -8.75l-256.23 0 0.07 -0.21 256.16 0.21z"/>
  <path class="fil15" d="M475.24 501.83c-0.53,-1.31 -1.12,-2.59 -1.78,-3.84l0 -0.69 53.8 0 -52.02 4.53z"/>
  <path class="fil16" d="M265.06 520.13c0.36,-3.23 1.09,-6.39 1.91,-9.53 1.18,-4.47 2.53,-8.91 4.07,-13.3l202.42 0 0 0.69c0.66,1.25 1.25,2.53 1.78,3.84l-210.18 18.3z"/>
  <path class="fil15" d="M217.37 524.28c-0,-0.1 -0,-0.2 -0,-0.31 0.02,-1.64 0.25,-9.64 3.11,-17.92 1.15,-3.14 2.6,-6.16 4.36,-9l0 0 46.28 0.04 -0.07 0.21c-1.54,4.39 -2.89,8.83 -4.07,13.3 -0.82,3.13 -1.54,6.3 -1.91,9.53l-47.7 4.15 0 -0z"/>
  <g>
   <path class="fil11" d="M541.7 419.43c-0,-0.02 -0.01,-0.05 -0.01,-0.07 0.01,0.04 0.01,0.07 0.01,0.07l0 0 -0 0zm-2.85 -10.02c-0.77,-1.85 -1.67,-3.67 -2.69,-5.44 1.07,1.72 1.96,3.6 2.69,5.44zm-329.27 -5.73c1.05,-2.05 1.87,-2.75 1.87,-2.75 -0.74,0.87 -1.35,1.79 -1.87,2.75zm324.69 -2.33c-0.12,-0.05 -0.24,-0.09 -0.37,-0.09l0 -0.34c0.13,0.14 0.25,0.28 0.37,0.42z"/>
  </g>
  <path class="fil17" d="M521.17 420.14c-0.95,-6.78 -3,-13.48 -7.62,-19.21l20.34 0 0 0.34c0.13,0 0.26,0.03 0.37,0.09 0.69,0.8 1.32,1.68 1.9,2.61 1.03,1.77 1.92,3.59 2.69,5.44 1.91,4.82 2.73,9.35 2.84,9.95 0,0.02 0.01,0.04 0.01,0.07l-20.53 0.71z"/>
  <path class="fil12" d="M225.8 430.41c0.04,-7.65 1.16,-15.3 3.36,-22.75 0.69,-2.33 1.52,-4.71 3.19,-6.72l281.19 0c4.62,5.72 6.67,12.43 7.62,19.21l-295.36 10.26z"/>
  <path class="fil17" d="M205.37 431.12c-0.23,-15.83 2.34,-23.77 4.21,-27.43 0.52,-0.96 1.13,-1.88 1.87,-2.75l20.91 0c-1.67,2.01 -2.5,4.39 -3.19,6.72 -2.2,7.45 -3.32,15.1 -3.36,22.75l-20.44 0.71z"/>
  <path class="fil18" d="M263.67 645.26c-5,-0.52 -10,1.36 -14.16,4.2 -4.21,2.83 -7.72,6.55 -11.31,10.13 -9.8,9.8 -20.52,18.81 -32.49,25.8 -2.41,1.4 -4.86,2.73 -7.36,3.97 -7.53,-2.48 -14.61,-5.94 -21.48,-9.91 -13.02,-7.53 -25.24,-16.87 -38.1,-24.75 -3.93,-2.43 -8.18,-4.77 -12.79,-4.96l-0.37 0.21c-0.17,-0.3 -0.33,-0.61 -0.51,-0.91l0.12 -0.7 49.63 8.82 0.21 -3.32c11.67,1.73 23.64,-0.35 35.2,-2.94 9.89,-2.2 19.75,-4.81 29.05,-8.84 3.42,-1.47 6.78,-3.16 9.61,-5.58 18.16,4.63 14.73,8.77 14.73,8.77z"/>
  <path class="fil2" d="M297.94 665.78c-0.4,4.86 -1.71,9.63 -3.83,14.01 -1.08,2.22 -2.38,4.35 -3.86,6.33 -4.72,6.33 -11.22,11.06 -17.91,15.24 -2.31,1.43 -4.63,2.8 -7.01,4.11l-0.12 -0.03 0.04 0.09c-5.02,2.78 -10.19,5.28 -15.48,7.52 -8.77,3.7 -17.88,6.64 -27.16,8.81 -25.8,6.03 -53.02,6.03 -78.71,-0.47 0.02,-0.16 0.02,-0.32 0,-0.47 0.07,-4.77 -0.12,-9.54 -0.61,-14.31 -0.04,-0.45 -0.07,-0.91 -0.12,-1.36l0.75 -0.11c5.31,0.77 10.66,-0.21 15.87,-1.61 1.15,-0.3 2.31,-0.63 3.44,-0.96 12.04,-3.48 23.98,-7.58 35.14,-13.19 2.5,-1.24 4.94,-2.57 7.36,-3.97 11.97,-6.99 22.68,-15.99 32.49,-25.8 3.58,-3.58 7.1,-7.3 11.31,-10.13 4.16,-2.83 9.16,-4.72 14.16,-4.2 0,0 3.43,-4.14 -14.73,-8.77 7.71,-3.18 16.27,-4.6 24.47,-3.06 8.42,1.59 16.38,6.5 20.71,13.89 3.23,5.5 4.33,12.09 3.83,18.45z"/>
  <path class="fil6" d="M96.87 722.27c0.14,0.21 1.63,2.05 1.88,2.14l-1.63 -0.49c-3.29,-1.1 -6.47,-3.21 -7.51,-6.48 -0.91,-2.9 0.03,-6.03 1.22,-8.82 1.96,-4.51 4.82,-8.91 9.24,-11.04 2.81,-1.34 5.99,-1.66 9.14,-1.47 0.56,0.05 1.1,0.09 1.66,0.16 0.35,0.04 0.7,0.09 1.03,0.16 -1.07,0.14 -2.13,0.54 -3.11,1 -3.29,1.52 -6.15,3.84 -8.55,6.57 -2.2,2.5 -4.04,5.42 -4.82,8.67 -0.79,3.25 -0.42,6.85 1.45,9.63z"/>
  <path class="fil19" d="M98.75 724.4c-0.24,-0.09 -1.74,-1.93 -1.88,-2.14 -1.87,-2.78 -2.24,-6.38 -1.45,-9.63 0.79,-3.25 2.62,-6.17 4.82,-8.67 2.39,-2.73 5.26,-5.05 8.55,-6.57 0.98,-0.46 2.04,-0.86 3.11,-1 0.44,0.05 0.87,0.12 1.31,0.21 4.09,3.84 5.94,9.84 5.09,15.4 -0.84,5.28 -3.98,10.03 -8.28,13.18 -4.18,0.28 -8.32,0.14 -12.34,-1.08 -0.19,-0.05 -0.37,-0.12 -0.56,-0.19l1.63 0.49z"/>
  <path class="fil2" d="M143.27 706.59l-0.02 0c-5.52,-0.28 -10.61,-2.92 -15.64,-5.19 -4.63,-2.06 -9.42,-3.9 -14.4,-4.79l-0.3 -0.28c-0.33,0 -0.66,0.02 -1.01,0.07 -0.33,-0.07 -0.68,-0.12 -1.03,-0.16 -0.56,-0.07 -1.1,-0.1 -1.66,-0.16l0.04 -0.44c-5.51,-0.37 -10.49,-3.62 -14.49,-7.43 -8.46,-8.04 -14.1,-20.06 -11.43,-31.4 1.52,-6.42 5.66,-12.16 11.25,-15.63 5.31,-3.3 11.92,-4.49 18.04,-3.28l0.96 4.49c1.29,4.56 9.09,5.49 9.09,5.49l2.57 0.45 -0.12 0.7c0.18,0.3 0.33,0.61 0.51,0.91 3.09,5.63 6.17,11.32 8.02,17.48 1.61,5.28 2.31,10.84 4.34,15.97 3.69,9.4 11.95,16.9 21.67,19.66l0.12 0.46c-5.21,1.4 -10.55,2.38 -15.87,1.61l-0.75 0.11c0.05,0.45 0.09,0.91 0.12,1.36z"/>
  <path class="fil6" d="M279.53 714.77c0.53,3.35 -1.87,6.47 -4.52,8.55 -4.89,3.79 -10.99,5.56 -17.21,6.13l-0.02 -0.19c4.18,-0.28 8.16,-2.74 10.26,-6.36 2.27,-3.91 2.24,-9.07 -0.07,-12.97 -0.87,-1.48 -2.06,-2.81 -2.73,-4.41l0.09 -0.05c2.25,0.54 4.46,1.24 6.61,2.1 3.41,1.34 7.04,3.58 7.6,7.2z"/>
  <path class="fil19" d="M257.77 729.26l0.02 0.19c-2.13,0.19 -4.28,0.26 -6.41,0.21 -1.92,-0.04 -3.83,-0.16 -5.73,-0.35 -0.21,-0.4 -0.38,-0.84 -0.52,-1.26 -1.68,-5.31 0.24,-11.59 4.63,-15.01 5.29,-2.24 10.47,-4.74 15.48,-7.52 0.66,1.59 1.85,2.92 2.73,4.41 2.31,3.9 2.34,9.05 0.07,12.97 -2.1,3.62 -6.08,6.08 -10.26,6.36z"/>
  <path class="fil20" d="M245.12 728.05c0.14,0.42 0.31,0.86 0.52,1.26 -7.86,-0.84 -15.6,-2.95 -22.77,-6.27l-0.28 -1.19c9.28,-2.17 18.39,-5.1 27.16,-8.81 -4.39,3.43 -6.31,9.7 -4.63,15.01z"/>
  <path class="fil21" d="M198.36 689.35c-11.17,5.61 -23.1,9.72 -35.14,13.19 -1.14,0.33 -2.29,0.66 -3.44,0.96l-0.12 -0.46c-9.72,-2.76 -17.98,-10.26 -21.67,-19.66 -2.03,-5.14 -2.73,-10.7 -4.34,-15.97 -1.85,-6.15 -4.93,-11.85 -8.02,-17.48l0.37 -0.21c4.61,0.19 8.86,2.53 12.79,4.96 12.86,7.88 25.08,17.21 38.1,24.75 6.87,3.97 13.95,7.43 21.48,9.91z"/>
  <path class="fil20" d="M143.27 706.59c0.49,4.77 0.68,9.54 0.61,14.31 -6.36,2.34 -13.39,2.17 -20.18,2.8 -4.55,0.42 -9.12,1.21 -13.68,1.49 4.3,-3.15 7.44,-7.9 8.28,-13.18 0.86,-5.56 -1,-11.55 -5.09,-15.4 4.98,0.89 9.77,2.73 14.4,4.79 5.03,2.27 10.12,4.91 15.64,5.19l0.02 0z"/>
  <path class="fil19" d="M127.03 705.33c-0.34,1.14 -0.84,2.25 -1.42,3.35 -1.09,-2.3 -2.49,-4.48 -4.19,-6.5 -0.73,-0.86 -1.96,0.38 -1.24,1.24 1.85,2.19 3.28,4.58 4.34,7.12 -1.99,3.1 -4.63,5.98 -6.87,8.46 -0.75,0.83 0.48,2.07 1.24,1.24 2.09,-2.32 4.43,-4.91 6.37,-7.69 0.85,2.62 1.31,5.38 1.34,8.25 0.01,1.12 1.76,1.13 1.75,0 -0.03,-3.54 -0.68,-6.93 -1.89,-10.1 0.95,-1.58 1.76,-3.21 2.25,-4.9 0.32,-1.08 -1.37,-1.54 -1.68,-0.46z"/>
  <path class="fil19" d="M141.81 722.9c-3,-1.88 -5.17,-6.13 -6.95,-9.33 3.14,0.58 5.87,2.21 7.46,5.13 0.86,1.57 2.82,6.29 -0.51,4.21zm-4.46 -17.68c0.54,-1.15 1.16,-2.28 1.86,-3.35 1.1,-1.67 1.41,-2.93 3.37,-1.76 2,1.18 0.9,1.97 -0.25,3.64 -0.74,1.07 -1.61,2.03 -2.54,2.95 -1.34,1.32 -2.81,2.5 -4.31,3.66 0.49,-1.75 1.09,-3.46 1.87,-5.13zm-1.25 6.85c4.35,-3.38 13.83,-11.43 8.72,-15.13 -5.52,-3.99 -10.39,10.51 -11.51,14.86 -1.71,1.37 -2.04,4.01 -2.26,6.07 -0.29,2.74 0.26,5.23 2.01,7.37 0.71,0.87 1.94,-0.37 1.24,-1.24 -1.42,-1.74 -1.72,-3.83 -1.48,-6.01 0.1,-0.87 0.22,-2.31 0.62,-3.42 2.08,3.58 8.74,14.56 11.69,10.17 1.35,-2 -0.91,-6.53 -2.03,-8.11 -1.76,-2.46 -4.21,-3.87 -6.99,-4.56z"/>
  <path class="fil19" d="M239.87 725.69c-0.99,-2.5 -1.68,-5.06 -2.1,-7.71 -0.17,-1.11 -1.86,-0.64 -1.68,0.47 0.42,2.65 1.11,5.21 2.1,7.71 0.41,1.03 2.1,0.58 1.68,-0.46z"/>
  <path class="fil18" d="M202.89 685c-8.94,5.4 -19.16,8.37 -28.96,11.8 -9.57,3.34 -19.19,7.26 -29.43,7.8 -1.12,0.06 -1.13,1.81 0,1.75 10.4,-0.55 20.16,-4.47 29.89,-7.87 9.95,-3.48 20.31,-6.49 29.38,-11.97 0.96,-0.58 0.08,-2.09 -0.88,-1.51z"/>
  <path class="fil19" d="M102.25 578.46l-7.55 -38.64 0.93 -0.79c2.32,2.73 4.28,5.77 5.8,9.02 4.07,8.53 5.29,18.43 3.23,27.66 -0.12,0.58 -0.26,1.17 -0.42,1.75l0.09 0.16c-0.44,0.24 -0.86,0.49 -1.28,0.75l-0.8 0.09z"/>
  <path class="fil7" d="M239.42 544.26c10.21,11.24 16.34,26.21 16.3,41.38 -0.02,9.49 -2.52,18.96 -7.11,27.24 -0.61,1.08 -1.24,2.13 -1.94,3.18 -2.39,3.72 -5.24,7.15 -8.53,10.16 -9.17,8.39 -21.18,13.28 -33.47,15.17 -9.54,1.49 -19.26,1.22 -28.85,-0.04l1.35 -22.05c9.94,0.47 20.03,-1.68 28.78,-6.43 3.27,-1.78 6.43,-3.97 8.44,-7.09 1.96,-3.04 2.66,-6.73 2.97,-10.35 0.66,-7.55 -0.19,-15.24 -2.5,-22.47 -1.99,-6.29 -5.1,-12.31 -6.08,-18.84 -0.61,-4.18 -0.1,-8.75 1.8,-12.42 1.08,-2.1 2.62,-3.9 4.69,-5.14 3.93,-2.38 9.02,-2.25 13.26,-0.52 4.26,1.71 7.81,4.84 10.89,8.23z"/>
  <path class="fil22" d="M248.65 636.62l0.28 -0.12c-2.83,2.41 -6.19,4.11 -9.61,5.57 -9.3,4.04 -19.15,6.64 -29.05,8.84 -11.55,2.59 -23.52,4.67 -35.2,2.94l0.75 -12.5c9.59,1.26 19.31,1.52 28.85,0.04 12.29,-1.89 24.29,-6.78 33.47,-15.17 3.29,-3.01 6.14,-6.43 8.53,-10.16l0.49 0.32c1.35,6.59 1.83,13.35 1.42,20.04l0.07 0.19z"/>
  <path class="fil22" d="M179.99 572.96l0.17 -2.81 -5.87 0.63c-1.29,-0.46 -2.6,-0.87 -3.91,-1.24l0.05 -0.17c4.68,-1.24 9.09,-3.5 12.85,-6.53 -5.82,-1.5 -11.74,-2.36 -17.7,-2.62 5.68,-9.39 13.04,-17.77 21.58,-24.66l-0.1 -1.1c0.3,-0.04 0.61,-0.07 0.91,-0.09l1.21 0.14c-0.04,0.23 -0.07,0.45 -0.09,0.68 -0.32,2.64 -0.63,5.33 -0.16,7.95 0.47,2.6 1.87,5.19 4.19,6.47 2.95,1.61 6.66,0.8 9.58,-0.84 3.06,-1.71 5.61,-4.32 7.29,-7.38l0.61 0.31c-1.9,3.67 -2.41,8.25 -1.8,12.42 0.98,6.54 4.09,12.55 6.08,18.84 2.31,7.23 3.16,14.92 2.5,22.47 -0.31,3.62 -1.01,7.3 -2.97,10.35 -2.01,3.13 -5.17,5.31 -8.44,7.09 -8.75,4.75 -18.84,6.9 -28.78,6.43l2.81 -46.34z"/>
  <path class="fil7" d="M187.05 534.44l0.1 1.1c-8.54,6.88 -15.9,15.27 -21.58,24.66 -20.57,-0.96 -41.51,5 -59.73,14.96 0.89,-1.68 1.66,-3.41 2.32,-5.19l2.39 0.18c11.24,-9.07 23.14,-17.41 36.07,-23.82 12.64,-6.27 26.34,-10.7 40.42,-11.88z"/>
  <path class="fil6" d="M152.64 612.29c-0.33,0.61 -0.63,1.24 -0.93,1.85 -0.17,-5.14 -2.24,-10.17 -5.73,-13.95 -0.21,-0.21 -0.44,-0.44 -0.72,-0.52 -0.87,-0.23 -1.42,0.91 -1.56,1.78 -0.4,2.64 -0.35,5.33 0.19,7.93 -4.12,-4.54 -9.31,-8.09 -15.03,-10.31 -3.18,-1.24 -7.08,-1.96 -9.75,0.14 -1.94,1.54 -2.67,4.18 -2.67,6.66 0,1.14 0.12,2.25 0.37,3.34l-2.85 0.65 -7.3 -31.88 67.63 -7.22 5.87 -0.63 -2.99 49.16c-8.55,-0.38 -16.99,-2.71 -24.41,-6.94l-0.12 -0.07z"/>
  <path class="fil7" d="M151.71 614.15c0.3,-0.61 0.59,-1.24 0.93,-1.85l0.12 0.07c7.43,4.23 15.87,6.56 24.41,6.94l-1.35 22.05c-2.76,-0.35 -5.5,-0.79 -8.23,-1.29 -7.06,-1.29 -14.26,-3.13 -19.97,-7.46l-0.3 -0.17c0.05,-1.15 0.14,-2.29 0.26,-3.42 0.56,-5.12 1.96,-10.16 4.12,-14.86z"/>
  <path class="fil6" d="M175.08 653.85l-0.21 3.32 -49.63 -8.83 -2.57 -0.45 -8.7 -38.03 2.85 -0.65c0.7,3.28 2.39,6.38 4.65,8.89 3.01,3.36 6.96,5.77 11.12,7.5 4.77,1.97 9.87,3.13 15.01,3.39 -0.12,1.13 -0.21,2.27 -0.26,3.42l0.3 0.17c5.71,4.34 12.91,6.17 19.97,7.46 2.73,0.51 5.47,0.94 8.23,1.29l-0.75 12.5z"/>
  <path class="fil19" d="M174.29 570.77l-67.63 7.22 -3.6 0.38c0.42,-0.26 0.84,-0.51 1.28,-0.75 19.7,-11.5 44.16,-14.35 66.04,-8.09 1.31,0.37 2.62,0.79 3.91,1.24z"/>
  <path class="fil4" d="M165.57 560.2c5.96,0.26 11.88,1.12 17.7,2.62 -3.76,3.04 -8.16,5.29 -12.85,6.53l-0.05 0.17c-21.88,-6.26 -46.35,-3.41 -66.04,8.09l-0.09 -0.16c0.16,-0.58 0.3,-1.17 0.42,-1.75l0.12 0.02c0.35,-0.19 0.7,-0.39 1.05,-0.58 18.23,-9.96 39.16,-15.92 59.73,-14.96z"/>
  <path class="fil23" d="M143.9 609.39c-0.54,-2.6 -0.59,-5.29 -0.19,-7.93 0.14,-0.87 0.68,-2.01 1.56,-1.78 0.28,0.09 0.51,0.31 0.72,0.52 3.5,3.78 5.56,8.81 5.73,13.95 -2.17,4.7 -3.56,9.73 -4.12,14.86 -5.14,-0.26 -10.24,-1.42 -15.01,-3.39 -4.16,-1.73 -8.11,-4.14 -11.12,-7.5 -2.25,-2.52 -3.95,-5.61 -4.65,-8.89 -0.24,-1.09 -0.37,-2.2 -0.37,-3.34 0,-2.48 0.74,-5.12 2.67,-6.66 2.68,-2.1 6.57,-1.38 9.75,-0.14 5.71,2.22 10.9,5.77 15.03,10.31z"/>
  <path class="fil24" d="M112.62 637.91l-6.99 -32.68 -6.31 -29.57 -0.02 0 -7.25 -33.95 2.66 -1.89 7.55 38.64 0.8 -0.09 3.6 -0.38 7.3 31.88 8.7 38.03c0,0 -7.79,-0.93 -9.09,-5.49l-0.96 -4.49z"/>
  <path class="fil4" d="M109.8 541.46c2.38,9.37 1.75,19.47 -1.64,28.5 -0.66,1.78 -1.43,3.51 -2.32,5.19 -0.35,0.19 -0.7,0.38 -1.05,0.58l-0.12 -0.02c2.06,-9.23 0.84,-19.14 -3.23,-27.66l0.14 -0.07c0.96,-4.11 2.13,-8.16 3.53,-12.15 0.16,-0.45 0.4,-0.98 0.87,-1.05 0.42,-0.07 0.8,0.26 1.08,0.59 1.45,1.71 2.18,3.91 2.74,6.08z"/>
  <path class="fil23" d="M99.32 575.66l6.31 29.57c-2.87,-0.37 -5.16,-3.06 -6.54,-5.73 -3.7,-7.2 -4.11,-16.04 -1.05,-23.56l1.26 -0.28 0.02 0z"/>
  <path class="fil25" d="M251.92 487.15c-0.44,8.39 -2.08,17.3 -8.04,23.15 -0.51,0.51 -1.05,0.98 -1.61,1.42 -2.55,2.06 -5.54,3.57 -8.55,4.93 -7.36,3.32 -15.05,5.87 -22.91,7.64 -5.91,1.36 -11.9,2.25 -17.95,2.71 1.91,-0.51 3.76,-1.57 5.45,-2.66 15.48,-10.03 28.43,-24.83 33.5,-42.59 1.89,-6.59 2.65,-13.49 2.29,-20.34 1.52,0.33 3.08,0.54 4.61,0.52 1.38,-3.83 3.63,-7.41 6.97,-9.68 3.74,-2.57 8.98,-3.2 12.81,-0.79 2.12,1.34 3.65,3.5 4.56,5.82 2.11,5.38 1.05,11.5 -0.84,16.97 -1.85,5.38 -4.98,10.92 -10.31,12.9z"/>
  <path class="fil23" d="M231.82 481.75c-5.07,17.75 -18.02,32.56 -33.5,42.59 -1.69,1.08 -3.55,2.15 -5.45,2.66 -1.26,0.1 -2.53,0.18 -3.81,0.23 -8.65,0.38 -17.34,-0.14 -25.86,-1.63 -9.54,-1.64 -19.31,-4.68 -26.16,-11.52 -8.41,-8.35 -10.99,-20.8 -12.72,-32.52 -1.08,-7.32 -1.97,-14.73 -1.85,-22.11 0.02,-1.61 0.09,-3.22 0.24,-4.82l0.09 0c5.52,-21.08 18.6,-40.11 36.24,-52.88 1.43,4.2 4.09,7.88 6.83,11.36 15.92,20.04 37,35.95 60.62,45.75 2.46,1.03 5.02,1.99 7.62,2.55 0.37,6.85 -0.4,13.75 -2.29,20.34z"/>
  <path class="fil26" d="M211.11 525.61c1.57,4.18 1.61,8.93 0.07,13.12 -0.33,0.91 -0.73,1.78 -1.2,2.64 -1.68,3.06 -4.23,5.66 -7.29,7.38 -2.92,1.64 -6.62,2.45 -9.58,0.84 -2.32,-1.28 -3.72,-3.86 -4.19,-6.47 -0.47,-2.62 -0.16,-5.31 0.16,-7.95 0.02,-0.23 0.05,-0.46 0.09,-0.68 0.24,-2.24 0.52,-4.47 0.79,-6.73l0.02 -0.44c0.98,0.09 1.94,-0.05 2.9,-0.33 6.05,-0.45 12.04,-1.35 17.95,-2.71l0.3 1.33z"/>
  <path class="fil27" d="M192.87 526.99c-0.96,0.28 -1.92,0.42 -2.9,0.33 -0.31,0 -0.61,-0.03 -0.91,-0.1 1.28,-0.05 2.55,-0.12 3.81,-0.23z"/>
  <path class="fil28" d="M164.35 483.59c0.37,-3.2 -0.91,-6.4 -1.17,-9.65 -0.07,-0.82 -0.07,-1.66 0.23,-2.43 0.28,-0.77 0.91,-1.47 1.71,-1.64 0.66,-0.14 1.36,0.09 1.98,0.39 2.22,1.14 3.6,3.41 4.66,5.65 1.26,2.64 2.25,5.43 2.48,8.34 0.23,2.92 -0.37,5.96 -2.06,8.34 -1.33,1.87 -3.25,3.23 -5.26,4.35 -1.47,0.8 -3.04,1.5 -4.7,1.78 -2.13,0.35 -4.31,-0.02 -6.41,-0.54 -1.85,-0.45 -3.7,-1.05 -5.19,-2.24 -1.45,-1.17 -2.45,-3.34 -1.38,-4.86 0.31,-0.44 0.77,-0.77 1.24,-1.05 2.29,-1.4 4.98,-1.92 7.55,-2.69 2.39,-0.72 4.84,-1.8 6.33,-3.74z"/>
  <path class="fil26" d="M143.94 488.07c-1.61,-4.95 -7.12,-8.13 -12.2,-7.13 -4.8,0.94 -9.04,5.44 -9.16,10.39 -0.33,2.14 -0.03,4.38 1.09,6.52 2.58,4.94 8.78,7.23 13.87,4.78 5.19,-2.49 8.21,-9.04 6.41,-14.57z"/>
  <path class="fil26" d="M216.03 483.29c-1.61,-4.95 -7.12,-8.13 -12.2,-7.13 -4.8,0.94 -9.04,5.44 -9.16,10.4 -0.33,2.13 -0.03,4.38 1.09,6.52 2.58,4.94 8.78,7.23 13.87,4.78 5.19,-2.49 8.21,-9.04 6.41,-14.57z"/>
  <path class="fil28" d="M257.47 466.54c-2.36,-5.07 -5.86,-0.78 -6.67,2.83 -0.25,1.09 1.44,1.56 1.68,0.46 0.27,-0.83 0.54,-1.66 0.81,-2.49 0.99,0.3 1.99,0.6 2.98,0.9 0.74,0.94 0.36,3.82 0.11,4.88 -0.25,1.08 -0.97,3.11 -1.97,3.73 -1.7,0.18 -3.41,0.36 -5.11,0.53 -1.31,-0.69 -2.17,-1.7 -2.58,-3.02 -1.98,-4.39 -0.35,-13.71 4.08,-16.39 0.96,-0.58 0.08,-2.09 -0.88,-1.51 -4.57,2.76 -6.42,10.94 -5.63,15.92 0.66,4.19 4.44,8.67 9.13,7.08 4.9,-1.66 5.98,-8.8 4.06,-12.94z"/>
  <path class="fil29" d="M170.71 506.04c0.01,1.53 -0.37,9.8 -2.98,9.02 -1.19,-0.35 -2.52,-2.73 -3.15,-3.71 -0.74,-1.15 -1.35,-2.36 -1.89,-3.62 -0.44,-1.03 -1.95,-0.14 -1.51,0.88 0.88,2.06 2.01,3.97 3.42,5.72 0.94,1.17 2.32,2.92 4.03,2.69 1.7,-0.23 2.25,-2.09 2.71,-3.49 0.8,-2.42 1.13,-4.95 1.11,-7.49 -0.01,-1.12 -1.76,-1.13 -1.75,0z"/>
  <path class="fil29" d="M197.19 457.42c-1.46,0.45 -2.92,0.68 -4.45,0.71 -0.25,0.01 -0.43,0.1 -0.57,0.24 -0.41,0.05 -0.78,0.33 -0.77,0.86 0.06,2.85 0.42,18.44 -6.68,13.74 -3.8,-2.51 -3.87,-9.23 -3.91,-13.21 -0.01,-1.12 -1.76,-1.06 -1.75,0.06 0.04,4.92 0.96,15.53 7.76,16.12 6.69,0.58 6.45,-11.42 6.34,-16.11 1.54,-0.06 3.06,-0.3 4.53,-0.75 1.07,-0.33 0.57,-2 -0.51,-1.67z"/>
  <path class="fil29" d="M148.87 462.06c0.07,-0.2 0.05,-0.43 -0.12,-0.67l-0.07 -0.09c-0.59,-0.81 -1.78,-0.33 -1.6,0.68 0.46,2.56 0.93,5.15 0.95,7.76 0.01,1.1 -0.07,2.17 -0.26,3.25 -0.08,0.71 -0.24,1.4 -0.47,2.07 -0.07,1.52 -0.82,2.09 -2.24,1.7 -5.53,0.32 -6.89,-9.05 -7.48,-13.46 0.27,-0.5 -0.13,-1.31 -0.85,-1.33 -0.2,-0.04 -0.4,-0.03 -0.57,0.05 -1.55,0.22 -3.1,0.39 -4.67,0.5 -1.11,0.08 -1.12,1.83 0,1.75 1.47,-0.1 2.94,-0.27 4.4,-0.47 0.49,3.59 1.09,7.25 2.95,10.42 1.24,2.11 3.78,5.3 6.58,5.1 2.83,-0.2 3.7,-3.71 4.09,-5.97 0.64,-3.75 0.01,-7.57 -0.65,-11.28z"/>
  <path class="fil30" d="M159.03 401.74c-17.65,12.78 -30.72,31.81 -36.24,52.88l-0.09 0c-0.16,1.61 -0.23,3.22 -0.24,4.82 -2.01,-10.41 -3.97,-21.06 -3.55,-31.65 0.32,-8.13 1.45,-16.5 5.65,-23.44 5.52,-9.12 15.55,-14.52 25.55,-18.21 19.75,-7.27 41.14,-9.52 62.13,-8.18 9.89,0.63 19.96,2.11 28.75,6.68 15.73,8.16 25.23,25.11 29.34,42.34 4.09,17.23 3.67,35.16 4.65,52.86 0.98,17.69 3.6,35.9 12.97,50.94 5.1,8.2 11.99,15.1 17.79,22.81 8.09,10.73 14.19,24.33 11.06,37.4 -2.99,12.48 -14.17,21.93 -26.56,25.31 -2.97,0.81 -5.99,1.31 -9.04,1.54 1.08,-0.93 2.08,-2.01 2.97,-3.11 9.67,-12 11.64,-29.71 4.82,-43.55 -3.81,-7.74 -9.98,-14.09 -16.43,-19.84 -6.45,-5.73 -13.32,-11.08 -19.05,-17.53 -5.59,-6.26 -10.14,-13.81 -11.24,-22.11 0.56,-0.44 1.1,-0.91 1.61,-1.42 5.96,-5.85 7.6,-14.77 8.04,-23.15 5.33,-1.97 8.46,-7.52 10.31,-12.9 1.89,-5.47 2.95,-11.59 0.84,-16.97 -0.91,-2.32 -2.45,-4.47 -4.56,-5.82 -3.83,-2.41 -9.07,-1.78 -12.81,0.79 -3.34,2.27 -5.59,5.85 -6.97,9.68 -1.54,0.02 -3.09,-0.19 -4.61,-0.52 -2.6,-0.56 -5.16,-1.52 -7.62,-2.55 -23.63,-9.8 -44.71,-25.71 -60.63,-45.75 -2.74,-3.48 -5.4,-7.16 -6.83,-11.36z"/>
  <path class="fil20" d="M288.98 571.19c6.82,13.84 4.84,31.54 -4.82,43.55 -0.89,1.1 -1.89,2.19 -2.97,3.11 -9.66,0.77 -19.57,-1.12 -28.78,-4.3l-3.79 -0.66c4.6,-8.28 7.1,-17.76 7.11,-27.24 0.04,-15.17 -6.1,-30.15 -16.3,-41.38 -3.08,-3.39 -6.62,-6.52 -10.89,-8.23 -4.25,-1.73 -9.33,-1.85 -13.26,0.52 -2.06,1.24 -3.6,3.04 -4.69,5.14l-0.61 -0.31c0.47,-0.86 0.87,-1.73 1.2,-2.64 1.54,-4.19 1.5,-8.95 -0.07,-13.12l-0.3 -1.33c7.86,-1.77 15.55,-4.32 22.91,-7.64 3.01,-1.36 5.99,-2.87 8.55,-4.93 1.1,8.3 5.64,15.85 11.24,22.11 5.73,6.45 12.6,11.8 19.05,17.53 6.45,5.75 12.62,12.09 16.43,19.84z"/>
  <path class="fil20" d="M244.53 451.85c-8.69,-2.42 -16.38,-6.94 -23.91,-11.78 -7.93,-5.1 -15.96,-10.19 -23.16,-16.3 -13.37,-11.36 -22.78,-26.34 -30.27,-42.03 -0.48,-1.01 -1.99,-0.13 -1.51,0.88 7.79,16.32 17.68,31.81 31.77,43.41 7,5.76 14.67,10.66 22.29,15.55 7.66,4.92 15.5,9.5 24.32,11.96 1.09,0.3 1.55,-1.38 0.46,-1.68z"/>
  <path class="fil20" d="M254.59 448.64c-6.45,-3.54 -11.73,-9.82 -16.65,-15.2 -5.17,-5.64 -10.02,-11.57 -14.53,-17.75 -8.67,-11.9 -16,-24.7 -22,-38.14 -0.46,-1.03 -1.96,-0.14 -1.51,0.88 6.4,14.35 14.34,27.97 23.78,40.54 4.38,5.84 9.06,11.45 14.03,16.8 4.78,5.14 9.76,10.96 15.99,14.38 0.99,0.54 1.87,-0.97 0.88,-1.51z"/>
  <path class="fil20" d="M271.81 439.84c-23.48,-14.63 -41.63,-36.72 -51.38,-62.62 -0.39,-1.04 -2.08,-0.59 -1.68,0.46 9.92,26.34 28.29,48.78 52.18,63.66 0.96,0.6 1.84,-0.91 0.88,-1.51z"/>
  <path class="fil20" d="M153.75 384.28c-9.52,8.91 -15.94,20.63 -22.08,31.98 -6.1,11.29 -11.14,23.14 -12.15,36.06 -0.09,1.12 1.66,1.12 1.75,0 1.03,-13.13 6.4,-25.14 12.66,-36.55 5.9,-10.76 12.01,-21.79 21.06,-30.26 0.82,-0.77 -0.42,-2 -1.24,-1.24z"/>
  <path class="fil20" d="M140.39 390.24c-10.12,10.39 -17.82,22.63 -22.83,36.23 -0.39,1.06 1.3,1.51 1.69,0.46 4.9,-13.32 12.47,-25.3 22.38,-35.46 0.79,-0.81 -0.45,-2.04 -1.24,-1.24z"/>
  <path class="fil30" d="M233.66 460.07c-17.33,-0.85 -34.2,-6.93 -47.79,-17.8 -6.14,-4.91 -11.57,-10.72 -16.07,-17.16 -4.7,-6.74 -10.21,-15.49 -10.7,-23.85 -0.07,-1.12 -1.82,-1.12 -1.75,0 0.48,8.09 5.38,16.38 9.76,23 4.81,7.27 10.73,13.8 17.53,19.25 13.96,11.18 31.2,17.44 49.02,18.31 1.12,0.06 1.12,-1.69 0,-1.75z"/>
  <path class="fil30" d="M287.2 534.89c-8.9,-14 -5.93,-30.73 -4.82,-46.32 1.07,-15.08 0.65,-30.36 -2.27,-45.22 -5.03,-25.62 -18.66,-54.27 -45.99,-61.58 -1.09,-0.29 -1.55,1.39 -0.46,1.68 29.68,7.95 42.5,41.26 46.15,68.82 1.96,14.82 1.43,29.64 0.14,44.49 -1.16,13.34 -1.72,27.26 5.74,39.01 0.6,0.95 2.11,0.07 1.51,-0.88z"/>
  <path class="fil30" d="M322.68 584.72c-1.04,-10.4 -6.56,-19.59 -13.17,-27.44 -7.53,-8.96 -19.38,-16.62 -21.78,-28.75 -0.22,-1.1 -1.9,-0.64 -1.69,0.47 1.73,8.71 8.13,14.83 14.17,20.86 7.95,7.94 15.76,16.76 19.22,27.67 2.96,9.34 2.33,20.57 -4.06,28.39 -8.05,9.86 -21.7,10.56 -33.43,10.12 -1.12,-0.04 -1.12,1.71 0,1.75 11.08,0.41 23.26,-0.19 32.04,-7.88 7.09,-6.22 9.62,-16.06 8.71,-25.19z"/>
  <path class="fil30" d="M163.65 376.8c-9.28,-8.16 -25.51,-7.94 -36.73,-5.03 -1.09,0.28 -0.63,1.97 0.46,1.68 10.55,-2.74 26.27,-3.12 35.03,4.58 0.84,0.74 2.08,-0.49 1.24,-1.24z"/>
  <path class="fil30" d="M168.36 374.81c-1.5,-4.87 -4.94,-8.53 -8.45,-12.07 -0.79,-0.8 -2.03,0.44 -1.24,1.24 3.29,3.31 6.59,6.73 8,11.29 0.33,1.07 2.02,0.61 1.68,-0.46z"/>
  <path class="fil30" d="M156.11 379.59c-2.39,-2.41 -5.73,-2.24 -8.93,-2.07 -4.71,0.24 -9.3,1.21 -13.76,2.7 -1.06,0.35 -0.61,2.04 0.46,1.68 3.34,-1.11 6.73,-1.97 10.24,-2.38 3.18,-0.37 8.27,-1.22 10.76,1.3 0.79,0.8 2.03,-0.44 1.24,-1.24z"/>
  <path class="fil31" d="M366.1 334.38c0,3.7 -22.86,6.7 -51.06,6.7 -28.2,0 -51.06,-3 -51.06,-6.7 0,-3.7 22.86,-6.7 51.06,-6.7 28.2,0 51.06,3 51.06,6.7z"/>
  <path class="fil32" d="M317.66 233.59c5.05,8.91 5.64,20 2.6,29.79 -3.09,9.91 -9.62,18.52 -17.6,25.15 -6.21,5.15 -13.4,9.23 -21.21,11.26 -7.7,1.99 -16.03,1.92 -23.51,-0.83 -3.83,-3.07 -7.12,-6.65 -9.37,-11.02 -3.88,-7.63 -3.9,-16.74 -1.94,-25.08 3.04,-13.01 10.92,-25.03 22.24,-32.12 5.75,-3.59 12.39,-5.82 19.14,-6.47 6.53,-0.62 13.18,0.25 19.24,2.82 3.16,1.32 6.28,3.26 8.05,6.09 0.34,0.51 0.61,1.03 0.83,1.59l0.39 0.07c0.47,-1.2 1.06,-2.35 1.74,-3.43 -0.2,0.73 -0.41,1.45 -0.59,2.18z"/>
  <path class="fil33" d="M332.99 181.2c-0.52,1.67 -1.06,3.33 -1.57,5 -4.69,14.99 -9.1,30.06 -13.16,45.21 -0.68,1.08 -1.27,2.23 -1.74,3.43l-0.39 -0.07c-0.22,-0.56 -0.49,-1.08 -0.83,-1.59l0.46 -0.29c-2.18,-7.44 -4.1,-14.97 -5.76,-22.55 -0.2,-0.96 -0.42,-1.94 -0.61,-2.9l0 -0.02c-1.3,-6.26 -2.28,-12.59 -2.14,-18.97 0.02,-1.13 0.1,-2.31 0.73,-3.24l0.12 -0.13 0.05 0.03c-0.13,1.25 0.57,2.46 1.52,3.31 1.62,1.45 3.92,1.99 6.09,1.85 2.18,-0.13 4.27,-0.89 6.26,-1.77 2.28,-1 4.49,-2.16 6.61,-3.48 1.84,-1.15 3.71,-2.55 4.52,-4.5 -0.03,0.24 -0.1,0.46 -0.17,0.67z"/>
  <path class="fil34" d="M325.06 332.98c-1.79,-1.48 -3.32,-3.27 -4.47,-5.3l-0.03 0.02c-0.52,2.24 -1.76,4.29 -3.43,5.84 -1.2,1.13 -2.6,2.01 -4.15,2.53 -3.73,1.28 -8.08,0.52 -11.14,-1.94 -2.82,-2.28 -4.42,-5.69 -6.48,-8.67 -0.73,-1.05 -1.5,-2.03 -2.33,-2.95l1.01 -1.01c11.11,3.42 23.43,0.59 33.47,-5.27 7.93,-4.64 14.72,-11.04 20.61,-18.09 9.13,-10.94 16.39,-23.97 17.77,-38.14 1.38,-14.18 -4,-29.52 -15.76,-37.52 -4.39,-2.99 -9.79,-4.91 -15.02,-3.97l-0.02 -0.05c0.25,-0.1 0.52,-0.22 0.78,-0.32 4.02,-1.62 8.22,-2.89 12.52,-3.09 7.68,-0.37 15.32,2.77 21.1,7.85 5.77,5.1 9.75,12 12.07,19.34 5.69,18.08 0.86,39.09 -12.17,52.86 -4.22,4.46 -9.18,8.17 -13.57,12.46 -4.39,4.29 -8.32,9.37 -9.7,15.36 -1.06,4.51 -0.91,9.91 -4.52,12.81 -2.62,2.11 -6.41,2.04 -9.64,1.06 -2.51,-0.78 -4.86,-2.09 -6.89,-3.8z"/>
  <path class="fil35" d="M350.12 222.47c11.76,8 17.15,23.34 15.76,37.52 -1.39,14.18 -8.64,27.21 -17.77,38.14 -5.89,7.05 -12.67,13.45 -20.61,18.09 -10.04,5.86 -22.36,8.69 -33.47,5.27l-1.01 1.01c-5.81,-6.58 -13.99,-10.84 -21.77,-15.07 -4.59,-2.5 -9.25,-5.2 -13.31,-8.47 7.48,2.75 15.81,2.82 23.51,0.83 7.81,-2.03 15,-6.11 21.21,-11.26 7.98,-6.63 14.51,-15.24 17.6,-25.15 3.04,-9.79 2.45,-20.88 -2.6,-29.79 0.19,-0.73 0.39,-1.45 0.59,-2.18 3.71,-6.01 10.18,-10.18 16.83,-12.96l0.02 0.05c5.23,-0.95 10.63,0.98 15.02,3.97z"/>
  <path class="fil36" d="M333.11 179.82c0.08,0.22 0.08,0.46 0.05,0.68l0 0.03c-0.81,1.96 -2.68,3.36 -4.52,4.5 -2.12,1.32 -4.34,2.48 -6.61,3.48 -1.99,0.88 -4.08,1.64 -6.26,1.77 -2.18,0.13 -4.47,-0.4 -6.09,-1.85 -0.94,-0.84 -1.65,-2.06 -1.52,-3.31l-0.05 -0.03c0.56,-0.76 1.43,-1.25 2.28,-1.69 4.47,-2.26 9.28,-3.85 14.21,-4.71 2.4,-0.42 4.91,-0.66 7.22,0.13 0.54,0.17 1.11,0.47 1.3,1z"/>
  <path class="fil37" d="M325.06 332.98c-0.05,0.84 -0.12,1.7 -0.47,2.46 -0.35,0.78 -1.08,1.45 -1.94,1.5 -0.37,0.02 -0.74,-0.1 -1.1,-0.22 -1.76,-0.61 -3.31,-1.72 -4.42,-3.19 1.67,-1.55 2.9,-3.6 3.43,-5.84l0.03 -0.02c1.15,2.03 2.68,3.81 4.47,5.3z"/>
  <path class="fil38" d="M309.16 207.19l-0.37 0.37 -0.27 -0.13c-8.17,-3.9 -17.55,-4.91 -26.55,-3.78 -8.88,1.1 -17.42,4.22 -25.42,8.25 -0.47,-0.2 -0.93,-0.42 -1.4,-0.62 5.27,-7.22 12.19,-13.79 20.86,-15.95 6.14,-1.52 12.74,-0.64 18.58,1.79 5.49,2.28 10.35,5.87 14.57,10.07z"/>
  <path class="fil2" d="M308.52 207.43l-0.19 0.39c-2.52,5.74 -8.35,9.5 -14.45,11.06 -2.06,0.52 -4.15,0.83 -6.26,0.94 -4.57,0.25 -9.22,-0.35 -13.65,-1.47 -6.03,-1.52 -11.75,-3.95 -17.42,-6.45 8,-4.03 16.54,-7.15 25.42,-8.25 9,-1.13 18.38,-0.12 26.55,3.78z"/>
  <path class="fil26" d="M418.41 171.51l0.15 1.39c-0.27,0.08 -0.53,0.13 -0.79,0.19 -4.38,0.86 -8.85,-0.43 -13.09,-1.71 -2.12,-0.64 -4.28,-1.3 -6.05,-2.65 -0.36,-0.28 -0.73,-0.6 -0.94,-1.01 -0.24,-0.49 -0.26,-1.07 -0.28,-1.64l0 -0.13c-0.04,-1.91 -0.09,-3.79 -0.13,-5.71l0.04 -0.55c0.62,0.04 1.26,0.08 1.88,0.09 4.49,6.29 11.57,10.63 19.22,11.72z"/>
  <path class="fil26" d="M422.65 165.5c0.07,1.17 0,2.33 -0.3,3.48 -0.28,1.09 -0.79,2.14 -1.64,2.86 -0.62,0.53 -1.37,0.86 -2.16,1.07l-0.15 -1.39c-7.65,-1.09 -14.73,-5.43 -19.22,-11.72 7.36,0.32 14.74,0.13 22.09,-0.55 0.53,1.65 1.03,3.36 1.26,5.09l0.02 0c0.04,0.38 0.08,0.77 0.09,1.16z"/>
  <path class="fil25" d="M358.53 122.64l-6.42 2.37c-2.33,0.42 -4.73,0.45 -7.04,-0.07 -2.91,-0.68 -5.67,-2.31 -7.36,-4.77 -1.31,-1.93 -1.93,-4.26 -2.18,-6.59 -0.41,-3.31 -0.17,-6.69 0.66,-9.92 0.26,-1.09 0.64,-2.22 1.16,-3.25l0.15 -0.3c0.98,-1.8 2.38,-3.3 4.32,-3.83l0.09 -0.04c0.51,-0.26 1.05,-0.45 1.65,-0.55 2.39,-0.36 4.7,0.86 6.71,2.16 0.71,0.45 1.41,0.94 2.07,1.45 0.73,0.6 0.99,1.54 1.5,2.31 0.66,3.51 1.33,7.02 2.09,10.52 0.56,2.65 1.16,5.3 1.86,7.93 0.23,0.86 0.47,1.75 0.75,2.59z"/>
  <path class="fil23" d="M444.11 161.99c-4.88,0.83 -9.8,1.45 -14.73,1.82 -7.76,0 -15.34,-2.28 -22.28,-6.01 -6.92,-3.73 -13.2,-8.89 -18.36,-14.67 -8.19,-9.18 -13.96,-20.61 -15.93,-32.74 -0.49,-3.04 -0.78,-6.13 -0.78,-9.22 -0.03,-9.23 2.11,-18.5 6.48,-26.62l0 -0.13c11.63,0.44 23.26,0.57 34.84,0.37 19.76,-0.35 39.75,-1.77 58.53,-7.88 6.92,-2.24 13.67,-5.2 19.98,-8.86l0.68 1.22c-0.68,21.21 -3.26,42.4 -7.75,63.14 -2.08,9.54 -4.74,19.41 -11.41,26.56 -7.41,7.97 -18.55,11.19 -29.26,13.01z"/>
  <path class="fil26" d="M446.36 110.73c0.24,1.74 0.23,3.51 -0.02,5.24 -0.39,2.62 -2.11,9.69 -2.11,9.69 2.96,1.66 8.33,4.89 10.5,7.5 0.7,0.82 1.31,1.78 1.46,2.85 0.18,1.37 -0.48,2.78 -1.53,3.73 -1.03,0.92 -2.39,1.44 -3.77,1.66 -3.28,0.55 -6.66,-0.38 -9.57,-1.98 -2.91,-1.58 -5.41,-3.81 -7.86,-6.03l-1.32 -2.46c-0.89,-2.48 -0.53,-5.2 -0.05,-7.79 0.89,-4.83 2.18,-9.7 4.82,-13.84 0.7,-1.11 1.5,-2.17 2.58,-2.89 1.09,-0.71 2.47,-1.06 3.7,-0.65 0.99,0.34 1.77,1.12 2.27,2.02 0.5,0.91 0.75,1.95 0.9,2.97z"/>
  <path class="fil39" d="M363.5 126.7c0.47,-0.04 0.86,-0.32 1.2,-0.68 -0.3,0.52 -0.68,0.99 -1.15,1.39 -0.37,0.32 -0.79,0.56 -1.26,0.58 -0.81,0.02 -1.45,-0.66 -1.9,-1.31 -0.83,-1.24 -1.41,-2.61 -1.88,-4.04 -0.28,-0.84 -0.52,-1.73 -0.75,-2.59 -0.7,-2.63 -1.29,-5.28 -1.86,-7.93l2.37 7.08c0.83,2.25 1.71,4.53 3.23,6.37 0.51,0.62 1.2,1.24 1.99,1.13z"/>
  <path class="fil39" d="M369.35 101.21c-0.02,0.62 -0.06,1.22 -0.11,1.84 -0.36,4.62 -0.96,9.24 -1.88,13.79 0.66,-5.17 0.86,-10.39 0.81,-15.61l1.18 -0.02z"/>
  <path class="fil25" d="M429.38 163.81c-4.28,0.34 -8.56,0.52 -12.87,0.51 -7.38,0 -14.75,-0.47 -22.05,-1.46 -0.62,-0.08 -1.24,-0.17 -1.86,-0.26 -0.75,-0.09 -1.48,-0.21 -2.23,-0.32 -11.12,-1.78 -22.78,-5.13 -30.13,-13.66 -5.54,-6.46 -7.89,-15.12 -8.13,-23.61l6.42 -2.37c0.47,1.43 1.05,2.8 1.88,4.04 0.45,0.66 1.09,1.33 1.9,1.31 0.47,-0.02 0.88,-0.26 1.26,-0.58 0.47,-0.39 0.85,-0.86 1.15,-1.39l0.02 -0.02c1.22,-1.24 1.63,-3.06 1.95,-4.77 0.26,-1.46 0.49,-2.91 0.68,-4.39 0.92,-4.55 1.52,-9.17 1.88,-13.79 0.06,-0.62 0.09,-1.22 0.11,-1.84l-1.18 0.02c-0.09,-8.88 -1,-17.82 -1.92,-26.69l1.52 -0.66c3.59,0.22 7.16,0.4 10.74,0.55l0 0.13c-4.38,8.13 -6.52,17.39 -6.48,26.62 0,3.1 0.28,6.18 0.77,9.22 1.99,12.13 7.76,23.55 15.95,32.74 10.31,11.55 25.05,19.72 40.55,19.72l0.08 0.96z"/>
  <path class="fil26" d="M409.22 119.43c-1.87,-5.75 -8.27,-9.44 -14.17,-8.28 -5.58,1.09 -10.5,6.31 -10.64,12.07 -0.38,2.48 -0.04,5.09 1.26,7.57 2.99,5.74 10.19,8.4 16.11,5.56 6.03,-2.89 9.54,-10.5 7.44,-16.92z"/>
  <path class="fil26" d="M489.12 122.84c-1.87,-5.75 -8.27,-9.44 -14.18,-8.28 -5.58,1.1 -10.5,6.31 -10.64,12.07 -0.38,2.48 -0.03,5.09 1.26,7.57 2.99,5.74 10.19,8.4 16.11,5.56 6.03,-2.89 9.54,-10.5 7.44,-16.92z"/>
  <path class="fil28" d="M340.69 103.38c-1.04,0.61 -0.1,2.24 0.95,1.62 3.9,-2.29 6.37,6.27 6.59,8.55 0.12,1.28 0.32,3.54 -0.31,4.7 -2.4,1.49 -3.97,1.37 -4.7,-0.38 -1,-1.24 -1,-2.47 -0.02,-3.69 0.6,1.05 2.22,0.11 1.62,-0.95 -1.82,-3.21 -4.59,-1.2 -4.36,1.94 0.23,3.17 3.38,8.63 7.28,6.32 6.32,-3.76 0.27,-22.4 -7.04,-18.11z"/>
  <path class="fil29" d="M430.68 145.07c-0.7,1.12 -1.45,2.2 -2.29,3.22 -0.45,0.53 -0.91,1.06 -1.4,1.56 -0.89,0.91 -1.14,1.28 -2.51,1.11 -1.37,-0.17 -1.62,-0.6 -1.96,-1.91 -0.18,-0.69 -0.2,-1.45 -0.22,-2.16 -0.06,-1.66 0.14,-3.28 0.49,-4.89 0.27,-1.18 -1.55,-1.68 -1.81,-0.5 -0.73,3.29 -1.69,9.84 2.32,11.56 3.79,1.63 7.38,-4.46 9,-7.04 0.64,-1.03 -0.98,-1.97 -1.62,-0.95z"/>
  <path class="fil29" d="M417.52 105.06c-1.97,3.36 -6.71,5.8 -9.01,1.34 -2.07,-3.98 -0.96,-8.9 0.96,-12.9l0.09 -0.45c1.78,-3.74 5.8,-6.27 9.01,-2.2 2.91,3.7 1.13,10.56 -1.05,14.22z"/>
  <path class="fil29" d="M468.78 108.64c-1.97,3.36 -6.71,5.8 -9.02,1.33 -2.07,-3.98 -0.96,-8.9 0.96,-12.9l0.09 -0.45c1.78,-3.74 5.8,-6.27 9.02,-2.2 2.91,3.7 1.13,10.56 -1.05,14.22z"/>
  <path class="fil40" d="M525.56 48.5c-7.63,9.88 -17.86,17.39 -29.24,22.69 -6.61,3.08 -13.6,5.41 -20.7,7.03 -19.25,4.39 -39.27,4 -59,2.57 -11.57,-0.84 -23.14,-2.01 -34.65,-3.51 -3.57,-0.47 -7.12,-0.98 -10.67,-1.5l-1.56 0.51c0.11,8.28 0.19,16.66 -0.39,24.92 -0.02,0.62 -0.06,1.22 -0.11,1.84 -0.36,4.62 -0.96,9.24 -1.88,13.79 -0.4,2.01 -0.54,4.25 -1.08,6.23 -0.3,1.09 -0.83,2.13 -1.41,3.11 -0.3,0.53 -0.83,0.84 -1.3,1.24 -0.37,0.32 -0.79,0.56 -1.26,0.58 -0.81,0.02 -1.45,-0.66 -1.9,-1.31 -0.83,-1.24 -1.41,-2.61 -1.88,-4.04 -0.28,-0.84 -0.52,-1.73 -0.75,-2.59 -0.7,-2.63 -1.29,-5.28 -1.86,-7.93 -0.75,-3.49 -1.43,-7.01 -2.09,-10.52 -0.51,-0.77 -0.77,-1.71 -1.5,-2.31 -3.14,-8.53 -1.79,-17.86 0.62,-26.63 1.45,-5.3 5.01,-11.05 10.5,-11.05 3.48,0 6.42,2.4 8.98,4.72 0.3,-7.85 2.27,-16.66 8.98,-20.76 4.09,-2.5 9.28,-2.69 13.96,-1.67 4.7,1.03 9.05,3.19 13.41,5.2 0.98,0.45 1.95,0.88 2.93,1.31 14.07,6.14 29.45,10.33 44.7,9.3 14.39,-0.96 32.01,-12.06 36.33,-14.91l0.09 -0.06c0.58,-0.4 0.9,-0.62 0.9,-0.62l4.7 -3.27c4.21,-3.4 8.85,-6.27 13.81,-8.49 2.72,-1.22 5.62,-2.25 8.6,-2.25 2.99,0 6.12,1.2 7.78,3.68 2.99,4.45 0.21,10.44 -3.04,14.71z"/>
  <path class="fil31" d="M502.35 14.39c0,10.44 -3.02,20.85 -8.6,29.7 -0.11,0.06 -0.43,0.28 -0.92,0.66l-0.09 0.06c-4.36,3.1 -22.92,16.3 -36.83,16.45 -15.27,0.15 -30.18,-4.6 -44.2,-10.84 -0.98,-0.43 -1.95,-0.86 -2.93,-1.31 -4.36,-2.01 -8.72,-4.17 -13.41,-5.2 -4.68,-1.01 -9.86,-0.83 -13.96,1.67 -6.71,4.09 -8.68,12.9 -8.98,20.76 -2.55,-2.31 -5.5,-4.72 -8.98,-4.72 -5.48,0 -9.05,5.75 -10.5,11.05 -2.4,8.77 -3.76,18.11 -0.62,26.63 -0.66,-0.51 -1.35,-1 -2.07,-1.45 -2.01,-1.3 -4.32,-2.52 -6.71,-2.16 -0.6,0.09 -1.14,0.28 -1.65,0.55l-0.09 0.04c-1.94,0.53 -3.35,2.03 -4.32,3.83l-0.15 0.3c-2.22,-7.42 -4.9,-17.19 -7.08,-24.4 -1.15,-3.77 -2.29,-7.62 -2.57,-11.57 -0.28,-3.95 0.38,-8.08 2.61,-11.34 2.25,-3.31 5.88,-5.43 9.62,-6.87 7.7,-2.97 16.36,-3.4 24.32,-1.22l0.09 -0.02c-1.01,-2.87 -2.87,-5.37 -4.38,-8.02 -1.58,-2.71 -2.82,-5.82 -2.23,-8.9 1.01,-5.3 6.82,-8.13 12.06,-9.28 12.73,-2.76 26,-0.38 38.54,3.08 12.57,3.46 24.93,7.98 37.83,9.58 2.89,0.36 5.99,0.53 8.51,-0.92 0.98,-6.56 2.09,-13.09 3.25,-19.61 0.53,-2.89 1.07,-5.79 2.16,-8.49 0.41,-0.96 0.98,-1.99 1.95,-2.31 1.41,-0.45 2.8,0.71 3.72,1.86 3.23,4.02 5.11,8.98 6.1,14.03 1.03,5.07 1.22,10.25 1.43,15.4l1.03 0.58c4.6,-8.34 9.75,-16.38 15.38,-24.06 1.33,-1.82 2.91,-3.76 5.13,-4.17 2.44,-0.47 4.94,1.19 6.14,3.36 1.2,2.2 1.39,4.79 1.39,7.29z"/>
  <polygon class="fil31" points="493.75,44.09 493.78,44.07 493.73,44.13 "/>
  <path class="fil31" d="M358.05 40.14c-5.2,-8.09 -7.92,-17.24 -8,-26.86 -0.01,-1.2 -1.88,-1.38 -1.87,-0.17 0.08,10.17 2.93,19.68 8.43,28.23 0.65,1.01 2.09,-0.2 1.44,-1.2z"/>
  <path class="fil31" d="M353.06 38.61c-4.8,-3.15 -8.78,-7.23 -11.78,-12.13 -0.62,-1.02 -2.33,-0.24 -1.7,0.8 3.16,5.19 7.31,9.53 12.39,12.87 1.01,0.66 2.1,-0.86 1.09,-1.53z"/>
  <path class="fil31" d="M347.48 40.99c-4.4,-0.99 -8.47,-2.75 -12.22,-5.25 -1.01,-0.67 -2.1,0.86 -1.09,1.53 4.04,2.69 8.41,4.52 13.14,5.59 1.18,0.26 1.33,-1.61 0.17,-1.87z"/>
  <path class="fil31" d="M460.42 27.03c-9.78,5.48 -22.44,-1.18 -31.32,-5.78 -8.63,-4.47 -17.1,-9.63 -26.7,-11.72 -8.72,-1.89 -17.92,-1.06 -26.22,2.19 -7.2,2.83 -15.99,7.91 -16.74,16.43 -0.1,1.2 1.77,1.38 1.87,0.17 0.93,-10.64 15.88,-15.97 24.8,-17.38 10.06,-1.59 19.62,0.73 28.71,5 8.07,3.79 15.63,8.66 23.98,11.87 7.06,2.71 15.41,4.84 22.41,0.91 1.05,-0.59 0.26,-2.29 -0.8,-1.7z"/>
  <path class="fil31" d="M366.47 45.03c-7.66,-2.68 -16.54,-1.95 -24.41,-0.52 -6.94,1.26 -13.35,4.45 -16.79,10.88 -8.17,15.29 7.02,25.98 12.62,38.63 0.49,1.11 2.19,0.31 1.7,-0.8 -4.92,-11.1 -18.28,-20.37 -13.96,-33.89 2.45,-7.67 9.2,-11.6 16.76,-12.98 7.55,-1.37 16.08,-2.13 23.42,0.43 1.14,0.4 1.8,-1.36 0.66,-1.76z"/>
  <path class="fil40" d="M518.2 61.32c-1.08,-0.54 -1.73,1.22 -0.66,1.76 4.27,2.14 -6.84,8.99 -7.44,9.34 -2.37,1.39 -4.87,2.55 -7.43,3.56 -5.33,2.1 -10.94,3.45 -16.55,4.52 -12.8,2.45 -25.84,3.58 -38.86,3.66 -25.77,0.15 -51.39,-3.86 -76.34,-10.09 -1.16,-0.29 -1.83,1.47 -0.66,1.76 29.73,7.42 60.41,11.73 91.1,9.7 14.07,-0.93 28.9,-2.64 42.12,-7.84 3.16,-1.25 24.33,-11.54 14.73,-16.36z"/>
  <path class="fil40" d="M514.36 17.53c-5.78,4.35 -10.34,9.81 -13.66,16.24 -0.55,1.07 1.21,1.72 1.76,0.66 3.16,-6.12 7.6,-11.32 13.1,-15.46 0.97,-0.73 -0.24,-2.17 -1.2,-1.44z"/>
  <path class="fil40" d="M519.92 21.69c-5.47,2.42 -10.34,5.81 -14.49,10.11 -0.83,0.86 0.36,2.31 1.2,1.44 4.05,-4.19 8.76,-7.49 14.09,-9.85 1.1,-0.49 0.31,-2.19 -0.8,-1.7z"/>
  <path class="fil41" d="M393.5 166.22c12.92,16.45 17.07,39.44 10.71,59.39 -0.21,0.62 -0.4,1.26 -0.26,1.88 0.15,0.56 0.56,1.03 0.98,1.45 6.59,6.74 14.88,11.81 23.89,14.58l2.1 0 0 6.82c-4.43,-0.11 -8.85,-0.54 -13.2,-1.46 -10.09,-2.12 -19.85,-6.93 -26.47,-14.82 -2.5,-3.01 -4.6,-6.63 -4.62,-10.52 0.94,-0.21 1.88,-0.43 2.82,-0.68l-0.02 -0.08 -0.13 0 -0.04 -1.63c6.37,-12.38 9.34,-26.13 8.49,-39.71 -0.3,-4.6 -1.32,-9.67 -5.43,-12.47 -1.39,-0.96 -3,-1.54 -4.73,-1.86l0.02 -0.08c1.93,-0.39 3.92,-0.7 5.9,-0.86l0 0.06z"/>
  <path class="fil19" d="M386.63 223.52c-8.62,1.84 -17.58,2.22 -26.31,1.07 -2.61,-0.34 -5.24,-0.83 -7.66,-1.78 -1.15,-0.43 -2.23,-1 -3.25,-1.67l-1.67 -1.41c-1.15,-9.37 0.02,-18.95 3.36,-27.89 2.22,-5.96 5.49,-11.72 10.44,-16.19 5.03,-4.54 11.76,-7.61 18.86,-8.58 2.37,-0.32 4.88,-0.39 7.19,0.04 1.73,0.32 3.35,0.9 4.73,1.86 4.11,2.8 5.13,7.87 5.43,12.47 0.84,13.58 -2.12,27.33 -8.49,39.71l0.04 1.63 0.13 0 0.02 0.08c-0.94,0.24 -1.88,0.47 -2.82,0.68z"/>
  <path class="fil4" d="M449.02 197.75c-0.94,0.66 -1.86,1.32 -2.8,1.97l-0.02 0c-0.15,-0.49 -0.32,-1 -0.49,-1.48 1.09,-0.19 2.2,-0.36 3.31,-0.49z"/>
  <path class="fil2" d="M526.95 173.13l2.89 -4.3 -8.62 47.54 -0.23 -0.02c-0.51,0.02 -0.83,0.55 -1.05,1.01 -1.78,3.72 -3.04,7.68 -3.74,11.74 -0.83,-1.77 -2.38,-3.19 -4.26,-3.7 -1.88,-0.49 -4.02,0.02 -5.35,1.45 -0.66,0.7 -1.09,1.56 -1.46,2.44 -1.35,3.06 -2.18,6.48 -1.73,9.77l-0.11 0.02c-0.17,-0.99 -0.28,-1.99 -0.32,-3l-4.51 -0.13 0.66 -21.52 27.83 -41.28z"/>
  <path class="fil4" d="M518.39 178.41c2.1,-1.56 4.32,-2.99 6.61,-4.26 0.64,-0.38 1.28,-0.71 1.95,-1.01l-27.83 41.28 -1.92 -0.49 0.17 -0.64c-0.13,-0.34 -0.23,-0.68 -0.3,-1.03 0.15,0.28 0.3,0.56 0.43,0.86l0.53 0.04c0.39,-8.21 3.53,-16.17 8.34,-22.82 3.32,-4.6 7.44,-8.58 12.02,-11.93z"/>
  <path class="fil19" d="M519.76 160.67c1.14,-0.92 2.39,-1.82 3.83,-2.14 -2.97,6.22 -4.75,13 -5.2,19.87 -4.58,3.34 -8.69,7.33 -12.02,11.93 -4.81,6.65 -7.95,14.61 -8.34,22.82l-0.53 -0.04c-0.13,-0.3 -0.28,-0.58 -0.43,-0.86 -0.34,-1.35 -0.39,-2.76 -0.37,-4.15 0.11,-18.18 8.83,-36.12 23.06,-47.43z"/>
  <path class="fil2" d="M511.44 270.27l-0.83 4.58 -8.32 12.4 -5.64 8.41 1.75 -57.4 0.06 -2.33 4.51 0.13c0.04,1.01 0.15,2.01 0.32,3 0.47,2.8 1.43,5.52 2.84,7.98 1.63,2.88 4.34,5.6 7.65,5.54 0.3,0 0.6,-0.04 0.9,-0.09l-3.23 17.77z"/>
  <path class="fil2" d="M440.14 199.37l57.06 14.56 1.92 0.49 -0.66 21.52 -0.06 2.33 -3.59 -0.11c0,-1.48 -0.41,-2.89 -1.48,-3.95 -2.29,-2.27 -6.18,-1.52 -9.15,-0.22 -5.77,2.54 -10.88,6.57 -14.61,11.61 1.3,-4.36 1.56,-9.01 0.77,-13.51 -3.06,0.79 -4.28,4.3 -5.44,7.19 -1.41,3.55 -3.36,6.87 -5.82,9.82 -0.19,-0.6 -0.4,-1.2 -0.62,-1.79l-0.02 -0.04c-3.14,1.31 -6.59,1.78 -9.97,2.16 -5.82,0.64 -11.7,1.05 -17.54,0.88l0 -53.3 9.22 2.35z"/>
  <path class="fil2" d="M460.44 263.83l-0.23 -0.28c0.07,-0.53 0.15,-1.05 0.21,-1.58l0.77 0.08c4.29,1.15 8.89,0.24 13.02,-1.33 8.53,-3.25 16.06,-9.58 19.55,-17.92 0.6,-1.43 1.05,-3.08 1.05,-4.64l3.59 0.11 -1.75 57.4 0 0.02c-1.92,-0.98 -3.91,-1.84 -5.92,-2.55 -8.39,-3.01 -17.35,-3.98 -26.26,-4.43 -2.74,-0.15 -5.49,-0.22 -8.25,-0.26l0 -0.02 -25.32 -2.25 0 -10.01c10.71,-1.86 20.91,-5.77 29.53,-12.3l0 -0.02z"/>
  <path class="fil4" d="M446.21 199.72l0.02 0c0.94,-0.66 1.86,-1.31 2.8,-1.97 5.5,-0.71 11.06,-0.86 16.56,-0.3 3.83,0.38 7.62,1.13 11.31,2.24 5.05,1.54 9.9,3.76 14.26,6.71 2.31,1.58 4.55,3.44 5.92,5.86 0.08,0.36 0.17,0.7 0.3,1.03l-0.17 0.64 -57.06 -14.56c1.84,-0.43 3.7,-0.81 5.58,-1.13 0.17,0.49 0.34,1 0.49,1.48z"/>
  <path class="fil20" d="M476.9 199.69c-3.68,-1.11 -7.48,-1.86 -11.31,-2.24 -5.5,-0.56 -11.06,-0.41 -16.56,0.3 4.79,-3.4 9.46,-7.01 13.11,-11.57l0.28 0.24c5.2,4 10.05,8.43 14.48,13.26z"/>
  <path class="fil41" d="M462.85 185c0,0.28 -0.19,0.54 -0.36,0.77l-0.36 0.41c-3.64,4.56 -8.32,8.17 -13.11,11.57 -1.11,0.13 -2.22,0.3 -3.31,0.49 -2.61,-7.46 -6.67,-14.37 -11.16,-20.89 -3.14,-4.55 -6.61,-9.07 -11.38,-11.87l-0.52 0.02c-0.02,-0.39 -0.06,-0.79 -0.09,-1.16l0.06 -0.02c8.4,1.26 16.25,4.85 23.71,8.88 5.71,3.08 11.33,6.48 16.02,10.95 0.24,0.24 0.49,0.51 0.51,0.84z"/>
  <path class="fil20" d="M459.07 249.1c1.33,4.13 1.8,8.54 1.35,12.87 -0.06,0.53 -0.13,1.05 -0.21,1.58l0.23 0.28 0 0.02c-8.62,6.54 -18.82,10.44 -29.53,12.3l0 -25.83c5.84,0.17 11.72,-0.24 17.54,-0.88 3.38,-0.38 6.84,-0.85 9.97,-2.16l0.02 0.04c0.22,0.58 0.43,1.18 0.62,1.79z"/>
  <path class="fil41" d="M437.13 288.92l0.02 0.17c-5.45,1.92 -11.01,3.38 -16.64,4.47 -15.2,0.45 -30.5,-3.78 -43.26,-12.08 -7.94,-5.18 -15.18,-12.43 -17.49,-21.58 0.4,-3.44 0.81,-6.89 1.24,-10.33 4.26,8.3 10.5,15.76 18.57,20.44 7.03,4.04 15.14,5.82 23.2,6.76 9.3,1.07 18.9,1 28.14,-0.62l0 10.01 25.32 2.25 0 0.02c-6.37,-0.11 -12.74,0.04 -19.1,0.49z"/>
  <path class="fil19" d="M434.56 177.35c4.49,6.52 8.55,13.43 11.16,20.89 -1.88,0.32 -3.74,0.69 -5.58,1.13l-9.22 -2.35 0 46.49 -2.1 0c-9.02,-2.76 -17.3,-7.83 -23.89,-14.58 -0.41,-0.41 -0.83,-0.88 -0.98,-1.45 -0.13,-0.62 0.06,-1.26 0.26,-1.88 6.37,-19.95 2.22,-42.94 -10.71,-59.39l0 -0.06c1.16,-0.11 2.31,-0.17 3.48,-0.19l0.43 -0.02 0 0.13c0.02,0.56 0.04,1.15 0.28,1.64 0.21,0.41 0.58,0.73 0.94,1.01 1.77,1.35 3.93,2.01 6.05,2.65 4.24,1.28 8.72,2.57 13.09,1.71 0.26,-0.06 0.52,-0.11 0.79,-0.19 0.79,-0.21 1.54,-0.54 2.16,-1.07 0.85,-0.71 1.35,-1.77 1.64,-2.86 0.3,-1.14 0.37,-2.31 0.3,-3.48l0.52 -0.02c4.77,2.8 8.25,7.33 11.38,11.87z"/>
  <path class="fil20" d="M361.01 249.57l-0.02 -0.04c-4.28,-8.32 -6.69,-17.47 -8.36,-26.67l0.02 -0.06c2.42,0.96 5.05,1.45 7.66,1.78 8.73,1.15 17.69,0.77 26.31,-1.07 0.02,3.89 2.12,7.51 4.62,10.52 6.61,7.89 16.38,12.7 26.47,14.82 4.36,0.92 8.77,1.35 13.2,1.46l0 25.83c-9.24,1.62 -18.84,1.69 -28.14,0.62 -8.06,-0.94 -16.17,-2.72 -23.2,-6.76 -8.08,-4.68 -14.31,-12.13 -18.57,-20.44z"/>
  <path class="fil23" d="M524.4 230.17c-0.05,5.77 -0.61,11.75 -3.32,16.83 -1.37,2.58 -3.61,5.01 -6.42,5.5 -0.29,0.07 -0.59,0.1 -0.89,0.1 -3.31,0.05 -6.01,-2.67 -7.65,-5.54 -1.4,-2.46 -2.36,-5.2 -2.84,-7.98l0.12 -0.02c-0.45,-3.29 0.37,-6.72 1.72,-9.77 0.37,-0.88 0.81,-1.75 1.47,-2.45 1.33,-1.42 3.48,-1.92 5.35,-1.45 1.87,0.52 3.44,1.94 4.27,3.71 0.69,-4.07 1.94,-8.03 3.73,-11.75 0.24,-0.47 0.54,-1 1.04,-1.01l0.24 0.02c0.39,0.1 0.69,0.52 0.89,0.93 2.07,3.88 2.33,8.47 2.28,12.88z"/>
  <path class="fil23" d="M493.33 234.2c1.08,1.06 1.49,2.46 1.49,3.95 0,1.57 -0.45,3.21 -1.05,4.64 -3.49,8.34 -11.04,14.67 -19.56,17.92 -4.13,1.57 -8.73,2.48 -13.01,1.33l-0.78 -0.08c0.46,-4.32 -0.02,-8.73 -1.35,-12.86 2.46,-2.95 4.42,-6.28 5.82,-9.82 1.16,-2.89 2.4,-6.41 5.45,-7.19 0.79,4.49 0.52,9.15 -0.78,13.5 3.75,-5.03 8.85,-9.08 14.62,-11.61 2.97,-1.3 6.85,-2.04 9.15,0.22z"/>
  <path class="fil3" d="M501.27 213.56c-0.06,-3.25 -5.13,-3.26 -5.06,0 0.49,26.48 -0.34,52.93 -2.52,79.33 -0.27,3.25 4.8,3.23 5.06,0 2.17,-26.39 3.01,-52.85 2.52,-79.33z"/>
  <path class="fil42" d="M651.97 406.35c0.23,0.3 0.53,0.58 0.88,0.6l0.21 -0.06 0.28 0.52c-15.1,8.17 -31.01,14.86 -47.44,19.89 -2.89,0.9 -5.84,1.75 -8.85,1.95 -2.4,-5.73 -4.92,-11.42 -7.51,-17.07 9.75,-0.86 19.21,-4.43 27.08,-10.24 -3.57,-1.43 -6.59,-4.23 -8.26,-7.7 -0.15,-0.32 -0.3,-0.68 -0.24,-1.03 0.06,-0.34 0.32,-0.62 0.56,-0.88 0.9,-0.94 1.84,-1.86 2.8,-2.76 3.02,-2.84 6.29,-5.45 9.75,-7.76 1.09,-0.73 2.5,-1.45 3.66,-0.81 0.56,0.32 0.92,0.9 1.22,1.48 1.52,2.91 2.27,6.2 2.18,9.47l0.02 0c7.61,-2.74 15.57,-5.18 23.57,-5.64l0.02 0.28c-2.29,3.48 -2.24,7.93 -2.01,12.08 0.17,2.69 0.43,5.54 2.08,7.66z"/>
  <path class="fil19" d="M671.03 396.94c-5.75,3.74 -11.64,7.23 -17.69,10.48l-0.28 -0.52 -0.21 0.06c-0.36,-0.02 -0.66,-0.3 -0.88,-0.6 -1.65,-2.12 -1.91,-4.98 -2.08,-7.66 -0.23,-4.15 -0.28,-8.6 2.01,-12.08l-0.02 -0.28c3.1,-0.17 6.2,-0.06 9.3,0.47 4.04,0.68 8.47,2.54 9.71,6.44 0.4,1.22 0.4,2.48 0.15,3.7z"/>
  <path class="fil20" d="M644.78 419.73c-14.52,6.97 -30.03,11.91 -45.96,14.24l-0.11 -0.75c-0.54,-1.32 -1.09,-2.63 -1.65,-3.94 3.01,-0.21 5.96,-1.05 8.85,-1.95 16.44,-5.03 32.34,-11.72 47.44,-19.89 6.05,-3.25 11.95,-6.74 17.69,-10.48 -0.47,2.37 -1.91,4.66 -3.47,6.56 -5.97,7.25 -14.31,12.15 -22.78,16.23z"/>
  <path class="fil6" d="M614.07 385.32l0.08 0.04c-0.83,1.43 -1.9,2.67 -3.08,3.79 -1.26,1.19 -2.65,2.25 -4.04,3.25 -3.46,2.5 -7.06,4.79 -10.78,6.87l-0.69 -1.3c-2.63,-8.28 -6.63,-16.06 -10.73,-23.72 -8.43,-15.83 -17.35,-31.5 -28.38,-45.66 -11.01,-14.14 -24.23,-26.82 -39.93,-35.5 -4.51,-2.48 -9.22,-4.66 -14.22,-5.84l8.32 -12.4 0.83 -4.58c15.21,5.37 30.24,11.53 42.94,21.41 11.38,8.87 20.42,20.38 28.83,32.1 13.49,18.77 25.98,38.94 30.86,61.53z"/>
  <path class="fil19" d="M611.06 389.15l0.41 0.43c-0.96,0.9 -1.9,1.82 -2.8,2.76 -0.24,0.26 -0.51,0.54 -0.56,0.88 -0.06,0.36 0.09,0.71 0.24,1.03 1.67,3.47 4.7,6.27 8.26,7.7 -7.87,5.81 -17.34,9.37 -27.08,10.24 -1.05,-2.25 -2.1,-4.51 -3.17,-6.76l-0.47 -1.02c3.53,-1.54 6.99,-3.25 10.35,-5.15 3.72,-2.08 7.33,-4.38 10.78,-6.87 1.39,-1 2.78,-2.07 4.04,-3.25z"/>
  <path class="fil43" d="M513.65 311.93c-0.54,-1.09 -1.16,-2.14 -1.82,-3.16 -3.7,-5.67 -9.09,-10.03 -15.18,-13.09l0 -0.02 5.64 -8.41c5,1.18 9.71,3.36 14.22,5.84 15.7,8.68 28.92,21.36 39.93,35.5 11.03,14.16 19.95,29.83 28.38,45.66 4.1,7.66 8.1,15.44 10.73,23.72l0.69 1.3c-3.36,1.9 -6.82,3.61 -10.35,5.15 -1.88,0.81 -3.79,1.56 -5.71,2.26 -5.2,-16.96 -14.69,-32.42 -26.01,-46.11 -10.82,-13.11 -23.33,-24.74 -36.12,-35.95 -0.13,-0.7 -0.3,-1.37 -0.49,-2.07 -0.96,-3.64 -2.18,-7.27 -3.91,-10.61z"/>
  <path class="fil19" d="M527.95 457.93l-0.28 -0.07c-0.28,-0.21 -0.36,-0.62 -0.38,-1 -0.13,-2.69 1.28,-5.16 2.7,-7.46 2.18,-3.53 4.72,-7.21 8.58,-8.73l0.15 -0.23c2.63,1.62 5.11,3.51 7.32,5.71 2.91,2.87 5.48,6.95 4.24,10.84 -0.4,1.24 -1.09,2.27 -2.01,3.14 -6.82,-0.24 -13.63,-0.77 -20.42,-1.58l0.08 -0.62z"/>
  <path class="fil20" d="M548.29 460.13c-1.75,1.65 -4.23,2.71 -6.61,3.36 -9.05,2.48 -18.69,1.71 -27.95,0.17 -15.89,-2.63 -31.44,-7.51 -45.81,-14.76l0.34 -0.68c0.32,-1.41 0.62,-2.8 0.92,-4.21 2.57,1.56 5.48,2.57 8.36,3.51 16.36,5.33 33.25,9.02 50.34,11.03 6.78,0.81 13.6,1.33 20.42,1.58z"/>
  <path class="fil42" d="M516.19 431.48c7.8,2.14 15.72,4.72 22.54,8.96l-0.15 0.23c-3.87,1.52 -6.4,5.2 -8.58,8.73 -1.43,2.29 -2.84,4.77 -2.7,7.46 0.02,0.38 0.09,0.79 0.38,1l0.28 0.07 -0.08 0.62c-17.09,-2.01 -33.98,-5.69 -50.34,-11.03 -2.87,-0.94 -5.79,-1.95 -8.36,-3.51 1.33,-6.07 2.56,-12.15 3.66,-18.26 8.45,4.88 18.28,7.4 28.04,7.18 -2.08,-3.23 -2.93,-7.25 -2.31,-11.04 0.06,-0.36 0.13,-0.71 0.38,-0.98 0.26,-0.26 0.64,-0.34 0.99,-0.41 0.58,-0.11 1.18,-0.23 1.77,-0.34l0.02 0c3.59,-0.09 7.16,-0.41 10.69,-1.05 1.28,-0.04 2.54,-0.04 3.81,0 1.31,0.04 2.89,0.27 3.47,1.45 0.28,0.58 0.23,1.28 0.15,1.92 -0.43,3.27 -1.69,6.39 -3.66,9.01z"/>
  <path class="fil6" d="M469.81 326.43c-19.85,4.15 -40.2,5.86 -60.44,5.07 -9.92,-0.4 -19.85,-1.37 -29.43,-4 -3.38,-0.92 -6.8,-2.08 -9.5,-4.34l-0.38 0.21c-0.43,-0.79 -0.81,-1.62 -1.16,-2.44 -2.52,-5.88 -3.49,-12.3 -4.06,-18.69 -0.21,-2.16 -0.39,-4.41 -1.58,-6.24l0.22 -1.45c1.47,0.26 2.95,0.39 4.41,0.54 17.51,1.56 35.42,1.77 52.61,-1.54 5.64,-1.09 11.19,-2.56 16.64,-4.47l-0.02 -0.17c6.37,-0.45 12.73,-0.6 19.1,-0.49 2.76,0.04 5.5,0.11 8.25,0.26 8.9,0.45 17.86,1.43 26.26,4.43 2.01,0.71 4,1.58 5.92,2.55 6.09,3.06 11.48,7.42 15.18,13.09 0.66,1.01 1.28,2.07 1.82,3.16 1.73,3.34 2.95,6.97 3.91,10.61 0.19,0.7 0.36,1.37 0.49,2.07 3.49,14.71 3.06,30.13 1.71,45.21 -1.41,15.8 -3.78,31.56 -3.55,47.41l0.26 1.07c-1.35,0.32 -2.7,0.6 -4.06,0.81 -3.59,0.11 -7.16,0.45 -10.69,1.05l-0.02 0c-7.49,0.25 -15.06,-0.45 -22.5,-1.35 -1.65,-0.19 -3.34,-0.43 -4.96,-0.86 -1.77,-0.45 -3.42,-1.13 -4.81,-2.24 2.72,-14.31 4.55,-28.79 5.47,-43.33 0.58,-9.43 0.79,-19.03 -1.56,-28.17l0.22 -0.04c-0.37,-2.35 -0.77,-4.68 -1.18,-7.03 -0.6,-3.62 -1.24,-7.29 -2.57,-10.71z"/>
  <path class="fil19" d="M501.71 420.16c-0.58,0.11 -1.18,0.23 -1.77,0.34 -0.36,0.07 -0.73,0.15 -0.99,0.41 -0.24,0.26 -0.32,0.62 -0.38,0.98 -0.62,3.79 0.23,7.81 2.31,11.04 -9.77,0.23 -19.59,-2.29 -28.04,-7.18 0.45,-2.44 0.88,-4.9 1.3,-7.36l0.11 -0.45c1.62,0.43 3.31,0.68 4.96,0.86 7.44,0.9 15.01,1.6 22.5,1.35z"/>
  <path class="fil43" d="M473.35 344.2c-20.31,3.14 -41,1.97 -61.52,0.66 -7.29,-0.45 -14.71,-0.96 -21.54,-3.53 -8.64,-3.21 -15.98,-9.79 -20.23,-17.96l0.38 -0.21c2.7,2.25 6.12,3.42 9.5,4.34 9.58,2.63 19.51,3.61 29.43,4 20.25,0.79 40.59,-0.92 60.44,-5.07 1.33,3.42 1.97,7.08 2.57,10.71 0.41,2.35 0.81,4.68 1.18,7.03l-0.22 0.04z"/>
  <path class="fil19" d="M377.25 281.48c12.75,8.3 28.06,12.53 43.26,12.08 -17.19,3.31 -35.11,3.1 -52.61,1.54 -1.46,-0.15 -2.95,-0.28 -4.41,-0.54 -2.42,-0.39 -4.77,-1.05 -6.84,-2.29l0.09 -0.15c0.83,-10.76 1.82,-21.49 3.02,-32.21 2.31,9.15 9.54,16.4 17.49,21.58z"/>
  <path class="fil19" d="M535.13 434.17c-5.69,2.8 -10.24,7.29 -13.12,12.95 -0.49,0.97 0.96,1.82 1.46,0.85 2.76,-5.42 7.06,-9.65 12.51,-12.35 0.97,-0.48 0.12,-1.94 -0.85,-1.46z"/>
  <path class="fil19" d="M527.25 430.58c-4.63,3.19 -8.35,7.33 -11,12.29 -0.51,0.96 0.94,1.81 1.46,0.85 2.51,-4.7 6.01,-8.66 10.4,-11.69 0.89,-0.61 0.04,-2.07 -0.85,-1.46z"/>
  <path class="fil19" d="M518.14 430.39c0.43,-1.93 1.77,-3.88 2.82,-5.37 0.58,-0.82 1.23,-1.62 1.92,-2.35 0.55,-0.58 2.83,-3.35 2.76,-0.8 -0.02,0.7 -1.34,2.07 -1.75,2.62 -0.61,0.82 -1.26,1.61 -1.95,2.37 -1.17,1.29 -2.46,2.44 -3.8,3.52zm-13.99 1.35c0.54,-0.82 1.07,-1.64 1.61,-2.46 0.53,-0.19 1.07,-0.29 1.63,-0.28 1.09,-0.09 2.16,0.03 3.21,0.36 1.89,0.6 3.5,1.79 4.98,3.09 -3.12,0.45 -11.24,1.5 -11.42,-0.71zm22.81 -12.9c-2.06,-1.3 -5.31,2.61 -6.33,3.86 -1.75,2.14 -4,5.24 -4.29,8.18 -2.07,-1.75 -4.41,-3.21 -7.16,-3.55 -2.21,-0.27 -6.12,0.22 -7.03,2.73 -0.66,1.82 1,3.29 2.5,3.95 3.14,1.37 7.15,0.69 10.58,0.17 -2.29,4.55 -6.11,8.05 -10.86,10.06 -1,0.42 -0.14,1.88 0.85,1.46 5.74,-2.42 10.08,-6.98 12.39,-12.74 2.34,-1.76 13.69,-11.36 9.34,-14.12z"/>
  <path class="fil19" d="M645.99 384.04c0.5,-0.96 -0.96,-1.82 -1.46,-0.85 -1.34,2.61 -2.26,5.37 -2.55,8.3 -0.23,2.36 -0.46,5.89 1.02,7.92 0.63,0.87 2.1,0.03 1.46,-0.85 -1.29,-1.78 -1.01,-4.97 -0.79,-7.07 0.28,-2.63 1.11,-5.1 2.32,-7.45z"/>
  <path class="fil19" d="M636.34 385.34c-1.76,4.81 -3.73,10.41 -2.28,15.53 0.3,1.04 1.93,0.6 1.63,-0.45 -1.35,-4.77 0.64,-10.14 2.28,-14.63 0.37,-1.02 -1.26,-1.46 -1.63,-0.45z"/>
  <path class="fil19" d="M624.04 398.51c-0.49,0.71 -1.04,1.38 -1.65,2.01 -0.26,0.27 -0.53,0.53 -0.81,0.79 -0.84,0.28 -1.14,0.11 -0.91,-0.49 -0.27,-1.58 1.74,-3.6 2.84,-4.41 0.7,-0.52 1.47,-0.91 2.27,-1.24 -0.47,1.17 -1.03,2.3 -1.75,3.35zm3.46 -12.12c0.02,-0.3 0.95,-6.13 1.58,-5.98 0.93,0.22 -1.06,10.02 -1.32,11.15 -0.48,-1.09 -0.31,-4.51 -0.26,-5.16zm1.1 6.48l0.04 -0.22c0.33,-0 0.64,-0.18 0.74,-0.6 0.89,-3.74 1.89,-8.25 1.41,-12.11 -0.17,-1.39 -1.13,-2.64 -2.48,-1.52 -1.93,1.61 -2.43,6.09 -2.54,8.42 -0.07,1.46 -0.26,4.79 1,6.14l-0.01 0.07c-2.25,0.69 -4.4,1.75 -5.94,3.58 -1.14,1.36 -2.7,4.22 -1.59,6 1.26,2.03 3.51,-0.02 4.54,-1.12 1.69,-1.82 2.93,-3.94 3.8,-6.25 1.21,3.25 1.12,6.7 -0.23,9.99 -0.41,1 1.22,1.44 1.63,0.45 1.58,-3.88 1.49,-8.01 -0.13,-11.78 0.15,-0.35 0.06,-0.8 -0.25,-1.05z"/>
  <path class="fil43" d="M381.32 320.59c-2.24,-0.24 -4.39,-0.85 -6.42,-1.82 -0.98,-0.47 -1.83,0.99 -0.85,1.46 2.31,1.11 4.73,1.78 7.27,2.05 1.08,0.11 1.07,-1.57 0,-1.69z"/>
  <path class="fil43" d="M397.47 323.15c-2.53,-0.4 -5.04,-0.89 -7.53,-1.48 -1.06,-0.25 -1.51,1.38 -0.45,1.63 2.49,0.59 5,1.08 7.53,1.48 1.06,0.17 1.52,-1.46 0.45,-1.63z"/>
  <path class="fil43" d="M412.71 324.77c-2.5,-0.17 -5,-0.33 -7.51,-0.5 -1.09,-0.07 -1.08,1.62 0,1.69 2.5,0.17 5,0.33 7.51,0.5 1.08,0.07 1.08,-1.62 0,-1.69z"/>
  <path class="fil43" d="M432.29 324.75c-2.51,0.11 -5.01,0.06 -7.52,-0.14 -1.08,-0.09 -1.07,1.6 0,1.69 2.5,0.21 5,0.25 7.52,0.15 1.08,-0.05 1.09,-1.74 0,-1.69z"/>
  <path class="fil43" d="M451.86 323.47c-2.96,0.3 -5.92,0.59 -8.88,0.89 -1.07,0.11 -1.08,1.8 0,1.69 2.96,-0.3 5.92,-0.59 8.88,-0.89 1.07,-0.11 1.08,-1.8 0,-1.69z"/>
  <path class="fil43" d="M468.71 320.3c-2.13,0.34 -4.26,0.69 -6.39,1.03 -1.07,0.17 -0.62,1.8 0.45,1.63 2.13,-0.34 4.26,-0.69 6.39,-1.03 1.07,-0.17 0.62,-1.8 -0.45,-1.63z"/>
  <path class="fil43" d="M475.83 323.12c-0.27,-1.05 -1.9,-0.61 -1.63,0.45 0.72,2.76 1.15,5.56 1.28,8.41 0.05,1.08 1.74,1.09 1.69,0 -0.14,-3 -0.59,-5.95 -1.34,-8.86z"/>
  <path class="fil43" d="M477.55 337.67c-0.06,-1.08 -1.75,-1.09 -1.69,0 0.12,2.13 0.24,4.25 0.37,6.38 0.06,1.08 1.75,1.09 1.69,0 -0.12,-2.13 -0.25,-4.25 -0.37,-6.38z"/>
  <path class="fil43" d="M478.63 352.46c0,-1.09 -1.69,-1.09 -1.69,0 0,2.14 0.18,4.25 0.5,6.37 0.16,1.07 1.79,0.62 1.63,-0.45 -0.3,-1.96 -0.44,-3.93 -0.44,-5.92z"/>
  <path class="fil43" d="M477.64 364.75l0 6.83c0,1.09 1.69,1.09 1.69,0l0 -6.83c0,-1.09 -1.69,-1.09 -1.69,0z"/>
  <path class="fil43" d="M479.08 377.27c-0.06,-1.08 -1.75,-1.09 -1.69,0 0.11,1.98 0.06,3.95 -0.15,5.92 -0.11,1.08 1.57,1.07 1.69,0 0.21,-1.97 0.26,-3.94 0.15,-5.92z"/>
  <path class="fil43" d="M476.69 389.1c-0.17,2.05 -0.33,4.09 -0.5,6.14 -0.09,1.08 1.6,1.07 1.69,0 0.17,-2.05 0.33,-4.09 0.5,-6.14 0.09,-1.08 -1.6,-1.08 -1.69,0z"/>
  <path class="fil43" d="M475.39 402.3c-0.12,2.03 -0.51,3.99 -1.14,5.91 -0.34,1.04 1.29,1.48 1.63,0.45 0.68,-2.07 1.07,-4.19 1.2,-6.36 0.07,-1.09 -1.62,-1.08 -1.69,0z"/>
  <path class="fil43" d="M513.61 286.79c-2.13,-0.45 -4.19,-1.09 -6.19,-1.94 -0.99,-0.42 -1.85,1.03 -0.85,1.46 2.14,0.92 4.32,1.63 6.6,2.11 1.06,0.22 1.51,-1.4 0.45,-1.63z"/>
  <path class="fil43" d="M525.93 293.64c-2.3,-1.46 -4.59,-2.92 -6.89,-4.38 -0.92,-0.58 -1.77,0.87 -0.85,1.46 2.3,1.46 4.6,2.92 6.89,4.39 0.92,0.59 1.77,-0.88 0.85,-1.46z"/>
  <path class="fil43" d="M539.45 304.69c-2.09,-1.96 -4.18,-3.92 -6.26,-5.88 -0.79,-0.74 -1.99,0.45 -1.19,1.19 2.09,1.96 4.17,3.92 6.26,5.88 0.79,0.74 1.98,-0.45 1.19,-1.2z"/>
  <path class="fil43" d="M552.05 317.58c-1.7,-2.33 -3.49,-4.59 -5.39,-6.77 -0.71,-0.82 -1.9,0.38 -1.19,1.19 1.8,2.07 3.51,4.21 5.12,6.43 0.63,0.87 2.1,0.03 1.46,-0.85z"/>
  <path class="fil43" d="M560.58 328.19c-0.75,-1.68 -1.85,-3.17 -3.23,-4.38 -0.81,-0.72 -2.01,0.47 -1.19,1.19 1.29,1.13 2.27,2.48 2.97,4.04 0.44,0.99 1.89,0.13 1.46,-0.85z"/>
  <path class="fil43" d="M571.28 341.43c-1.84,-2.36 -3.49,-4.85 -4.98,-7.45 -0.54,-0.94 -2,-0.09 -1.46,0.85 1.56,2.72 3.32,5.31 5.24,7.79 0.67,0.86 1.85,-0.35 1.2,-1.19z"/>
  <path class="fil43" d="M580.02 357.55c-0.81,-3.13 -2.26,-5.94 -4.29,-8.46 -0.69,-0.84 -1.87,0.36 -1.19,1.19 1.84,2.28 3.12,4.87 3.85,7.71 0.27,1.05 1.9,0.61 1.63,-0.45z"/>
  <path class="fil43" d="M587 369.99c-0.68,-2.51 -1.8,-4.84 -3.36,-6.92 -0.64,-0.86 -2.11,-0.02 -1.46,0.85 1.48,1.97 2.55,4.14 3.19,6.52 0.28,1.05 1.91,0.6 1.63,-0.45z"/>
  <path class="fil43" d="M593.64 381.52c-0.45,-2.14 -1.26,-4.16 -2.39,-6.03 -0.56,-0.93 -2.02,-0.08 -1.46,0.85 1.07,1.76 1.8,3.61 2.22,5.63 0.22,1.06 1.85,0.61 1.63,-0.45z"/>
  <path class="fil43" d="M599.12 392.44c-0.81,-1.92 -1.61,-3.85 -2.41,-5.77 -0.41,-0.99 -2.05,-0.56 -1.63,0.45 0.81,1.92 1.61,3.85 2.41,5.77 0.41,0.99 2.05,0.55 1.63,-0.45z"/>
 </g>
</svg>
