<?xml version="1.0" encoding="UTF-8"?>
<!DOCTYPE svg PUBLIC "-//W3C//DTD SVG 1.1//EN" "http://www.w3.org/Graphics/SVG/1.1/DTD/svg11.dtd">
<!-- Creator: CorelDRAW 2017 -->
<svg xmlns="http://www.w3.org/2000/svg" xml:space="preserve" width="174.047mm" height="152.956mm" version="1.1" style="shape-rendering:geometricPrecision; text-rendering:geometricPrecision; image-rendering:optimizeQuality; fill-rule:evenodd; clip-rule:evenodd"
viewBox="0 0 970.18 852.61"
 xmlns:xlink="http://www.w3.org/1999/xlink">
 <defs>
  <style type="text/css">
   <![CDATA[
    .fil4 {fill:#FDF4F9;fill-rule:nonzero}
    .fil14 {fill:#F5AA81;fill-rule:nonzero}
    .fil11 {fill:#F5A13B;fill-rule:nonzero}
    .fil10 {fill:#F28E2B;fill-rule:nonzero}
    .fil16 {fill:#EE7661;fill-rule:nonzero}
    .fil17 {fill:#EA574D;fill-rule:nonzero}
    .fil15 {fill:#E74237;fill-rule:nonzero}
    .fil13 {fill:#DA2D2F;fill-rule:nonzero}
    .fil0 {fill:#DCDCE3;fill-rule:nonzero}
    .fil19 {fill:#C9CAD1;fill-rule:nonzero}
    .fil5 {fill:#B5BDC7;fill-rule:nonzero}
    .fil8 {fill:#A4ADB7;fill-rule:nonzero}
    .fil20 {fill:#98B7E0;fill-rule:nonzero}
    .fil6 {fill:#8898A8;fill-rule:nonzero}
    .fil7 {fill:#6B778B;fill-rule:nonzero}
    .fil3 {fill:#3182C4;fill-rule:nonzero}
    .fil18 {fill:#4D5261;fill-rule:nonzero}
    .fil1 {fill:#3564AC;fill-rule:nonzero}
    .fil9 {fill:#3D3D4A;fill-rule:nonzero}
    .fil12 {fill:#2C2A2F;fill-rule:nonzero}
    .fil2 {fill:#364E9B;fill-rule:nonzero}
   ]]>
  </style>
 </defs>
 <g id="Capa_x0020_1">
  <metadata id="CorelCorpID_0Corel-Layer"/>
  <path class="fil0" d="M892.76 776.67c0,17.74 -199.85,32.12 -446.38,32.12 -246.53,0 -446.38,-14.38 -446.38,-32.12 0,-17.74 199.85,-32.12 446.38,-32.12 246.53,0 446.38,14.38 446.38,32.12z"/>
  <path class="fil0" d="M34.25 774.94c0,0 -54.49,-52.84 -2.25,-135.88 38.25,-60.8 85.21,-58.65 65.85,-140.22 -19.36,-81.57 -65.82,-138.75 -39.75,-231.86 24.64,-88.03 150.17,-168.94 271.13,-96.19 70.48,42.39 154.41,29.63 235.87,16.87 58.34,-9.14 115.41,-18.28 165.37,-7.15 119.7,26.65 189.45,178.99 133.12,331.97 -56.33,152.98 -42.69,223.23 -15.84,253.31l-813.48 9.14z"/>
  <path class="fil0" d="M40.17 500.41c17.38,1.73 31.83,-13.48 30.29,-30.87 -2.06,-23.34 -9.64,-58.38 -36.34,-63.32 -40.54,-7.5 -29.39,57.46 -12.47,82.67 5.17,7.7 11.8,10.86 18.51,11.52z"/>
  <path class="fil0" d="M573.4 150.73c3.37,-14.48 -7.87,-28.35 -22.73,-28.97 -19.93,-0.82 -50.34,1.72 -57.45,23.71 -10.79,33.39 45.27,31.12 68.41,19.61 7.07,-3.52 10.46,-8.77 11.76,-14.36z"/>
  <path class="fil0" d="M903.97 573.17c12.41,8.18 29.32,2.43 35.05,-11.29 7.68,-18.41 15.83,-47.82 -2.34,-62.1 -27.59,-21.69 -44.88,31.69 -42.1,57.38 0.85,7.85 4.6,12.85 9.39,16.01z"/>
  <path class="fil0" d="M922.85 382.52c8.59,3.09 17.86,-2.77 19.31,-11.79 1.94,-12.1 2.56,-30.84 -10.35,-36.76 -19.6,-8.98 -22.24,25.39 -16.87,40.34 1.64,4.57 4.6,7.01 7.92,8.21z"/>
  <path class="fil0" d="M362.48 155.61c6.81,-6.09 6.05,-17.04 -1.21,-22.59 -9.73,-7.45 -25.92,-16.91 -37.26,-8.36 -17.22,12.98 11.78,31.64 27.48,34.01 4.8,0.73 8.36,-0.71 10.99,-3.07z"/>
  <path class="fil1" d="M318.88 228.76l3.75 9.51 6.59 -5.93 -31.25 -79.18c1.56,-7.86 4.93,-18.7 12.11,-31.48 13.4,-23.88 23.44,-51.7 6.04,-49.63 -15.09,1.8 -25.49,33.88 -24.5,65.03l-12.09 -30.63c-2.12,-10.11 -5.18,-24.54 -4.37,-40.85 1.88,-37.79 -3.31,-73.91 -21.49,-63.9 -18.2,10.02 -8.1,72.02 19.68,111.71l6.22 15.76c-19.74,-29.28 -57.14,-52.91 -71.35,-42.47 -14.12,10.37 12.21,23.84 38.31,32.13 19.87,6.31 31.43,15 36.85,19.98l29.38 74.44c-31.39,-46.28 -90.47,-83.51 -112.95,-67 -22.4,16.45 19.37,37.82 60.78,50.98 31.29,9.94 49.61,23.6 58.29,31.54z"/>
  <path class="fil1" d="M787.58 292.63l-5.63 8.53 -5.22 -7.17 46.92 -71.03c0.09,-8.02 -0.97,-19.31 -5.35,-33.31 -8.19,-26.13 -12.26,-55.42 4.33,-49.81 14.4,4.87 17.96,38.41 10.55,68.69l18.15 -27.48c4.16,-9.46 10.13,-22.95 12.71,-39.07 5.96,-37.36 18.49,-71.64 34.22,-58.09 15.74,13.56 -6.94,72.14 -42.31,105.25l-9.34 14.14c25.35,-24.58 66.83,-39.98 78.58,-26.84 11.67,13.06 -16.87,20.81 -44.11,23.53 -20.74,2.08 -33.84,8.19 -40.18,11.95l-44.11 66.78c40.26,-38.8 105.76,-63.05 124.35,-42.25 18.53,20.72 -26.76,33.01 -69.99,37.34 -32.67,3.27 -53.41,12.86 -63.55,18.83z"/>
  <path class="fil1" d="M192.32 357.76c4.69,4.11 7.41,10.03 7.41,16.27 0,6.44 -1.94,12.56 -5.37,17.68 -1.18,1.76 -2.54,3.41 -4.05,4.9 -0.62,0.62 -1.26,1.21 -1.93,1.76 -2.46,2.07 -5.25,3.78 -8.32,5.04 -11.29,4.65 -23.75,5.82 -35.63,3.03 -5,-1.17 -9.07,-2.83 -11.47,-5.12 -11.97,-11.5 -17.08,-34.97 -34.67,-31.45 -17.58,3.51 -42.08,1.75 -46.69,-26.07 -4.61,-27.82 -49.02,-48.62 -49.02,-48.62 0,0 35.2,-9.99 62.93,14.5 27.72,24.49 31.47,15.05 56.91,9.4 25.43,-5.65 39.31,-11.95 59.71,25.91 2.72,5.06 6.21,9.27 10.2,12.77z"/>
  <path class="fil2" d="M190.31 396.61c-0.62,0.62 -1.26,1.21 -1.93,1.76 -15,-7.53 -27.56,-18.77 -33.59,-30.08 -8.64,-16.16 -26.75,-22.25 -58.72,-19.74 -20.56,1.61 -34.77,-17.34 -35.37,-18.15 -0.4,-0.54 -0.28,-1.31 0.26,-1.71 0.54,-0.4 1.3,-0.29 1.71,0.26 0.13,0.19 14.01,18.66 33.21,17.15 33.08,-2.59 51.91,3.9 61.06,21.03 5.75,10.76 18.27,21.93 32.68,29.13 0.22,0.11 0.46,0.22 0.69,0.34z"/>
  <path class="fil3" d="M202.18 383.13l59.42 -16.08 0 -0.19c0.06,-6.39 -0.65,-12.75 -2.11,-18.97 -4.92,-20.99 -18.7,-73.31 -35.76,-83.05 -21.45,-12.24 -57.09,-9.65 -59.49,-36.22 -2.4,-26.57 -15.24,-60.79 -56.89,-55.64 -41.64,5.14 -90.03,-49.48 -90.03,-49.48 0,0 0.58,54.45 47.21,83.69 46.63,29.24 34.73,38.58 37.39,77.25 2.66,38.67 -0.48,61.13 62.13,74.29 16.98,3.57 29.25,12.82 38.12,24.4z"/>
  <path class="fil1" d="M129.32 235.17c10.23,48.3 27.43,72.44 55.73,78.28 17.78,3.67 38.99,16.84 55.34,34.38 5.16,5.54 10.76,12.44 15.88,20.67l3.66 -0.99c-5.42,-8.86 -11.39,-16.27 -16.88,-22.16 -17.1,-18.33 -38.5,-31.58 -57.26,-35.45 -26.7,-5.51 -43.02,-28.79 -52.91,-75.48 -6.36,-30.03 -39.39,-42.32 -40.79,-42.82 -0.94,-0.34 -1.98,0.15 -2.32,1.09 -0.34,0.94 0.15,1.98 1.09,2.33 0.33,0.11 32.54,12.13 38.48,40.17z"/>
  <path class="fil1" d="M924.58 629c-12.08,26.81 -39.86,22.17 -42.34,44.93 -2.47,22.75 -19.05,38.04 -38.07,31.24 -19.03,-6.81 -32.65,-12.88 -44.64,8.47 -11.98,21.35 -42,28.77 -50.87,9.44 -2.21,-4.81 -4.6,-10.03 -6.93,-15.14 -0.64,-1.4 -1.27,-2.79 -1.9,-4.16 -0.15,-0.32 -0.29,-0.63 -0.43,-0.95 -9.38,-20.57 -2.04,-45.16 17.44,-56.63 7.88,-4.65 16.84,-6.65 26.12,-2.49 29.07,12.99 22.28,-18.93 42.05,-29.37 11.63,-6.15 21.38,-4.14 30.26,-2.14 8.5,1.92 16.21,3.84 24.01,-1.41 22.18,-14.91 57.38,-8.6 45.29,18.21z"/>
  <path class="fil2" d="M886.83 636.2l-145.09 71.75c-0.64,-1.4 -1.27,-2.79 -1.9,-4.16l144.95 -71.68c1.13,-0.56 2.5,-0.1 3.06,1.03 0.56,1.13 0.1,2.5 -1.03,3.06z"/>
  <path class="fil3" d="M897.96 476.92c2.59,36.86 -30.91,48.27 -20.09,74.92 10.82,26.65 1.58,53.44 -23.52,57.24 -25.11,3.8 -43.79,5.19 -44.34,35.95 -0.54,30.76 -29.33,56.85 -50.66,40.74 -5.31,-4.01 -11.05,-8.36 -16.68,-12.63 -1.54,-1.17 -3.07,-2.33 -4.58,-3.47 -0.35,-0.26 -0.7,-0.53 -1.05,-0.79 -22.63,-17.17 -29.15,-48.75 -14.44,-73.05 5.96,-9.84 14.67,-17.38 27.41,-18.31 39.9,-2.94 13.37,-34.21 29.04,-57.54 18.04,-26.88 46.68,-14.89 57.94,-36.24 15.66,-29.7 58.36,-43.68 60.96,-6.82z"/>
  <path class="fil1" d="M860.48 507.36l-117.8 165.79c-1.54,-1.17 -3.07,-2.33 -4.58,-3.47l117.69 -165.64c0.92,-1.29 2.71,-1.6 4,-0.68 1.29,0.92 1.6,2.71 0.68,4z"/>
  <path class="fil1" d="M744.95 465.35c40.2,-24.98 80.72,-53.45 105.33,-75.46 32.16,-28.76 50.34,-54.61 54.06,-76.85 0.25,-1.47 -0.75,-2.87 -2.22,-3.12 -1.48,-0.25 -2.87,0.75 -3.12,2.23 -6.49,38.88 -61.63,90.79 -159.55,150.27l5.49 2.93z"/>
  <path class="fil3" d="M876.81 361.87c0,0 13.23,18.35 44.59,-6.17 0,0 -28.22,-22.35 -44.59,6.17z"/>
  <path class="fil3" d="M861.3 375.35c0,0 19.06,-12.19 -3.68,-44.86 0,0 -23.88,26.93 3.68,44.86z"/>
  <path class="fil3" d="M896.52 328.75c0,0 22.03,-5.14 11.49,-43.52 0,0 -31.5,17.43 -11.49,43.52z"/>
  <path class="fil3" d="M830.93 403.43c0,0 6.24,21.74 44.04,9.28 0,0 -18.99,-30.58 -44.04,-9.28z"/>
  <path class="fil3" d="M813.05 414.76c0,0 20.88,-8.71 4.13,-44.82 0,0 -28.18,22.39 -4.13,44.82z"/>
  <path class="fil3" d="M790.11 432.72c0,0 5.83,21.86 43.86,10.11 0,0 -18.41,-30.93 -43.86,-10.11z"/>
  <path class="fil1" d="M227.61 532.81c-44.92,-14.92 -90.96,-33.15 -120.02,-48.82 -37.98,-20.47 -61.69,-41.37 -70.49,-62.13 -0.58,-1.38 0.06,-2.96 1.44,-3.55 1.38,-0.58 2.97,0.06 3.55,1.44 15.38,36.29 81.11,73.92 190.19,108.93l-4.66 4.13z"/>
  <path class="fil3" d="M75.25 462.93c0,0 -8.58,20.93 -44.79,4.4 0,0 22.23,-28.31 44.79,-4.4z"/>
  <path class="fil3" d="M93.48 472.42c0,0 -21.38,-7.41 -6.88,-44.48 0,0 29.51,20.62 6.88,44.48z"/>
  <path class="fil3" d="M48.36 435.31c0,0 -22.62,0.14 -21.32,-39.64 0,0 34.69,9.6 21.32,39.64z"/>
  <path class="fil3" d="M129.56 492.64c0,0 -1,22.6 -40.67,19.29 0,0 11.34,-34.16 40.67,-19.29z"/>
  <path class="fil3" d="M149.59 499.49c0,0 -22.34,-3.6 -14.47,-42.62 0,0 32.63,15.2 14.47,42.62z"/>
  <path class="fil3" d="M176.09 511.61c0,0 -0.57,22.62 -40.3,20.06 0,0 10.69,-34.37 40.3,-20.06z"/>
  <path class="fil4" d="M777.24 775.97l-602.51 0 0 -566.25 574 0 0 539.65 0.07 0.06c1.02,14.83 13.37,26.54 28.45,26.54z"/>
  <path class="fil5" d="M805.76 209.72l0 537.72c0,12.6 -8.17,23.3 -19.51,27.07 -2.83,0.95 -5.86,1.46 -9.02,1.46 -3.28,0 -6.43,-0.56 -9.36,-1.58 -1.98,-0.68 -3.86,-1.59 -5.61,-2.67 -1.56,-0.96 -3.01,-2.07 -4.35,-3.3 -5.66,-5.21 -9.2,-12.68 -9.2,-20.98l0 -537.72 57.04 0z"/>
  <path class="fil6" d="M777.24 775.97c-0.04,0 -0.07,0 -0.11,0 -0.02,0 -0.03,0 -0.05,0 -0.01,0 -0.03,0 -0.04,0 -0.01,-0 -0.03,-0 -0.04,-0 -0.02,0 -0.03,0 -0.04,0 -0.01,0 -0.02,0 -0.04,0 -0.02,0 -0.03,0 -0.05,0 -0.01,0 -0.02,0 -0.02,0 -3.13,-0.04 -6.15,-0.6 -8.96,-1.57l0.1 -0.03c0.04,-0.02 0.09,-0.03 0.14,-0.05 3.38,-1.21 6.47,-3.05 9.12,-5.36 6,-5.23 9.79,-12.93 9.79,-21.51l0 -537.72 -19.91 0 28.52 0 0 551.34c0,5.93 -3.67,11.32 -9.26,13.29l-0.11 0.03 -0.02 0.12 0 0c-2.83,0.95 -5.86,1.46 -9.02,1.46zm-9.36 -1.58c-0.52,-0.18 -1.02,-0.37 -1.52,-0.58 0.5,0.21 1.01,0.4 1.52,0.58z"/>
  <path class="fil5" d="M787.03 209.72l0 537.72c0,8.58 -3.79,16.28 -9.79,21.51 -2.71,2.37 -5.88,4.23 -9.36,5.44 -3.74,-1.29 -7.11,-3.34 -9.96,-5.97 -5.66,-5.21 -9.2,-12.68 -9.2,-20.98l0 -537.72 38.31 0z"/>
  <path class="fil7" d="M767.88 774.39l0 0c0.08,-0.03 0.16,-0.05 0.24,-0.08 -0.05,0.02 -0.09,0.03 -0.14,0.05l-0.1 0.03z"/>
  <path class="fil6" d="M767.88 774.39c-1.37,-0.47 -2.69,-1.05 -3.95,-1.71 -0.02,-0.01 -0.03,-0.02 -0.05,-0.03 -0,-0 -0.01,-0.01 -0.01,-0.01 -0.43,-0.23 -0.86,-0.47 -1.28,-0.72 -0.01,-0.01 -0.01,-0.01 -0.02,-0.01 -0.02,-0.01 -0.03,-0.02 -0.05,-0.03 -1.65,-1 -3.19,-2.16 -4.6,-3.46 5.66,-5.21 9.2,-12.68 9.2,-20.98l0 -537.72 -18.4 0 0 537.72 0 -537.72 28.52 0 0 551.35c0,5.88 -3.6,11.23 -9.12,13.24 -0.08,0.03 -0.16,0.06 -0.24,0.08l0 0zm-10.43 -6.42c-4.94,-4.75 -8.16,-11.27 -8.66,-18.53 0.47,6.83 3.35,13 7.8,17.67l0 0c0.28,0.3 0.56,0.59 0.86,0.87zm-8.66 -18.54c0,-0.01 0,-0.03 -0,-0.04 0,0.01 0,0.03 0,0.04zm-0 -0.05c0,-0.01 -0,-0.03 -0,-0.04 0,0.01 0,0.02 0,0.04zm-0 -0.05c-0,-0.01 -0,-0.02 -0,-0.04 0,0.01 0,0.02 0,0.04zm-0 -0.05c0,-0.01 0,-0.02 -0,-0.04 0,0.01 0,0.03 0,0.04zm-0 -0.04c0,-0.01 -0,-0.03 -0,-0.04 0,0.01 0,0.03 0,0.04zm-0 -0.04c-0,-0.02 -0,-0.03 -0,-0.04 0,0.02 0,0.03 0,0.04zm-0 -0.05c-0,-0.05 -0.01,-0.11 -0.01,-0.16 0,0.05 0.01,0.11 0.01,0.16zm-0.01 -0.17c0,-0.01 -0,-0.02 -0,-0.03 0,0.01 0,0.02 0,0.03zm-0 -0.04c0,-0.01 -0,-0.02 -0,-0.03 0,0.01 0,0.02 0,0.03zm-0 -0.05c0,-0.01 -0,-0.02 -0,-0.03 0,0.01 0,0.02 0,0.03zm-0 -0.05c0,-0.01 -0,-0.02 -0,-0.03 0,0.01 0,0.02 0,0.03zm-0 -0.05c0,-0.01 -0,-0.02 -0,-0.03 0,0.01 0,0.02 0,0.03zm-0 -0.04c0,-0.01 -0,-0.02 -0,-0.03 0,0.01 0,0.02 0,0.03zm-0 -0.05c0,-0.01 -0,-0.02 -0,-0.03 0,0.01 0,0.02 0,0.03zm-0 -0.05c0,-0.01 0,-0.02 -0,-0.03 0,0.01 0,0.02 0,0.03zm-0 -0.05c0,-0.01 0,-0.02 0,-0.03 0,0.01 0,0.02 0,0.03zm-0 -0.04c0,-0.03 -0,-0.07 -0,-0.1 0,0.03 0,0.07 0,0.1zm-0 -0.12c0,-0.01 0,-0.02 0,-0.02 0,0.01 0,0.02 0,0.02zm-0 -0.05c0,-0.01 0,-0.02 0,-0.02 0,0.01 0,0.02 0,0.02zm0 -0.05c0,-0.01 0,-0.02 -0,-0.02 0,0.01 0,0.02 0,0.02zm-0 -0.05c0,-0.01 0,-0.02 0,-0.02 0,0.01 0,0.02 0,0.02zm-0 -0.05c0,-0.01 0,-0.02 0,-0.02 0,0.01 0,0.02 0,0.02zm0 -0.05c0,-0.01 0,-0.01 0,-0.02 0,0.01 0,0.01 0,0.02zm-0 -0.05c0,-0.01 0,-0.02 0,-0.02 0,0.01 0,0.01 0,0.02zm0 -0.05c0,-0.01 0,-0.01 0,-0.02 0,0.01 0,0.01 0,0.02zm-0 -0.05c0,-0.01 0,-0.01 0,-0.02 0,0.01 0,0.01 0,0.02zm0 -0.06c0,-0 0,-0.01 0,-0.01 0,0 0,0.01 0,0.01zm-0 -0.05c0,-0.01 0,-0.02 0,-0.03 0,0.01 0,0.02 0,0.03zm0 -0.06c0,-0 0,-0.01 0,-0.02 0,0 0,0.01 0,0.02zm0 -0.05c-0,-0.01 -0,-0.01 -0,-0.02 0,0.01 0,0.01 0,0.02zm-0 -0.05c0,-0.01 0,-0.02 0,-0.02 0,0.01 0,0.01 0,0.02zm0 -0.05c0,-0.01 0,-0.02 0,-0.02 0,0.01 0,0.02 0,0.02zm0 -0.05c0,-0.01 0,-0.01 0,-0.02 0,0.01 0,0.02 0,0.02zm-0 -0.05c0,-0.01 0,-0.02 0,-0.02 0,0.01 0,0.01 0,0.02zm0 -0.05c0,-0.01 0,-0.02 0,-0.02 0,0.01 0,0.02 0,0.02zm0 -0.05c0,-0.01 0,-0.01 0,-0.02 0,0.01 0,0.01 0,0.02zm0 -0.05c0,-0 0,-0.01 0,-0.02 0,0.01 0,0.01 0,0.02zm0 -0.05c0,-0.01 0,-0.01 0,-0.02 0,0.01 0,0.01 0,0.02z"/>
  <path class="fil5" d="M767.12 209.72l0 537.72c0,8.3 -3.54,15.77 -9.2,20.98 -0.46,-0.42 -0.9,-0.86 -1.33,-1.32 -4.88,-5.11 -7.87,-12.04 -7.87,-19.66l0 -537.72 18.4 0z"/>
  <path class="fil6" d="M756.59 767.1l0 0c-4.88,-5.11 -7.87,-12.04 -7.87,-19.66l0 -537.72 9.2 0 0 551.34c0,2.12 -0.47,4.18 -1.33,6.04z"/>
  <path class="fil8" d="M202.83 391.74l0 0c0,3.37 2.73,6.1 6.1,6.1l268.04 0c3.37,0 6.1,-2.73 6.1,-6.1 0,-3.37 -2.73,-6.1 -6.1,-6.1l-268.04 0c-3.37,0 -6.1,2.73 -6.1,6.1z"/>
  <path class="fil8" d="M202.83 418.15l0 0c0,3.37 2.73,6.1 6.1,6.1l268.04 0c3.37,0 6.1,-2.73 6.1,-6.1 0,-3.37 -2.73,-6.1 -6.1,-6.1l-268.04 0c-3.37,0 -6.1,2.73 -6.1,6.1z"/>
  <path class="fil8" d="M202.83 444.56l0 0c0,3.37 2.73,6.09 6.1,6.09l268.04 0c3.37,0 6.1,-2.73 6.1,-6.09 0,-3.37 -2.73,-6.1 -6.1,-6.1l-268.04 0c-3.37,0 -6.1,2.73 -6.1,6.1z"/>
  <path class="fil8" d="M711.46 565.09l-198.73 0c-3.36,0 -6.24,2.63 -6.3,5.98 -0.06,3.42 2.69,6.21 6.1,6.21l198.93 0c3.37,0 6.1,-2.73 6.1,-6.09l0 -0c0,-3.37 -2.73,-6.1 -6.1,-6.1z"/>
  <path class="fil8" d="M711.46 591.5l-198.73 0c-3.36,0 -6.24,2.62 -6.3,5.98 -0.06,3.42 2.69,6.21 6.1,6.21l198.93 0c3.37,0 6.1,-2.73 6.1,-6.1 0,-3.37 -2.73,-6.09 -6.1,-6.09z"/>
  <path class="fil8" d="M711.46 617.91l-198.73 0c-3.36,0 -6.24,2.62 -6.3,5.98 -0.06,3.42 2.69,6.21 6.1,6.21l198.93 0c3.37,0 6.1,-2.73 6.1,-6.1 0,-3.37 -2.73,-6.09 -6.1,-6.09z"/>
  <path class="fil8" d="M711.46 692.52l-198.73 0c-3.36,0 -6.24,2.62 -6.3,5.98 -0.06,3.42 2.69,6.21 6.1,6.21l198.93 0c3.37,0 6.1,-2.73 6.1,-6.1 0,-3.37 -2.73,-6.09 -6.1,-6.09z"/>
  <path class="fil8" d="M711.46 718.93l-198.73 0c-3.36,0 -6.24,2.62 -6.3,5.98 -0.06,3.42 2.69,6.21 6.1,6.21l198.93 0c3.37,0 6.1,-2.73 6.1,-6.1 0,-3.37 -2.73,-6.09 -6.1,-6.09z"/>
  <path class="fil8" d="M711.46 745.34l-198.73 0c-3.36,0 -6.24,2.63 -6.3,5.98 -0.06,3.42 2.69,6.21 6.1,6.21l198.93 0c3.37,0 6.1,-2.73 6.1,-6.1 0,-3.36 -2.73,-6.09 -6.1,-6.09z"/>
  <path class="fil8" d="M202.83 481.21l0 0c0,3.37 2.73,6.1 6.1,6.1l268.04 0c3.37,0 6.1,-2.73 6.1,-6.1 0,-3.37 -2.73,-6.1 -6.1,-6.1l-268.04 0c-3.37,0 -6.1,2.73 -6.1,6.1z"/>
  <path class="fil8" d="M202.83 507.62l0 0c0,3.37 2.73,6.1 6.1,6.1l268.04 0c3.37,0 6.1,-2.73 6.1,-6.1 0,-3.37 -2.73,-6.09 -6.1,-6.09l-268.04 0c-3.37,0 -6.1,2.73 -6.1,6.09z"/>
  <path class="fil8" d="M202.83 534.03l0 0c0,3.37 2.73,6.1 6.1,6.1l268.04 0c3.37,0 6.1,-2.73 6.1,-6.1 0,-3.37 -2.73,-6.1 -6.1,-6.1l-268.04 0c-3.37,0 -6.1,2.73 -6.1,6.1z"/>
  <path class="fil8" d="M483.07 572.92l0 181.72c0,1.59 -1.3,2.88 -2.89,2.88l-274.43 0c-1.59,0 -2.88,-1.29 -2.88,-2.88l0 -181.72c0,-1.59 1.29,-2.89 2.88,-2.89l274.43 0c1.59,0 2.89,1.3 2.89,2.89z"/>
  <path class="fil9" d="M248.82 324.34c23.82,0 37.94,-13.64 37.94,-38.3l0 -46.91 -19.15 0 0 46.2c0,15.92 -6.82,22.5 -18.67,22.5 -11.73,0 -18.67,-6.58 -18.67,-22.5l0 -46.2 -19.39 0 0 46.91c0,24.65 14.12,38.3 37.94,38.3z"/>
  <polygon id="1" class="fil9" points="363.59,239.13 363.59,289.99 321.94,239.13 305.9,239.13 305.9,322.9 325.05,322.9 325.05,272.04 366.82,322.9 382.74,322.9 382.74,239.13 "/>
  <path id="2" class="fil9" d="M430.13 324.34c23.94,0 35.54,-11.97 35.54,-25.95 0,-30.76 -48.71,-20.09 -48.71,-35.54 0,-5.29 4.43,-9.59 15.92,-9.59 7.42,0 15.44,2.15 23.22,6.58l5.98 -14.72c-7.78,-4.91 -18.55,-7.42 -29.08,-7.42 -23.82,0 -35.3,11.85 -35.3,26.11 0,31.12 48.71,20.35 48.71,36.02 0,5.13 -4.67,8.96 -16.16,8.96 -10.05,0 -20.58,-3.59 -27.65,-8.72l-6.58 14.58c7.42,5.74 20.82,9.69 34.11,9.69z"/>
  <path id="3" class="fil9" d="M541.55 322.9l20.35 0 -37.46 -83.77 -19.15 0 -37.34 83.77 19.87 0 7.42 -17.95 38.9 0 7.42 17.95zm-40.09 -32.67l13.28 -32.07 13.28 32.07 -26.57 0z"/>
  <path class="fil8" d="M710.42 322.23l-129.47 0c-4.02,0 -7.28,-3.26 -7.28,-7.27l0 -54.22c0,-4.02 3.26,-7.28 7.28,-7.28l129.47 0c4.02,0 7.28,3.26 7.28,7.28l0 54.22c0,4.02 -3.26,7.27 -7.28,7.27z"/>
  <polygon class="fil3" points="202.86,356.86 717.69,356.86 717.69,339.65 202.86,339.65 "/>
  <polygon class="fil3" points="506.42,672.39 717.55,672.39 717.55,655.18 506.42,655.18 "/>
  <polygon class="fil10" points="506.42,539.62 717.69,539.62 717.69,388.42 506.42,388.42 "/>
  <path class="fil11" d="M628.75 492.61c-23.17,0 -41.96,-18.78 -41.96,-41.96 0,-23.17 18.79,-41.96 41.96,-41.96 23.17,0 41.96,18.79 41.96,41.96 0,23.18 -18.79,41.96 -41.96,41.96z"/>
  <polygon class="fil12" points="717.69,499.61 707.41,482.31 673.39,425.01 605.34,539.62 717.69,539.62 "/>
  <polygon class="fil9" points="591.26,539.62 506.42,539.62 548.84,471.27 591.26,402.92 633.67,471.27 676.09,539.62 "/>
  <polygon class="fil4" points="563.76,447.23 591.26,467.82 618.76,447.23 591.26,402.92 "/>
  <polygon class="fil4" points="650.23,464.02 673.39,482.31 696.55,464.02 673.39,425.01 "/>
  <path class="fil0" d="M852.75 838.15c0,7.99 -53.77,14.46 -120.1,14.46 -66.33,0 -120.1,-6.47 -120.1,-14.46 0,-7.99 53.77,-14.46 120.1,-14.46 66.33,0 120.1,6.47 120.1,14.46z"/>
  <path class="fil1" d="M824.53 838.96l-91.87 0c0,-4.72 1.91,-8.98 5,-12.06 3.09,-3.1 7.35,-5 12.06,-5l0.16 0c0,0 19.5,-2.54 19.5,-18.47l0 -95.02 18.43 0 0 95.02c0,15.93 19.5,18.47 19.5,18.47l0.16 0c9.42,0 17.06,7.64 17.06,17.07z"/>
  <polygon class="fil2" points="787.81,708.4 787.81,712.18 769.38,717.65 769.38,708.4 "/>
  <path class="fil3" d="M866.95 708.4l-176.71 0c2.92,-16.12 16.98,-27.84 33.37,-27.79l54.98 0.15 54.98 -0.15c16.39,-0.05 30.45,11.67 33.38,27.79z"/>
  <path class="fil13" d="M741.04 501.92c-4.61,17.03 -27.85,61.41 -36.87,67.77 -11.74,8.28 -48.56,23.82 -67.71,31.74 -3.45,1.43 9.36,16.55 9.36,16.55 0,0 49.53,-12.59 69.71,-25.48 5.71,-3.64 18.08,-16.02 33.73,-40.82 4.75,-7.52 15.74,-22.47 16.96,-33.14 1.41,-12.29 -12.44,-20.74 -25.17,-16.63z"/>
  <path class="fil14" d="M685.69 797.48l0.64 18.53c0,0 -4.58,3.4 -14.05,1.71l-3.87 -19.93 17.29 -0.31z"/>
  <path class="fil13" d="M674.29 815.3c0,0 -3.23,-4.47 -5.85,-4.32 -2.62,0.15 -23.01,15.89 -29.94,17.12 -6.93,1.23 -6.58,9.84 -3.86,10.82 3.1,1.12 54.32,0.15 54.32,0.15 0,0 1.94,-18.22 0.26,-23.15 -1.69,-4.92 -9.54,0.61 -14.93,-0.63z"/>
  <path class="fil4" d="M662.98 826.33c0.24,0.08 0.52,0.06 0.76,-0.08 0.47,-0.26 0.64,-0.84 0.38,-1.31 -0.08,-0.15 -2.14,-3.85 -4.96,-5.32 -3.75,-1.97 -6.72,0.13 -6.85,0.22 -0.43,0.31 -0.53,0.92 -0.22,1.35 0.31,0.43 0.92,0.53 1.35,0.22 0.09,-0.06 2.16,-1.47 4.83,-0.07 2.3,1.2 4.15,4.51 4.16,4.54 0.13,0.22 0.33,0.38 0.56,0.45z"/>
  <path class="fil4" d="M665.9 823.65c0.24,0.08 0.52,0.06 0.76,-0.08 0.47,-0.26 0.64,-0.85 0.38,-1.31 -0.09,-0.16 -2.14,-3.85 -4.96,-5.33 -3.75,-1.96 -6.73,0.13 -6.85,0.22 -0.44,0.31 -0.53,0.92 -0.22,1.35 0.31,0.43 0.92,0.53 1.35,0.22 0.08,-0.06 2.15,-1.47 4.82,-0.08 2.31,1.21 4.14,4.51 4.16,4.54 0.13,0.23 0.33,0.39 0.56,0.46z"/>
  <path class="fil4" d="M659.04 828.49c0.24,0.08 0.52,0.06 0.76,-0.08 0.47,-0.26 0.64,-0.85 0.38,-1.31 -0.08,-0.16 -2.14,-3.85 -4.96,-5.32 -3.75,-1.96 -6.73,0.13 -6.85,0.22 -0.43,0.31 -0.53,0.91 -0.22,1.35 0.31,0.43 0.92,0.53 1.35,0.22 0.08,-0.05 2.15,-1.47 4.83,-0.07 2.3,1.21 4.14,4.51 4.16,4.54 0.12,0.23 0.33,0.39 0.56,0.46z"/>
  <path class="fil12" d="M734.14 639.51c0,0 -71.73,-11.83 -93.27,1.66 -16.33,10.23 25.74,161.29 25.74,161.29 7.49,2.33 17.9,-0.92 21.97,-4.98 0,0 6.62,-17.83 0.54,-69.41 -0.81,-6.85 0,-22.49 -7.3,-50.18l54.6 -24.1 -2.28 -14.27z"/>
  <path class="fil15" d="M798.01 480.2c0,0 19.87,6.49 30.5,15.82 10.63,9.33 1.74,37.17 2,52.98 0.26,15.81 -2.35,107.59 -25,119.13 -17.11,8.71 -89.1,-4.51 -83.84,-27.98 3.5,-15.61 10.14,-44.29 14.75,-83.1 3.04,-25.6 1.76,-44.51 4.61,-55.13 2.85,-10.63 36.12,-22.81 36.12,-22.81l20.85 1.09z"/>
  <path class="fil4" d="M776.1 479.51c-3.42,0.54 -6.65,2.07 -9.79,4.09 0,0 -0.24,10.96 4.89,16.29l14.1 -9.33 -9.21 -11.05z"/>
  <path class="fil4" d="M798.6 480.4c3.45,0.3 6.08,1.47 8.18,3.2 0,0 0.24,10.96 -4.89,16.29l-14.1 -9.33 10.82 -10.16z"/>
  <path class="fil13" d="M777.7 513.63c10.18,1.97 21.66,-7.02 22.16,-7.42 0.32,-0.25 0.37,-0.71 0.12,-1.03 -0.25,-0.32 -0.71,-0.37 -1.03,-0.12 -0.12,0.09 -12.15,9.52 -21.84,6.93 -0.39,-0.11 -0.79,0.13 -0.89,0.52 -0.1,0.39 0.13,0.79 0.52,0.9 0.32,0.09 0.65,0.16 0.97,0.22z"/>
  <path class="fil13" d="M792.16 623.02c0.37,0 0.68,-0.27 0.73,-0.65 0.05,-0.4 -0.24,-0.76 -0.64,-0.81 -26.77,-3.08 -37.87,-49.43 -37.97,-49.9 -0.09,-0.39 -0.49,-0.64 -0.88,-0.55 -0.39,0.09 -0.64,0.49 -0.55,0.88 0.45,1.95 11.44,47.82 39.24,51.02l0.08 0z"/>
  <path class="fil13" d="M781.5 608.99c0.25,0 0.48,-0.12 0.62,-0.35 0.21,-0.35 0.11,-0.8 -0.24,-1.01 -14.24,-8.78 -16.36,-21.72 -16.38,-21.85 -0.06,-0.4 -0.43,-0.68 -0.83,-0.61 -0.4,0.06 -0.68,0.43 -0.61,0.83 0.08,0.56 2.21,13.73 17.06,22.88l0.38 0.11z"/>
  <path class="fil9" d="M751.72 437.11c2.82,15.95 18.04,26.6 33.99,23.78 15.95,-2.82 25.05,-17.86 22.23,-33.81 -2.82,-15.95 -16.49,-26.78 -32.45,-23.96 -15.95,2.82 -26.6,18.04 -23.78,33.99z"/>
  <path class="fil9" d="M753.07 426.93c0,0 -13.11,-5.12 -9.83,-11.64 2.09,-4.17 6.86,-1.72 8.97,-8 2.1,-6.27 10.85,-7.31 18.3,-7.12 6.79,0.18 9.08,-2.99 19.1,-1.5 10.02,1.5 14.51,9.35 10.02,14.97 -4.49,5.61 -46.56,13.28 -46.56,13.28z"/>
  <path class="fil16" d="M758 444.34c0,0 -5.65,-5.29 -8.16,0.35 -2.51,5.65 4.93,19.69 12.62,14.59l-4.46 -14.94z"/>
  <path class="fil17" d="M759.83 454.99c-0.31,0.05 -0.63,-0.1 -0.77,-0.39 -2.1,-4.37 -7.2,-5.39 -7.25,-5.4 -0.39,-0.08 -0.64,-0.45 -0.57,-0.84 0.07,-0.39 0.45,-0.64 0.83,-0.57 0.24,0.05 5.85,1.15 8.27,6.19 0.17,0.36 0.02,0.78 -0.34,0.95l-0.18 0.06z"/>
  <path class="fil17" d="M754.61 453.53l-0.4 -0.05c-0.36,-0.15 -0.54,-0.57 -0.38,-0.93 0.02,-0.06 0.64,-1.5 2.27,-2.6 0.32,-0.22 0.77,-0.14 0.99,0.19 0.22,0.33 0.13,0.77 -0.19,0.99 -1.26,0.85 -1.75,1.96 -1.75,1.97 -0.1,0.24 -0.3,0.39 -0.54,0.43z"/>
  <path class="fil14" d="M796.12 466.36l2.62 14.82c0,0 -4.94,7.61 -10.82,9.18 -5.88,1.58 -10.76,-4.87 -10.76,-4.87l-2.52 -14.25 21.48 -4.87z"/>
  <path class="fil16" d="M796.12 466.36l1.16 6.58c-3.22,5.16 -10.15,7.53 -20.96,7.83l-1.69 -9.54 21.48 -4.87z"/>
  <path class="fil14" d="M806.4 444.6c-0.02,1.48 -0.09,2.89 -0.22,4.16 -0.14,1.26 -0.3,2.63 -0.54,4.06 -1.87,11.55 -7.7,27.08 -28.36,23.57 -10.25,-1.73 -16.62,-11.69 -20.54,-22.26 -0.94,-2.54 -1.74,-5.11 -2.42,-7.62 -1.24,-4.58 -2.07,-8.92 -2.62,-12.39 -0.86,-5.49 1.24,-11.02 5.52,-14.56 11.6,-9.58 25.68,-9.26 35.24,-7.41 6.64,1.29 11.69,6.69 12.55,13.38 0.74,5.81 1.47,13.11 1.38,19.06z"/>
  <path class="fil9" d="M794.41 459.74c1.44,2.15 0.76,5.04 -1.31,6.58 -4.75,3.54 -10.81,4.42 -14.15,4.19 -1.95,-0.14 -3.76,-0.53 -5.7,-1.29 -3.28,-1.29 -3.74,-5.78 -0.73,-7.6 1.91,-1.16 4.95,-1.97 9.73,-2.05 7.47,-3.15 10.75,-1.92 12.16,0.18zm9.14 -20.33l-3.73 1.18c0,0 1.18,7.8 -0.16,13.72 -5.01,-4.63 -19.11,2.69 -19.11,2.69 0,0 -14.96,-1.34 -16.98,4.09 -2.25,-2.95 -4.66,-9.65 -6.29,-14.26l-2.97 -0.31c0.68,2.5 1.48,5.08 2.42,7.62 3.92,10.57 10.29,20.53 20.54,22.26 20.66,3.51 26.49,-12.02 28.36,-23.57 -0.84,-6.71 -2.09,-13.42 -2.09,-13.42z"/>
  <path class="fil9" d="M769.32 444.33c0.28,1.58 -0.31,3.01 -1.31,3.19 -1.01,0.18 -2.05,-0.96 -2.33,-2.54 -0.28,-1.58 0.31,-3.01 1.31,-3.19 1,-0.18 2.05,0.96 2.33,2.54z"/>
  <path class="fil9" d="M790.64 440.56c0.28,1.58 -0.31,3.01 -1.32,3.18 -1.01,0.18 -2.05,-0.96 -2.33,-2.54 -0.28,-1.58 0.31,-3.01 1.31,-3.19 1.01,-0.18 2.05,0.96 2.33,2.54z"/>
  <path class="fil9" d="M760.02 436.91c0,0 7.05,-4.33 13.33,-2.85l-0.01 2.8c0,0 -6.57,-0.29 -12.35,3.11 -0.61,-1.18 -1.24,-1.68 -0.98,-3.06z"/>
  <path class="fil9" d="M794.7 430.78c0,0 -8.11,-1.66 -13.5,1.9l0.96 2.62c0,0 6.07,-2.53 12.67,-1.31 0.17,-1.32 0.58,-2.01 -0.13,-3.2z"/>
  <path class="fil16" d="M781.4 453.82c1.19,-0.21 2.29,-0.88 2.45,-0.99 0.33,-0.21 0.43,-0.65 0.22,-0.98 -0.21,-0.33 -0.65,-0.44 -0.98,-0.22 -0.59,0.37 -2.04,1.05 -2.78,0.77 -0.14,-0.05 -0.34,-0.18 -0.46,-0.59 -0.69,-2.41 -1.47,-10.77 -1.48,-10.85 -0.04,-0.39 -0.39,-0.68 -0.78,-0.65 -0.39,0.04 -0.68,0.38 -0.64,0.78 0.03,0.35 0.8,8.58 1.53,11.12 0.27,0.95 0.87,1.36 1.33,1.54 0.5,0.19 1.06,0.19 1.6,0.09z"/>
  <path class="fil4" d="M773.31 462.26c1.09,2.8 3.94,7.78 10.38,6.64 6.46,-1.14 7.41,-6.33 7.44,-9.79l-17.82 3.15z"/>
  <path class="fil9" d="M758.11 449.16c-1.04,-2.81 -2.23,-6.46 -2.19,-8.45 0.08,-3.52 2.54,-6.02 1.03,-9.13 -1.52,-3.13 1.32,-7.26 3.77,-8.29 2.44,-1.04 8.63,-0.83 14,-4.65 5.13,-3.65 15.2,-3.47 17.42,-0.16 2.69,4.01 0.15,4.89 6.22,8.66 2.42,1.51 0.8,6.81 1.01,10.05 0.1,1.48 0.2,2.2 0.54,3.76l0.16 0.79 6.27 -1.11c-0.18,-5.04 -0.74,-10.52 -1.33,-15.09 -0.85,-6.69 -5.91,-12.09 -12.55,-13.38 -9.56,-1.86 -23.64,-2.18 -35.24,7.41 -4.28,3.54 -6.38,9.06 -5.52,14.55 0.67,4.26 1.77,9.84 3.53,15.55l2.87 -0.51z"/>
  <path class="fil14" d="M804.04 443.83c-0.31,-1.63 -0.48,-3.3 -0.48,-4.96 0,-2.28 0.29,-4.39 2.39,-5.71 1.69,-1.06 3.62,-1.42 5.37,0.39 4.29,4.44 3.28,20.81 -5.69,18.65l-1.58 -8.36z"/>
  <path class="fil16" d="M806.42 447.33c0.29,-0.11 0.48,-0.41 0.45,-0.74 -0.48,-4.83 3.34,-8.35 3.38,-8.38 0.29,-0.27 0.31,-0.72 0.05,-1.01 -0.26,-0.29 -0.72,-0.32 -1.01,-0.05 -0.18,0.16 -4.4,4.03 -3.85,9.59 0.04,0.39 0.39,0.68 0.78,0.64l0.19 -0.05z"/>
  <path class="fil16" d="M810.12 443.37l0.32 -0.25c0.23,-0.32 0.16,-0.77 -0.16,-1 -0.05,-0.04 -1.32,-0.94 -3.28,-1.04 -0.39,-0.02 -0.73,0.29 -0.75,0.68 -0.02,0.39 0.28,0.73 0.68,0.75 1.52,0.07 2.51,0.76 2.52,0.77 0.2,0.15 0.46,0.17 0.68,0.09z"/>
  <path class="fil9" d="M781.98 439.38c-0.21,-1.03 0.45,-2.02 1.48,-2.23l11.14 -2.27c1.02,-0.21 2.02,0.45 2.23,1.47l0.29 1.42c0.42,2.06 0.02,4.19 -1.1,5.84 -1.12,1.64 -2.56,2.67 -4.27,3.06l-0.27 0.05c-2.03,0.42 -4.11,0.02 -5.85,-1.13 -1.76,-1.16 -2.97,-2.94 -3.4,-5.01l-0.25 -1.2zm-1.31 0.27l0.25 1.2c0.5,2.43 1.91,4.51 3.98,5.87 2.04,1.34 4.47,1.8 6.85,1.32l0.29 -0.06c2.06,-0.47 3.77,-1.68 5.09,-3.62 1.32,-1.95 1.8,-4.45 1.31,-6.86l-0.29 -1.42c-0.08,-0.4 -0.23,-0.76 -0.44,-1.08 -0.25,-0.39 -0.57,-0.72 -0.95,-0.97 -0.69,-0.45 -1.55,-0.65 -2.43,-0.47l-11.14 2.27c-1.26,0.26 -2.2,1.21 -2.49,2.39 -0.11,0.43 -0.13,0.89 -0.05,1.34l0.01 0.08z"/>
  <path class="fil9" d="M759.67 443.94c-0.21,-1.02 0.46,-2.02 1.48,-2.23l11.14 -2.28c1.02,-0.21 2.02,0.45 2.23,1.48l0.29 1.42c0.42,2.06 0.02,4.19 -1.1,5.84 -1.12,1.64 -2.55,2.67 -4.27,3.06l-0.27 0.05c-2.03,0.42 -4.11,0.02 -5.85,-1.13 -1.77,-1.16 -2.98,-2.94 -3.4,-5.01l-0.25 -1.2zm-1.31 0.27l0.25 1.21c0.49,2.43 1.91,4.51 3.98,5.87 2.04,1.34 4.47,1.81 6.86,1.32l0.3 -0.06c2.05,-0.47 3.77,-1.68 5.08,-3.62 1.32,-1.95 1.8,-4.45 1.31,-6.86l-0.29 -1.42 -0.02 -0.06c-0.09,-0.43 -0.27,-0.82 -0.51,-1.16 -0.72,-1.02 -1.99,-1.56 -3.28,-1.3l-11.14 2.27c-0.98,0.2 -1.76,0.82 -2.2,1.64 -0.21,0.4 -0.34,0.84 -0.37,1.3 -0.03,0.29 -0.01,0.58 0.05,0.87z"/>
  <path class="fil9" d="M805.32 430.76c-3.82,0.61 -6.3,2.25 -7.26,3 -0.27,0.2 -0.96,0.89 -0.99,0.91l0.85 0.99c0.01,-0.01 0.77,-0.71 1.09,-0.93 0.95,-0.7 3.07,-2.16 6.57,-2.66l-0.27 -1.31z"/>
  <path class="fil9" d="M781.56 439.52l0.18 -1.33c-0.08,-0.01 -2.06,-0.27 -4.08,0.14 -2.15,0.44 -3.41,1.39 -3.46,1.43l0.82 1.07c0.01,-0.01 1.08,-0.8 2.92,-1.18 1.8,-0.37 3.62,-0.13 3.64,-0.13z"/>
  <path class="fil9" d="M753.07 441.77l0.27 1.32c2.77,-0.33 5.53,0.37 5.57,0.38l0.34 -1.3c-0.17,-0.05 -3.13,-0.79 -6.18,-0.4z"/>
  <path class="fil14" d="M725.87 797.48l0.64 18.53c0,0 -4.58,3.4 -14.05,1.71l-3.87 -19.93 17.29 -0.31z"/>
  <path class="fil15" d="M714.46 815.3c0,0 -3.23,-4.47 -5.85,-4.32 -2.62,0.15 -23.01,15.89 -29.94,17.12 -6.93,1.23 -6.58,9.84 -3.86,10.82 3.1,1.12 54.32,0.15 54.32,0.15 0,0 1.94,-18.22 0.26,-23.15 -1.69,-4.92 -9.54,0.61 -14.93,-0.63z"/>
  <path class="fil4" d="M703.16 826.33c0.24,0.08 0.52,0.06 0.76,-0.08 0.47,-0.26 0.64,-0.84 0.38,-1.31 -0.08,-0.15 -2.14,-3.85 -4.96,-5.32 -3.75,-1.97 -6.72,0.13 -6.85,0.22 -0.43,0.31 -0.53,0.92 -0.22,1.35 0.31,0.43 0.92,0.53 1.35,0.22 0.08,-0.06 2.15,-1.47 4.82,-0.07 2.3,1.2 4.14,4.51 4.16,4.54 0.13,0.22 0.33,0.38 0.56,0.45z"/>
  <path class="fil4" d="M706.08 823.65c0.24,0.08 0.52,0.06 0.76,-0.08 0.47,-0.26 0.64,-0.85 0.38,-1.31 -0.09,-0.16 -2.14,-3.85 -4.96,-5.33 -3.75,-1.96 -6.73,0.13 -6.85,0.22 -0.43,0.31 -0.53,0.92 -0.22,1.35 0.31,0.43 0.92,0.53 1.35,0.22 0.08,-0.06 2.15,-1.47 4.82,-0.08 2.31,1.21 4.14,4.51 4.16,4.54 0.13,0.23 0.33,0.39 0.56,0.46z"/>
  <path class="fil4" d="M699.22 828.49c0.24,0.08 0.52,0.06 0.76,-0.08 0.47,-0.26 0.64,-0.85 0.38,-1.31 -0.08,-0.16 -2.14,-3.85 -4.96,-5.32 -3.75,-1.96 -6.73,0.13 -6.85,0.22 -0.43,0.31 -0.53,0.91 -0.22,1.35 0.31,0.43 0.92,0.53 1.35,0.22 0.08,-0.05 2.15,-1.47 4.83,-0.07 2.31,1.21 4.14,4.51 4.16,4.54 0.12,0.23 0.33,0.39 0.56,0.46z"/>
  <path class="fil9" d="M820.69 641.24c0,0 -124.39,-6.84 -145.75,-0.07 -18.37,5.83 31.85,161.29 31.85,161.29 7.49,2.33 17.91,-0.92 21.97,-4.98 0,0 3.82,-9.28 -2.26,-60.86 -0.81,-6.86 -1.66,-28.22 -8.96,-55.91l82.52 0.42c17.68,0 23.27,-14.91 21.41,-32.49l-0.78 -7.4z"/>
  <path class="fil14" d="M700.85 603.1c0,0 -18.73,3.17 -26.54,9.69 -7.81,6.52 -18.28,12.13 -16.72,15.51 1.56,3.37 12.58,-3.78 12.58,-3.78 0,0 2.63,6.08 11.65,8.72 9.03,2.64 28.33,-12.88 28.33,-12.88l-9.31 -17.25z"/>
  <path class="fil13" d="M824.28 492.76c-10.45,15.84 -50.43,70.58 -59.45,76.94 -11.74,8.28 -44.59,25.49 -63.75,33.41 -3.45,1.43 7.67,17.71 7.67,17.71 0,0 47.25,-15.42 67.43,-28.3 5.71,-3.64 29.45,-27.42 44.58,-48.52 5.18,-7.22 13.62,-17.26 14.84,-27.94 1.41,-12.28 -2.46,-18.86 -11.33,-23.3z"/>
  <path class="fil12" d="M726.74 641.17l-93.88 0c-2.78,0 -5.04,-2.25 -5.04,-5.04l0 -3.47c0,-2.78 2.26,-5.04 5.04,-5.04l93.88 0c2.78,0 5.04,2.26 5.04,5.04l0 3.47c0,2.78 -2.26,5.04 -5.04,5.04z"/>
  <path class="fil9" d="M610.33 641.17l-21.15 -79.21c-1.19,-4.45 2.17,-8.81 6.77,-8.81l46.54 0c3.14,0 5.9,2.09 6.75,5.11l23.29 82.92 -62.2 0z"/>
  <path class="fil12" d="M649.25 558.25l23.1 82.24 5.32 0 -23.1 -82.24c-0.86,-3.02 -3.61,-5.11 -6.75,-5.11l-5.32 0c3.14,0 5.89,2.09 6.75,5.11z"/>
  <path class="fil18" d="M637.28 600.7c1.21,5.23 -2.05,9.46 -7.27,9.46 -5.22,0 -10.44,-4.24 -11.65,-9.46 -1.21,-5.22 2.05,-9.46 7.27,-9.46 5.22,0 10.44,4.24 11.65,9.46z"/>
  <path class="fil0" d="M480.34 824.82c0,9.97 -55.02,18.04 -122.9,18.04 -67.88,0 -122.9,-8.08 -122.9,-18.04 0,-9.97 55.02,-18.04 122.9,-18.04 67.87,0 122.9,8.08 122.9,18.04z"/>
  <path class="fil1" d="M229.99 678.6c-0.7,0 -1.27,0.54 -1.29,1.24 -0.48,13.54 0.98,38.6 16.22,54.4 8.28,8.57 19.93,13.49 34.7,14.65l22.64 -70.28 -72.27 0zm63.85 90.2l-7.15 0c-23.7,0 -42.5,-7.04 -55.9,-20.92 -20.28,-21.02 -22.31,-52.09 -21.72,-68.74 0.4,-11.31 9.6,-20.17 20.92,-20.17l99.23 0 -35.38 109.84z"/>
  <path class="fil1" d="M454.68 818.66l0 -205.1c0,-24.62 -182.2,-24.62 -182.2,0l0 205.1c0,18.68 182.2,18.68 182.2,0z"/>
  <path class="fil19" d="M364.28 657.39c-42.14,0 -73.22,-6 -91.79,-11l0 -11.92c17.33,4.89 48.72,11.48 91.79,11.48 41.82,0 72.67,-6.17 90.41,-11.01l0 11.89c-18.86,4.9 -49.48,10.55 -90.41,10.55z"/>
  <path class="fil9" d="M445.52 610.96c0,5.88 -36.68,10.65 -81.94,10.65 -45.25,0 -81.93,-4.77 -81.93,-10.65 0,-5.88 36.68,-10.65 81.93,-10.65 45.25,0 81.94,4.77 81.94,10.65z"/>
  <path class="fil14" d="M470.81 246.45c0.04,-1.18 -3.44,-3.53 -6.87,-5.55l0.19 -0.37c4.92,2.23 13.47,5.75 13.27,3.16 -0.13,-1.7 -7.36,-4.94 -11.76,-6.77 0.09,-0.24 0.17,-0.48 0.25,-0.72 5.28,2.1 15.66,5.87 15.28,2.94 -0.26,-1.95 -9.34,-5.35 -14.05,-6.98 0.06,-0.22 0.12,-0.43 0.18,-0.64 4.55,1.6 13.38,4.34 13,1.43 -0.34,-2.64 -14.18,-6.13 -14.18,-6.13l-5.01 -1.94c0,0 0.43,-1.81 4.43,-2.14 4,-0.33 6.33,-2.57 1.52,-3.4 -5.44,-0.94 -10.48,-0.09 -14.24,-0.86 -3.76,-0.78 -7.75,2.64 -7.75,2.64l-5.75 8.54c0,0 12.74,11.99 21.67,13.87 4.34,2.42 9.75,5 9.81,2.94z"/>
  <path class="fil13" d="M476.49 130.19l25.9 79.53 -21.57 -0.07 -15.58 -37.03c0,0 1.69,-37.33 11.26,-42.42z"/>
  <path class="fil14" d="M498.09 208.73c0,0 1.76,8.17 4.94,10.46 3.18,2.29 2.55,-9.1 2.55,-9.1 0,0 0.86,13.75 4.18,14.17 3.32,0.42 2.87,-12.96 2.87,-12.96 0,0 2,9.23 4.52,9.81 2.51,0.57 2.58,-9.22 2.58,-9.22 0,0 2.33,7.15 4.18,7.8 1.86,0.65 2.9,-7.6 1.91,-11.83 -0.98,-4.23 -6.26,-1.76 -6.26,-1.76 0,0 -4.93,-1.51 -6.67,0.17 0,0 -4.41,-2 -6.92,-0.79 0,0 -7.22,-2.21 -7.88,3.24z"/>
  <path class="fil15" d="M472.74 148.06c0.82,7.2 3.12,14.47 0.06,25.92 -0.97,3.63 -2.47,6.51 -5.29,11.49l-0.15 0.27 -0.26 0.46 -0.07 0.12 -0 0.01c-0.03,0.22 -0.05,0.44 -0.08,0.66 -0.03,0.28 -0.07,0.57 -0.1,0.85l-0 0.04c-0.42,2.95 -0.72,4.85 -0.93,6.15l-2.92 15.62 -62.08 0 0.33 -88.3 20.85 -1.85 0.01 0 1.8 -0.16 1.8 -0.16 0.21 -0.01 5.61 -0.51c0.5,-0.05 0.98,-0.08 1.48,-0.11 7.55,-0.47 15.12,0.71 22.21,3.44l0.24 0.09 3.12 1.21 0.01 0 0 0 0.18 0.07 2.21 0.85 0.85 0.33 14.67 5.66c-0.74,3.31 -3.08,14.55 -3.75,17.87z"/>
  <path class="fil13" d="M467.11 186.2l-0.07 0.12 -0 0.01c-0.03,0.22 -0.05,0.44 -0.08,0.66 -0.03,0.28 -0.07,0.57 -0.1,0.85l-0 0.04c-17.89,2.89 -37.12,-1.49 -38.38,-1.79 -0.4,-0.09 -0.65,-0.49 -0.56,-0.9 0.1,-0.4 0.5,-0.65 0.9,-0.56 0.31,0.07 20.21,4.61 38.3,1.58z"/>
  <path class="fil14" d="M461.82 124.53c-0.31,6.83 -2.46,16.37 -7.71,19.28 -8.54,4.73 -25.2,-10.6 -32.02,-24.32l0 -0.01 1.8 -0.15 1.79 -0.16 0.01 -0 0.21 -0.01 5.61 -0.51c0.5,-0.05 0.98,-0.08 1.48,-0.11 7.55,-0.47 15.12,0.71 22.21,3.44l0.24 0.09 3.12 1.21 0 0 0.01 0 0.18 0.07 2.21 0.85 0.85 0.33z"/>
  <path class="fil9" d="M428.86 94.79c-7.1,-3.35 -10.21,-11.75 -7.05,-18.94l0.09 -0.2c3.37,-7.75 8.13,-18.43 8.13,-18.43 10.58,-23.05 36,-17.87 36,-17.87 30.83,5.65 31.14,33.27 26.59,46.86 -0.31,0.93 -0.66,1.85 -1.04,2.77l-0.02 0.08c-0.56,1.71 -1.76,4.05 -3.29,6.79 -6.46,11.55 -20.64,16.35 -32.77,11.06 -8.94,-3.9 -17.81,-7.95 -26.64,-12.11z"/>
  <path class="fil9" d="M479.63 44.18c0,0 -5.92,-30.46 -35.01,-18.67 -29.08,11.78 -23.36,76.46 -50.18,73.63 0,0 8.54,12.83 26.83,7.03 18.29,-5.8 13.14,-70.96 58.35,-61.99z"/>
  <path class="fil16" d="M481.01 87.36c0,0 5.96,-3.97 7.66,1.47 1.7,5.44 -6.98,17.05 -13.63,11.37l5.97 -12.84z"/>
  <path class="fil4" d="M478.78 100.4c-0.25,0.77 0.17,1.61 0.95,1.86 0.77,0.25 1.61,-0.17 1.86,-0.95 0.25,-0.78 -0.17,-1.61 -0.95,-1.86 -0.77,-0.25 -1.61,0.17 -1.86,0.95z"/>
  <path class="fil17" d="M478.03 96.7c0.29,0.09 0.6,-0 0.77,-0.25 2.5,-3.64 7.43,-3.85 7.48,-3.85 0.37,-0.01 0.66,-0.31 0.63,-0.67 -0.02,-0.36 -0.35,-0.64 -0.72,-0.63 -0.23,0.01 -5.66,0.22 -8.54,4.41 -0.2,0.3 -0.11,0.7 0.2,0.91l0.17 0.08z"/>
  <path class="fil17" d="M483.13 96.12l0.38 0.02c0.36,-0.09 0.57,-0.44 0.47,-0.79 -0.02,-0.06 -0.43,-1.44 -1.83,-2.66 -0.28,-0.25 -0.71,-0.23 -0.96,0.03 -0.25,0.26 -0.22,0.67 0.06,0.92 1.08,0.94 1.41,2.01 1.42,2.02 0.07,0.22 0.24,0.39 0.46,0.46z"/>
  <path class="fil14" d="M439.6 104.09l-5.21 16.02c0,0 5.58,8.17 11.22,10.55 5.64,2.39 9.87,-3.8 9.87,-3.8l4.85 -14.91 -20.73 -7.86z"/>
  <path class="fil16" d="M439.09 105.66l-2.08 6.39c2.49,5.59 8.91,9.38 19.65,11.19l3.16 -9.72 -20.73 -7.86z"/>
  <path class="fil14" d="M481.57 94.27c-0.69,1.49 -1.42,2.99 -2.21,4.47 -5.23,9.82 -15.47,18.93 -24.41,18.11 -19.29,-1.77 -22.16,-18.3 -21.65,-29.65 0.06,-1.26 1.09,-2.39 1.28,-3.84 0.46,-3.44 0.35,-7.55 1.23,-11.28 0.61,-2.59 1.28,-5.12 1.9,-7.4 1.77,-6.43 7.33,-11.05 13.8,-11.46 9.33,-0.6 22.71,0.88 32.33,11.71 3.55,4 4.76,9.66 3.16,14.91 -1.22,4.01 -3.01,9.18 -5.42,14.43z"/>
  <path class="fil16" d="M457.03 95.2c-0.34,-0.11 -0.55,-0.45 -0.5,-0.8 0.06,-0.4 0.43,-0.68 0.83,-0.62l2.53 0.38 -0.44 -9.87c-0.02,-0.4 0.29,-0.75 0.7,-0.77 0.4,-0.02 0.75,0.3 0.77,0.7l0.52 11.65 -4.29 -0.64 -0.12 -0.03z"/>
  <path class="fil9" d="M480.36 74.47c5.98,5.49 1.04,13.11 2.05,18.06 0.06,0.32 0.21,0.42 0.42,0.34 2.48,-5.34 4.31,-10.62 5.55,-14.7 1.62,-5.35 0.3,-11.15 -3.47,-15.28 -10.21,-11.17 -24.29,-12.82 -34.09,-12.3 -6.79,0.35 -12.59,5.02 -14.38,11.58 -0.63,2.32 -1.3,4.91 -1.92,7.55 0.94,1.07 3.68,2.31 3.19,4.23 -1.3,5.06 -2.16,8.53 -1.03,8.57 1.91,0.06 4.94,-5.59 4.21,-10.11 0,0 2.45,-2.09 9.82,-2.49 9.45,-0.5 19.08,-2.67 19.08,-2.67 0,0 3.81,-0.88 5.72,-2.58 0,0 0.29,5.63 4.85,9.81z"/>
  <path class="fil9" d="M468.98 86.23c-0.5,1.54 -0.11,3.04 0.86,3.36 0.98,0.32 2.17,-0.67 2.68,-2.21 0.5,-1.53 0.11,-3.04 -0.86,-3.36 -0.98,-0.32 -2.18,0.67 -2.68,2.21z"/>
  <path class="fil9" d="M449.86 80.01c-0.5,1.54 -0.11,3.04 0.86,3.36 0.98,0.32 2.17,-0.67 2.68,-2.21 0.5,-1.54 0.11,-3.04 -0.86,-3.36 -0.98,-0.32 -2.18,0.67 -2.68,2.21z"/>
  <path class="fil9" d="M477.89 81.05c-1.33,-0.74 -4.06,-2.13 -7.16,-3.02 -0.82,-0.23 -1.66,0.17 -1.76,0.84l-0 0.02c-0.08,0.54 0.36,1.07 1.02,1.23 2.14,0.52 7.59,2.33 9.89,3.92 0.19,-0.35 0.07,-0.82 -0.18,-1.28 -0.37,-0.7 -1.03,-1.27 -1.81,-1.7z"/>
  <path class="fil9" d="M449.33 72.13c1.52,0.17 4.55,0.6 7.59,1.66 0.8,0.28 1.26,1.09 0.95,1.7l-0.01 0.02c-0.25,0.49 -0.91,0.66 -1.54,0.41 -2.05,-0.81 -7.55,-2.48 -10.34,-2.51 0.04,-0.39 0.41,-0.71 0.88,-0.94 0.71,-0.35 1.58,-0.44 2.46,-0.35z"/>
  <path class="fil4" d="M463.41 101.87c-1.31,2.28 -4.5,6.22 -10.29,4.34 -5.8,-1.89 -6.1,-6.53 -5.73,-9.55l16.02 5.21z"/>
  <path class="fil16" d="M451.84 110.44c1.67,0.54 3.44,0.12 3.52,0.1 0.39,-0.09 0.62,-0.48 0.53,-0.87 -0.09,-0.39 -0.48,-0.62 -0.87,-0.53 -0.02,0 -1.46,0.34 -2.73,-0.07 -1.38,-0.45 -2.38,-1.58 -2.39,-1.59 -0.26,-0.3 -0.71,-0.33 -1.01,-0.07 -0.3,0.26 -0.33,0.71 -0.07,1.01 0.05,0.06 1.26,1.44 3.03,2.02z"/>
  <path class="fil14" d="M437.76 73.24c0,0 -2.97,-7.55 -7.26,-4.2 -4.29,3.35 -4.32,17.36 3.78,16.57l3.49 -12.38z"/>
  <path class="fil4" d="M429.72 84.45c-0.25,0.77 0.17,1.61 0.95,1.86 0.78,0.25 1.61,-0.17 1.86,-0.95 0.25,-0.77 -0.17,-1.61 -0.95,-1.86 -0.77,-0.26 -1.61,0.17 -1.86,0.95z"/>
  <path class="fil16" d="M433.99 81.19c-0.26,-0.09 -0.44,-0.34 -0.43,-0.63 0.17,-4.27 -3.37,-7.18 -3.4,-7.21 -0.27,-0.22 -0.31,-0.62 -0.09,-0.89 0.22,-0.27 0.61,-0.31 0.88,-0.1 0.16,0.13 4.07,3.32 3.87,8.24 -0.01,0.35 -0.31,0.62 -0.66,0.6l-0.17 -0.03z"/>
  <path class="fil16" d="M430.54 77.89l-0.29 -0.2c-0.22,-0.27 -0.18,-0.67 0.09,-0.89 0.05,-0.03 1.12,-0.9 2.84,-1.08 0.34,-0.04 0.66,0.21 0.69,0.56 0.04,0.35 -0.21,0.65 -0.56,0.69 -1.33,0.14 -2.17,0.8 -2.17,0.8 -0.17,0.14 -0.4,0.17 -0.59,0.11z"/>
  <path class="fil13" d="M442.92 232.78c0,0 -29.52,-5.12 -68.28,-25.66 -1.17,-0.62 -2.23,-1.44 -3.26,-2.26 -0.61,-0.49 -1.17,-0.94 -1.17,-0.94l0 -0c-0.83,-12.46 7.05,-33.41 12.55,-51.74 3.64,-12.12 8.43,-26.73 18.48,-30.82 1.78,2.09 5.04,10.7 5.27,15.09 0.54,10.61 -2.35,21.3 -4.33,27.2 -2.84,8.47 -4.82,19.29 -7.42,27.75l-0.25 1.16c0.32,0.08 11.04,6.03 25.67,12.77 16.03,7.38 27.67,14.04 27.67,14.04 -5.17,4.66 -4.93,13.43 -4.93,13.43z"/>
  <path class="fil1" d="M88.32 58.13l-1.94 0c-0.35,0 -0.67,-0.19 -0.84,-0.49 -0.17,-0.3 -0.17,-0.67 0,-0.97l0.97 -1.68c0.27,-0.47 0.86,-0.62 1.33,-0.36 0.46,0.27 0.62,0.86 0.36,1.33l-0.13 0.23 0.26 0c0.54,0 0.97,0.44 0.97,0.97 0,0.54 -0.44,0.97 -0.97,0.97z"/>
  <path class="fil1" d="M95.97 41.5l-0.48 -0.13c-0.47,-0.27 -0.62,-0.86 -0.36,-1.33l1.73 -2.99c0.27,-0.47 0.86,-0.63 1.33,-0.36 0.46,0.27 0.62,0.86 0.35,1.33l-1.73 2.99c-0.18,0.31 -0.51,0.49 -0.84,0.49zm-3.45 5.98l-0.48 -0.13c-0.46,-0.27 -0.62,-0.86 -0.36,-1.33l1.73 -2.99c0.27,-0.46 0.86,-0.62 1.33,-0.36 0.46,0.27 0.62,0.86 0.36,1.33l-1.73 2.99c-0.18,0.31 -0.51,0.48 -0.84,0.48zm-3.45 5.98l-0.49 -0.13c-0.46,-0.27 -0.62,-0.86 -0.35,-1.33l1.73 -2.99c0.27,-0.46 0.86,-0.62 1.33,-0.36 0.46,0.27 0.62,0.86 0.35,1.33l-1.73 2.99c-0.18,0.31 -0.51,0.49 -0.84,0.49z"/>
  <path class="fil1" d="M101.37 35.52c-0.34,0 -0.66,-0.17 -0.84,-0.49l-0.13 -0.22 -0.13 0.22c-0.27,0.47 -0.86,0.63 -1.33,0.36 -0.47,-0.27 -0.62,-0.86 -0.36,-1.33l0.97 -1.68c0.17,-0.3 0.49,-0.49 0.84,-0.49 0.35,0 0.67,0.19 0.84,0.49l0.97 1.68c0.27,0.47 0.11,1.06 -0.36,1.33l-0.48 0.13z"/>
  <path class="fil1" d="M104.82 41.5c-0.34,0 -0.66,-0.17 -0.84,-0.49l-1.73 -2.99c-0.27,-0.46 -0.11,-1.06 0.36,-1.33 0.46,-0.27 1.06,-0.11 1.33,0.36l1.73 2.99c0.27,0.47 0.11,1.06 -0.36,1.33l-0.49 0.13zm3.45 5.98c-0.34,0 -0.66,-0.17 -0.84,-0.48l-1.73 -2.99c-0.27,-0.46 -0.11,-1.06 0.36,-1.33 0.47,-0.27 1.06,-0.11 1.33,0.36l1.73 2.99c0.27,0.46 0.11,1.06 -0.35,1.33l-0.49 0.13zm3.45 5.98c-0.34,0 -0.66,-0.17 -0.84,-0.49l-1.72 -2.99c-0.27,-0.46 -0.11,-1.06 0.35,-1.33 0.46,-0.27 1.06,-0.11 1.33,0.36l1.73 2.99c0.27,0.47 0.11,1.06 -0.36,1.33l-0.48 0.13z"/>
  <path class="fil1" d="M114.42 58.13l-1.94 0c-0.54,0 -0.97,-0.43 -0.97,-0.97 0,-0.54 0.44,-0.97 0.97,-0.97l0.26 0 -0.13 -0.23c-0.27,-0.47 -0.11,-1.06 0.36,-1.33 0.47,-0.27 1.06,-0.11 1.33,0.36l0.97 1.68c0.17,0.3 0.17,0.67 0,0.97 -0.17,0.3 -0.49,0.49 -0.84,0.49z"/>
  <path class="fil1" d="M95.22 58.13l-3.45 0c-0.54,0 -0.97,-0.43 -0.97,-0.97 0,-0.54 0.44,-0.97 0.97,-0.97l3.45 0c0.54,0 0.97,0.44 0.97,0.97 0,0.54 -0.43,0.97 -0.97,0.97zm6.9 0l-3.45 0c-0.54,0 -0.97,-0.43 -0.97,-0.97 0,-0.54 0.43,-0.97 0.97,-0.97l3.45 0c0.54,0 0.97,0.44 0.97,0.97 0,0.54 -0.43,0.97 -0.97,0.97zm6.9 0l-3.45 0c-0.54,0 -0.97,-0.43 -0.97,-0.97 0,-0.54 0.44,-0.97 0.97,-0.97l3.45 0c0.54,0 0.97,0.44 0.97,0.97 0,0.54 -0.43,0.97 -0.97,0.97z"/>
  <path class="fil1" d="M151.88 43.84l-0.14 -0.01c-1.18,-0.17 -2.42,-0.17 -3.6,0 -0.53,0.07 -1.02,-0.29 -1.1,-0.82 -0.08,-0.53 0.29,-1.02 0.83,-1.1 1.36,-0.2 2.78,-0.2 4.15,0 0.53,0.07 0.9,0.57 0.83,1.1 -0.07,0.49 -0.48,0.84 -0.96,0.84zm-10.85 3.19c-0.27,0 -0.54,-0.11 -0.73,-0.34 -0.35,-0.41 -0.31,-1.02 0.1,-1.37 1.05,-0.91 2.23,-1.67 3.49,-2.25 0.49,-0.22 1.06,-0.01 1.29,0.48 0.22,0.49 0.01,1.06 -0.48,1.29 -1.09,0.5 -2.11,1.15 -3.02,1.95 -0.18,0.16 -0.41,0.24 -0.64,0.24zm17.82 0c-0.23,0 -0.45,-0.08 -0.64,-0.24 -0.91,-0.79 -1.93,-1.45 -3.03,-1.95 -0.49,-0.22 -0.7,-0.8 -0.48,-1.29 0.22,-0.49 0.8,-0.7 1.29,-0.48 1.26,0.58 2.44,1.34 3.49,2.25 0.4,0.35 0.45,0.97 0.1,1.37 -0.19,0.22 -0.46,0.34 -0.73,0.34zm-21.97 6.45l-0.27 -0.04c-0.52,-0.15 -0.81,-0.69 -0.66,-1.21 0.39,-1.33 0.97,-2.6 1.73,-3.78 0.29,-0.45 0.89,-0.58 1.34,-0.29 0.45,0.29 0.58,0.89 0.29,1.34 -0.65,1.02 -1.16,2.12 -1.5,3.27 -0.12,0.42 -0.51,0.7 -0.93,0.7zm26.12 0c-0.42,0 -0.81,-0.27 -0.93,-0.7 -0.34,-1.16 -0.84,-2.26 -1.5,-3.27 -0.29,-0.45 -0.16,-1.05 0.29,-1.34 0.45,-0.29 1.05,-0.16 1.34,0.29 0.75,1.17 1.33,2.44 1.73,3.78 0.15,0.51 -0.15,1.05 -0.66,1.21l-0.27 0.04zm-26.12 7.66c-0.42,0 -0.81,-0.27 -0.93,-0.7 -0.39,-1.33 -0.59,-2.71 -0.59,-4.11 0,-0.54 0.43,-0.97 0.97,-0.97 0.54,0 0.97,0.43 0.97,0.97 0,1.21 0.17,2.41 0.51,3.56 0.15,0.52 -0.14,1.06 -0.66,1.21l-0.27 0.04zm26.12 0l-0.27 -0.04c-0.51,-0.15 -0.81,-0.69 -0.66,-1.21 0.34,-1.15 0.51,-2.35 0.51,-3.56 0,-0.54 0.44,-0.97 0.97,-0.97 0.54,0 0.97,0.44 0.97,0.97 0,1.4 -0.2,2.78 -0.59,4.11 -0.12,0.42 -0.51,0.7 -0.93,0.7zm-21.97 6.45c-0.23,0 -0.45,-0.08 -0.64,-0.24 -1.05,-0.91 -1.97,-1.97 -2.72,-3.14 -0.29,-0.45 -0.16,-1.05 0.29,-1.34 0.45,-0.29 1.05,-0.16 1.34,0.29 0.65,1.01 1.44,1.93 2.36,2.72 0.41,0.35 0.45,0.97 0.1,1.37 -0.19,0.22 -0.46,0.33 -0.73,0.33zm17.82 0c-0.27,0 -0.54,-0.11 -0.74,-0.34 -0.35,-0.4 -0.31,-1.02 0.1,-1.37 0.91,-0.79 1.7,-1.7 2.36,-2.72 0.29,-0.45 0.89,-0.58 1.34,-0.29 0.45,0.29 0.58,0.89 0.29,1.34 -0.75,1.17 -1.67,2.22 -2.72,3.13 -0.19,0.16 -0.41,0.24 -0.64,0.24zm-6.97 3.18c-0.48,0 -0.89,-0.35 -0.96,-0.83 -0.08,-0.53 0.29,-1.02 0.82,-1.1 1.19,-0.17 2.35,-0.51 3.45,-1.01 0.49,-0.22 1.07,-0.01 1.29,0.48 0.22,0.49 0.01,1.06 -0.48,1.29 -1.26,0.58 -2.6,0.97 -3.98,1.17l-0.14 0.01zm-3.87 0l-0.14 -0.01c-1.38,-0.2 -2.72,-0.59 -3.98,-1.17 -0.49,-0.22 -0.7,-0.8 -0.48,-1.29 0.22,-0.49 0.8,-0.7 1.29,-0.48 1.1,0.5 2.26,0.84 3.45,1.01 0.53,0.08 0.9,0.57 0.82,1.1 -0.07,0.49 -0.49,0.83 -0.96,0.83z"/>
  <path class="fil1" d="M83.23 84.58l-0.14 -0.01c-1.18,-0.17 -2.42,-0.17 -3.6,-0 -0.53,0.07 -1.02,-0.29 -1.1,-0.82 -0.07,-0.53 0.29,-1.02 0.83,-1.1 1.36,-0.19 2.78,-0.19 4.15,0 0.53,0.08 0.9,0.57 0.82,1.1 -0.07,0.49 -0.48,0.84 -0.96,0.84zm-10.85 3.19c-0.27,0 -0.54,-0.11 -0.73,-0.34 -0.35,-0.41 -0.31,-1.02 0.1,-1.37 1.05,-0.91 2.23,-1.67 3.49,-2.24 0.49,-0.22 1.07,-0.01 1.29,0.48 0.22,0.49 0.01,1.06 -0.48,1.29 -1.09,0.5 -2.11,1.16 -3.02,1.95 -0.18,0.16 -0.41,0.24 -0.64,0.24zm17.82 0c-0.23,0 -0.45,-0.08 -0.64,-0.24 -0.91,-0.79 -1.93,-1.45 -3.02,-1.95 -0.49,-0.22 -0.7,-0.8 -0.48,-1.29 0.22,-0.49 0.8,-0.7 1.29,-0.48 1.26,0.58 2.44,1.33 3.49,2.25 0.41,0.35 0.45,0.96 0.1,1.37 -0.19,0.22 -0.46,0.34 -0.73,0.34zm-21.97 6.45l-0.27 -0.04c-0.51,-0.15 -0.81,-0.69 -0.66,-1.21 0.39,-1.33 0.97,-2.6 1.73,-3.77 0.29,-0.45 0.89,-0.58 1.34,-0.29 0.45,0.29 0.58,0.89 0.29,1.34 -0.65,1.01 -1.16,2.11 -1.5,3.27 -0.12,0.42 -0.51,0.7 -0.93,0.7zm26.11 0c-0.42,0 -0.81,-0.28 -0.93,-0.7 -0.34,-1.16 -0.84,-2.26 -1.5,-3.27 -0.29,-0.45 -0.16,-1.05 0.29,-1.34 0.45,-0.29 1.05,-0.16 1.34,0.29 0.75,1.17 1.33,2.44 1.72,3.78 0.15,0.51 -0.14,1.05 -0.66,1.2l-0.27 0.04zm-26.11 7.66c-0.42,0 -0.81,-0.27 -0.93,-0.7 -0.39,-1.33 -0.59,-2.71 -0.59,-4.11 0,-0.54 0.43,-0.97 0.97,-0.97 0.54,0 0.97,0.43 0.97,0.97 0,1.21 0.17,2.41 0.51,3.56 0.15,0.52 -0.14,1.06 -0.66,1.21l-0.27 0.04zm26.12 0l-0.27 -0.04c-0.52,-0.15 -0.81,-0.69 -0.66,-1.2 0.34,-1.15 0.51,-2.35 0.51,-3.56 0,-0.54 0.43,-0.97 0.97,-0.97 0.54,0 0.97,0.44 0.97,0.97 0,1.4 -0.2,2.78 -0.59,4.11 -0.12,0.42 -0.51,0.7 -0.93,0.7zm-21.97 6.45c-0.23,0 -0.45,-0.08 -0.64,-0.23 -1.05,-0.91 -1.96,-1.97 -2.72,-3.13 -0.29,-0.45 -0.16,-1.05 0.29,-1.35 0.45,-0.29 1.05,-0.16 1.34,0.29 0.65,1.01 1.44,1.93 2.36,2.72 0.41,0.35 0.45,0.97 0.1,1.37 -0.19,0.22 -0.46,0.33 -0.73,0.33zm17.82 0c-0.27,0 -0.54,-0.11 -0.73,-0.34 -0.35,-0.41 -0.31,-1.02 0.1,-1.37 0.91,-0.79 1.7,-1.7 2.36,-2.72 0.29,-0.45 0.89,-0.58 1.34,-0.29 0.45,0.29 0.58,0.89 0.29,1.34 -0.75,1.17 -1.67,2.22 -2.72,3.13 -0.18,0.16 -0.41,0.24 -0.64,0.24zm-6.97 3.18c-0.48,0 -0.89,-0.35 -0.96,-0.83 -0.08,-0.53 0.29,-1.02 0.82,-1.1 1.19,-0.17 2.35,-0.51 3.45,-1.01 0.49,-0.22 1.06,-0.01 1.29,0.48 0.22,0.49 0.01,1.06 -0.48,1.29 -1.27,0.58 -2.61,0.97 -3.98,1.17l-0.14 0.01zm-3.87 0l-0.14 -0.01c-1.38,-0.2 -2.72,-0.59 -3.99,-1.17 -0.49,-0.22 -0.7,-0.8 -0.48,-1.29 0.22,-0.49 0.8,-0.7 1.29,-0.48 1.1,0.5 2.26,0.84 3.45,1.01 0.53,0.08 0.9,0.57 0.82,1.1 -0.07,0.49 -0.49,0.83 -0.96,0.83z"/>
  <path class="fil20" d="M751.94 166.31l1.94 0c0.35,0 0.67,-0.19 0.84,-0.49 0.17,-0.3 0.17,-0.67 0,-0.97l-0.97 -1.68c-0.27,-0.47 -0.86,-0.63 -1.33,-0.36 -0.47,0.27 -0.62,0.86 -0.36,1.33l0.13 0.23 -0.26 0c-0.54,0 -0.97,0.43 -0.97,0.97 0,0.54 0.44,0.97 0.97,0.97z"/>
  <path class="fil20" d="M743.45 149.19l-1.73 -2.99c-0.27,-0.46 -0.11,-1.06 0.35,-1.33 0.47,-0.27 1.06,-0.11 1.33,0.35l1.73 2.99c0.27,0.47 0.11,1.06 -0.36,1.33l-0.48 0.13c-0.34,0 -0.66,-0.17 -0.84,-0.49zm3.45 5.98l-1.72 -2.99c-0.27,-0.47 -0.11,-1.06 0.35,-1.33 0.46,-0.27 1.06,-0.11 1.33,0.36l1.73 2.99c0.27,0.47 0.11,1.06 -0.36,1.33l-0.48 0.13c-0.34,0 -0.66,-0.17 -0.84,-0.49zm3.45 5.98l-1.73 -2.99c-0.27,-0.47 -0.11,-1.06 0.36,-1.33 0.46,-0.27 1.06,-0.11 1.33,0.36l1.73 2.99c0.27,0.47 0.11,1.06 -0.36,1.33l-0.48 0.13c-0.34,0 -0.66,-0.17 -0.84,-0.49z"/>
  <path class="fil20" d="M738.89 143.7c0.34,0 0.66,-0.17 0.84,-0.49l0.13 -0.23 0.13 0.23c0.27,0.46 0.86,0.62 1.33,0.36 0.46,-0.27 0.62,-0.86 0.35,-1.33l-0.97 -1.68c-0.17,-0.3 -0.49,-0.49 -0.84,-0.49 -0.35,0 -0.67,0.19 -0.84,0.49l-0.97 1.68c-0.27,0.46 -0.11,1.06 0.36,1.33l0.48 0.13z"/>
  <path class="fil20" d="M734.95 149.55c-0.47,-0.27 -0.62,-0.86 -0.35,-1.33l1.73 -2.99c0.27,-0.47 0.86,-0.62 1.33,-0.35 0.47,0.27 0.62,0.86 0.36,1.33l-1.73 2.99c-0.18,0.31 -0.5,0.49 -0.84,0.49l-0.48 -0.13zm-3.45 5.98c-0.47,-0.27 -0.62,-0.86 -0.35,-1.33l1.73 -2.99c0.27,-0.47 0.86,-0.62 1.33,-0.36 0.47,0.27 0.62,0.86 0.36,1.33l-1.73 2.99c-0.18,0.31 -0.5,0.49 -0.84,0.49l-0.48 -0.13zm-3.45 5.98c-0.46,-0.27 -0.62,-0.86 -0.35,-1.33l1.73 -2.99c0.27,-0.46 0.86,-0.62 1.33,-0.36 0.47,0.27 0.62,0.86 0.36,1.33l-1.73 2.99c-0.18,0.31 -0.51,0.49 -0.84,0.49l-0.49 -0.13z"/>
  <path class="fil20" d="M725.84 166.31l1.94 0c0.54,0 0.97,-0.44 0.97,-0.97 0,-0.54 -0.43,-0.97 -0.97,-0.97l-0.26 0 0.13 -0.23c0.27,-0.46 0.11,-1.06 -0.36,-1.33 -0.47,-0.27 -1.06,-0.11 -1.33,0.36l-0.97 1.68c-0.18,0.3 -0.18,0.67 0,0.97 0.17,0.3 0.49,0.49 0.84,0.49z"/>
  <path class="fil20" d="M744.07 165.34c0,-0.54 0.44,-0.97 0.97,-0.97l3.45 0c0.54,0 0.97,0.43 0.97,0.97 0,0.54 -0.43,0.97 -0.97,0.97l-3.45 0c-0.54,0 -0.97,-0.44 -0.97,-0.97zm-6.9 0c0,-0.54 0.44,-0.97 0.97,-0.97l3.45 0c0.54,0 0.97,0.43 0.97,0.97 0,0.54 -0.44,0.97 -0.97,0.97l-3.45 0c-0.54,0 -0.97,-0.44 -0.97,-0.97zm-6.9 0c0,-0.54 0.44,-0.97 0.97,-0.97l3.45 0c0.54,0 0.97,0.43 0.97,0.97 0,0.54 -0.43,0.97 -0.97,0.97l-3.45 0c-0.54,0 -0.97,-0.44 -0.97,-0.97z"/>
  <path class="fil20" d="M803.3 108.18l1.95 0c0.35,0 0.67,-0.18 0.84,-0.49 0.17,-0.3 0.17,-0.67 0,-0.97l-0.97 -1.68c-0.27,-0.47 -0.86,-0.63 -1.33,-0.36 -0.47,0.27 -0.62,0.86 -0.35,1.33l0.13 0.22 -0.26 0c-0.54,0 -0.97,0.44 -0.97,0.97 0,0.54 0.44,0.97 0.97,0.97z"/>
  <path class="fil20" d="M794.8 91.06l-1.73 -2.99c-0.27,-0.47 -0.11,-1.06 0.36,-1.33 0.47,-0.27 1.06,-0.11 1.33,0.36l1.73 2.99c0.27,0.46 0.11,1.06 -0.36,1.33l-0.48 0.13c-0.34,0 -0.66,-0.17 -0.84,-0.49zm3.45 5.98l-1.73 -2.99c-0.27,-0.47 -0.11,-1.06 0.36,-1.33 0.47,-0.27 1.06,-0.11 1.33,0.36l1.73 2.99c0.27,0.47 0.11,1.06 -0.36,1.33l-0.48 0.13c-0.34,0 -0.66,-0.17 -0.84,-0.49zm3.45 5.98l-1.73 -2.99c-0.27,-0.46 -0.11,-1.06 0.35,-1.33 0.47,-0.27 1.06,-0.11 1.33,0.36l1.72 2.99c0.27,0.46 0.11,1.06 -0.36,1.33l-0.48 0.13c-0.34,0 -0.66,-0.17 -0.84,-0.48z"/>
  <path class="fil20" d="M790.25 85.57c0.34,0 0.66,-0.17 0.85,-0.48l0.13 -0.23 0.13 0.23c0.27,0.46 0.86,0.62 1.33,0.36 0.46,-0.27 0.62,-0.86 0.35,-1.33l-0.97 -1.68c-0.17,-0.3 -0.49,-0.49 -0.84,-0.49 -0.35,0 -0.67,0.19 -0.84,0.49l-0.97 1.68c-0.27,0.47 -0.11,1.06 0.36,1.33l0.49 0.13z"/>
  <path class="fil20" d="M786.31 91.42c-0.46,-0.27 -0.63,-0.86 -0.36,-1.33l1.73 -2.99c0.27,-0.46 0.86,-0.62 1.33,-0.36 0.47,0.27 0.62,0.86 0.36,1.33l-1.73 2.99c-0.18,0.31 -0.51,0.49 -0.85,0.49l-0.48 -0.13zm-3.45 5.98c-0.46,-0.27 -0.63,-0.86 -0.36,-1.33l1.73 -2.99c0.27,-0.47 0.86,-0.62 1.33,-0.36 0.46,0.27 0.62,0.86 0.35,1.33l-1.73 2.99c-0.18,0.31 -0.51,0.49 -0.84,0.49l-0.48 -0.13zm-3.45 5.98c-0.47,-0.27 -0.62,-0.86 -0.36,-1.33l1.73 -2.99c0.27,-0.46 0.86,-0.62 1.33,-0.36 0.46,0.27 0.62,0.86 0.35,1.33l-1.73 2.99c-0.18,0.31 -0.51,0.48 -0.84,0.48l-0.48 -0.13z"/>
  <path class="fil20" d="M777.19 108.18l1.94 0c0.54,0 0.97,-0.44 0.97,-0.97 0,-0.54 -0.43,-0.97 -0.97,-0.97l-0.26 0 0.13 -0.22c0.27,-0.46 0.11,-1.06 -0.36,-1.33 -0.47,-0.27 -1.06,-0.11 -1.33,0.36l-0.97 1.68c-0.17,0.3 -0.17,0.67 0,0.97 0.17,0.3 0.5,0.49 0.84,0.49z"/>
  <path class="fil20" d="M795.43 107.21c0,-0.54 0.43,-0.97 0.97,-0.97l3.45 0c0.54,0 0.97,0.44 0.97,0.97 0,0.54 -0.44,0.97 -0.97,0.97l-3.45 0c-0.54,0 -0.97,-0.44 -0.97,-0.97zm-6.91 0c0,-0.54 0.44,-0.97 0.97,-0.97l3.45 0c0.54,0 0.97,0.44 0.97,0.97 0,0.54 -0.44,0.97 -0.97,0.97l-3.45 0c-0.54,0 -0.97,-0.44 -0.97,-0.97zm-6.91 0c0,-0.54 0.44,-0.97 0.97,-0.97l3.45 0c0.54,0 0.97,0.44 0.97,0.97 0,0.54 -0.43,0.97 -0.97,0.97l-3.45 0c-0.54,0 -0.97,-0.44 -0.97,-0.97z"/>
  <path class="fil20" d="M743.19 91.29c-0.08,-0.53 0.29,-1.02 0.82,-1.1 1.37,-0.19 2.78,-0.19 4.15,0 0.53,0.08 0.9,0.57 0.82,1.1 -0.08,0.53 -0.57,0.9 -1.1,0.82 -1.18,-0.17 -2.41,-0.17 -3.6,0l-0.14 0.01c-0.47,0 -0.89,-0.35 -0.96,-0.84zm11.17 3.78c-0.91,-0.79 -1.93,-1.45 -3.03,-1.95 -0.49,-0.22 -0.7,-0.8 -0.48,-1.29 0.22,-0.49 0.8,-0.7 1.29,-0.48 1.26,0.58 2.44,1.33 3.49,2.24 0.4,0.35 0.45,0.97 0.1,1.37 -0.19,0.22 -0.46,0.34 -0.74,0.34 -0.23,0 -0.45,-0.08 -0.64,-0.24zm-17.92 -0.1c-0.35,-0.41 -0.31,-1.02 0.1,-1.37 1.05,-0.91 2.23,-1.67 3.49,-2.25 0.48,-0.22 1.06,-0.01 1.29,0.48 0.22,0.49 0.01,1.06 -0.48,1.29 -1.09,0.5 -2.11,1.16 -3.02,1.95 -0.19,0.16 -0.41,0.24 -0.64,0.24 -0.27,0 -0.54,-0.11 -0.74,-0.33zm21.77 6.08c-0.34,-1.15 -0.84,-2.26 -1.49,-3.27 -0.29,-0.45 -0.16,-1.05 0.29,-1.34 0.45,-0.29 1.05,-0.16 1.34,0.29 0.75,1.17 1.33,2.44 1.73,3.78 0.15,0.51 -0.14,1.06 -0.66,1.21l-0.27 0.04c-0.42,0 -0.81,-0.28 -0.93,-0.7zm-25.46 0.66c-0.51,-0.15 -0.81,-0.69 -0.66,-1.21 0.39,-1.33 0.97,-2.6 1.73,-3.77 0.29,-0.45 0.89,-0.58 1.34,-0.29 0.45,0.29 0.58,0.89 0.29,1.34 -0.65,1.02 -1.16,2.12 -1.49,3.27 -0.12,0.42 -0.51,0.7 -0.93,0.7l-0.27 -0.04zm26.12 7.67c-0.51,-0.15 -0.81,-0.69 -0.66,-1.21 0.34,-1.15 0.51,-2.35 0.51,-3.56 0,-0.54 0.44,-0.97 0.97,-0.97 0.54,0 0.97,0.44 0.97,0.97 0,1.4 -0.2,2.78 -0.58,4.11 -0.13,0.42 -0.51,0.7 -0.93,0.7l-0.27 -0.04zm-26.77 -0.66c-0.39,-1.33 -0.59,-2.71 -0.59,-4.11 0,-0.54 0.44,-0.97 0.97,-0.97 0.54,0 0.97,0.44 0.97,0.97 0,1.21 0.17,2.41 0.51,3.56 0.15,0.52 -0.15,1.06 -0.66,1.21l-0.27 0.04c-0.42,0 -0.81,-0.27 -0.93,-0.7zm22.17 6.81c-0.35,-0.4 -0.31,-1.02 0.1,-1.37 0.91,-0.79 1.7,-1.71 2.36,-2.72 0.29,-0.45 0.89,-0.58 1.34,-0.29 0.45,0.29 0.58,0.89 0.29,1.34 -0.75,1.17 -1.67,2.22 -2.72,3.13 -0.18,0.16 -0.41,0.24 -0.64,0.24 -0.27,0 -0.54,-0.11 -0.73,-0.34zm-17.72 0.1c-1.05,-0.91 -1.97,-1.97 -2.72,-3.13 -0.29,-0.45 -0.16,-1.05 0.29,-1.34 0.45,-0.29 1.05,-0.16 1.34,0.29 0.65,1.01 1.45,1.93 2.36,2.72 0.4,0.35 0.45,0.96 0.1,1.37 -0.19,0.22 -0.46,0.34 -0.74,0.34 -0.22,0 -0.45,-0.08 -0.64,-0.24zm7.47 3.41c-1.38,-0.2 -2.72,-0.59 -3.98,-1.17 -0.49,-0.22 -0.7,-0.8 -0.48,-1.29 0.22,-0.49 0.8,-0.7 1.29,-0.48 1.09,0.5 2.26,0.84 3.45,1.01 0.53,0.08 0.9,0.57 0.82,1.1 -0.07,0.48 -0.48,0.84 -0.96,0.84l-0.14 -0.01zm3.05 -0.82c-0.07,-0.53 0.29,-1.02 0.83,-1.1 1.2,-0.17 2.36,-0.51 3.45,-1.01 0.49,-0.22 1.06,-0.01 1.29,0.48 0.22,0.49 0.01,1.06 -0.48,1.29 -1.26,0.58 -2.6,0.97 -3.98,1.17l-0.14 0.01c-0.48,0 -0.89,-0.35 -0.96,-0.84z"/>
  <path class="fil10" d="M644.16 143.8l-50.29 0c-5.8,0 -10.55,-4.75 -10.55,-10.55l0 -35.83c0,-5.8 4.75,-10.55 10.55,-10.55l50.29 0c5.8,0 10.55,4.75 10.55,10.55l0 35.83c0,5.8 -4.74,10.55 -10.55,10.55z"/>
  <path class="fil4" d="M618.23 124.13l0 9.05c-1.19,-0.74 -4.9,-3.42 -7.07,-9.05l7.07 0zm-8.75 0c0.82,2.31 1.96,4.41 3.4,6.23 0.74,0.94 1.55,1.8 2.41,2.56 -5,-1.06 -9.41,-4.3 -11.93,-8.79l6.13 0zm-8.39 -9.99c0.16,-2.4 0.79,-4.7 1.87,-6.84l6.32 0c-0.75,2.22 -1.18,4.52 -1.26,6.84l-6.93 0zm17.14 1.57l0 6.84 -7.61 0c-0.64,-2.12 -0.99,-4.42 -1.04,-6.84l8.65 0zm-14.38 -9.99c2.55,-4.01 6.58,-6.85 11.17,-7.9 -0.9,0.95 -1.75,1.99 -2.52,3.1 -1.05,1.5 -1.93,3.12 -2.63,4.8l-6.02 0zm14.38 1.57l0 6.84 -8.64 0c0.09,-2.33 0.55,-4.63 1.35,-6.84l7.28 0zm-6.65 -1.57c0.61,-1.35 1.34,-2.65 2.19,-3.87 1.64,-2.37 3.28,-3.86 3.96,-4.43l0.5 -0.03 0 8.33 -6.65 0zm-2.6 16.83l-6.42 0c-0.95,-2.17 -1.46,-4.47 -1.51,-6.84l6.95 0c0.05,2.4 0.38,4.7 0.98,6.84zm27.98 -6.84c-0.05,2.38 -0.55,4.68 -1.51,6.84l-6.24 0c0.6,-2.14 0.93,-4.44 0.98,-6.84l6.77 0zm-6.78 -1.57c-0.09,-2.33 -0.51,-4.63 -1.26,-6.84l6.14 0c1.08,2.14 1.71,4.45 1.87,6.84l-6.74 0zm-10.39 0l0 -6.84 7.46 0c0.81,2.21 1.26,4.51 1.36,6.84l-8.82 0zm8.54 -8.41c-0.7,-1.68 -1.58,-3.3 -2.63,-4.8 -0.76,-1.09 -1.59,-2.11 -2.47,-3.05 4.5,1.09 8.44,3.91 10.94,7.85l-5.84 0zm-8.54 0l0 -8.33c0.23,0.01 0.47,0.03 0.7,0.04 0.98,0.83 4.04,3.67 6.13,8.29l-6.82 0zm7.25 18.4c-0.74,1.92 -1.72,3.67 -2.92,5.21 -1.87,2.39 -3.74,3.61 -4.34,3.96l0 -9.16 7.25 0zm-1.72 6.23c1.43,-1.82 2.58,-3.91 3.4,-6.23l5.95 0c-2.51,4.47 -6.73,7.62 -11.69,8.74 0.84,-0.75 1.63,-1.59 2.35,-2.51zm-5.53 -7.8l0 -6.84 8.83 0c-0.05,2.42 -0.4,4.72 -1.04,6.84l-7.79 0zm-0.79 -26.75c-10.77,0 -19.53,8.76 -19.53,19.53 0,10.77 8.76,19.53 19.53,19.53 10.77,0 19.54,-8.76 19.54,-19.53 0,-10.77 -8.76,-19.53 -19.54,-19.53z"/>
  <path class="fil10" d="M57.63 571.96l-41.5 0c-5.8,0 -10.55,-4.75 -10.55,-10.55l0 -28.83c0,-5.8 4.75,-10.55 10.55,-10.55l41.5 0c5.8,0 10.55,4.75 10.55,10.55l0 28.83c0,5.8 -4.75,10.55 -10.55,10.55z"/>
  <path class="fil4" d="M45.98 535.59c-3.16,-2.92 -8.11,-2.72 -11.02,0.44 -2.92,3.16 -2.72,8.1 0.44,11.02 3.16,2.92 8.11,2.72 11.02,-0.44 2.92,-3.16 2.72,-8.1 -0.44,-11.02zm-13.18 14.28c-4.72,-4.35 -5.01,-11.73 -0.66,-16.45 4.35,-4.72 11.73,-5.01 16.45,-0.66 4.72,4.35 5.01,11.73 0.66,16.45 -4.35,4.72 -11.73,5.01 -16.45,0.66z"/>
  <path class="fil4" d="M19.94 563.8c-0.78,-0.72 -0.83,-1.94 -0.11,-2.71l12.86 -13.93c0.72,-0.78 1.93,-0.82 2.71,-0.11 0.78,0.72 0.83,1.93 0.11,2.71l-12.86 13.93c-0.72,0.78 -1.93,0.83 -2.71,0.11z"/>
  <path class="fil10" d="M959.63 449.41l-41.51 0c-5.8,0 -10.55,-4.75 -10.55,-10.55l0 -28.82c0,-5.8 4.75,-10.55 10.55,-10.55l41.51 0c5.8,0 10.55,4.75 10.55,10.55l0 28.82c0,5.8 -4.75,10.55 -10.55,10.55z"/>
  <path class="fil4" d="M947.6 436.44l-24.33 0c-1.27,0 -2.29,-1.03 -2.29,-2.29l0 -19.39c0,-1.27 1.03,-2.3 2.29,-2.3l24.33 0c1.27,0 2.3,1.03 2.3,2.3l0 19.39c0,1.27 -1.03,2.29 -2.3,2.29z"/>
  <path class="fil4" d="M960.44 418.37l0 12.18c0,0.96 -1,1.6 -1.87,1.18l-6.01 -2.87c-0.45,-0.22 -0.75,-0.67 -0.75,-1.18l0 -6.43c0,-0.51 0.29,-0.96 0.75,-1.18l6.01 -2.87c0.87,-0.42 1.87,0.22 1.87,1.18z"/>
  <path class="fil0" d="M179.14 824.68c0,5.2 -26.55,9.41 -59.31,9.41 -32.76,0 -59.31,-4.21 -59.31,-9.41 0,-5.2 26.55,-9.41 59.31,-9.41 32.76,0 59.31,4.21 59.31,9.41z"/>
  <path class="fil15" d="M159.3 823.75l0 -88.85c0,-10.67 -78.94,-10.67 -78.94,0l0 88.85c0,8.09 78.94,8.09 78.94,0z"/>
  <path class="fil13" d="M159.3 744.16l0 5.15c-8.17,2.12 -21.44,4.57 -39.17,4.57 -18.26,0 -31.72,-2.6 -39.77,-4.76l0 -5.16c7.51,2.12 21.11,4.97 39.77,4.97 18.12,0 31.48,-2.67 39.17,-4.77z"/>
  <path class="fil9" d="M155.18 733.95c0,2.54 -15.82,4.6 -35.35,4.6 -19.52,0 -35.35,-2.06 -35.35,-4.6 0,-2.54 15.83,-4.6 35.35,-4.6 19.52,0 35.35,2.06 35.35,4.6z"/>
  <path class="fil3" d="M111.19 733.95l16.27 0c0.93,-4.76 10.47,-55.63 1.83,-99.22 -9.05,-45.77 -36.7,-72.95 -53.87,-53.39 -17.16,19.55 4.29,57.69 20.5,85.29 15.31,26.08 15.31,63.3 15.27,67.32z"/>
  <path class="fil1" d="M117.21 733.95l4.29 0c4.34,-71.27 -27.85,-125.98 -28.19,-126.53 -0.61,-1.02 -1.93,-1.35 -2.95,-0.75 -1.02,0.62 -1.34,1.93 -0.73,2.95 0.32,0.55 31.92,54.32 27.57,124.33z"/>
  <path class="fil3" d="M186.36 593.73c-36.76,0 -57.58,112.01 -54.87,141.03l15.65 0c1.28,-7.37 7.38,-27.01 35.02,-71.69 12.92,-20.87 42.11,-69.34 4.21,-69.34z"/>
  <path class="fil1" d="M179.91 624.88c-1.03,-0.59 -2.34,-0.23 -2.93,0.8 -0.34,0.61 -31.55,56.25 -39.04,109.08l4.34 0c7.5,-51.78 38.1,-106.37 38.45,-106.96 0.57,-1.03 0.22,-2.33 -0.82,-2.92z"/>
  <path class="fil3" d="M108.77 734.76c0.61,-20.7 -28.26,-104.88 -52.92,-98.8 -26.93,6.65 2.44,46.27 13.46,61 17.56,23.46 24.38,33.52 26.95,37.8l12.51 0z"/>
  <path class="fil1" d="M104.11 734.76c-8.37,-34.85 -38.34,-75.27 -39.69,-77.1 -0.72,-0.96 -2.06,-1.14 -3,-0.44 -0.94,0.72 -1.14,2.06 -0.44,3 0.34,0.45 30.13,40.67 38.68,74.54l4.45 0z"/>
 </g>
</svg>
