<?xml version="1.0" encoding="UTF-8"?>
<!DOCTYPE svg PUBLIC "-//W3C//DTD SVG 1.1//EN" "http://www.w3.org/Graphics/SVG/1.1/DTD/svg11.dtd">
<!-- Creator: CorelDRAW 2017 -->
<svg xmlns="http://www.w3.org/2000/svg" xml:space="preserve" width="113.479mm" height="18.6786mm" version="1.1" style="shape-rendering:geometricPrecision; text-rendering:geometricPrecision; image-rendering:optimizeQuality; fill-rule:evenodd; clip-rule:evenodd"
viewBox="0 0 11030.27 1815.57"
 xmlns:xlink="http://www.w3.org/1999/xlink">
 <defs>
  <style type="text/css">
   <![CDATA[
    .fil2 {fill:#FEFEFE}
    .fil0 {fill:#FEFEFE}
    .fil1 {fill:#FEFEFE;fill-rule:nonzero}
   ]]>
  </style>
 </defs>
 <g id="Capa_x0020_1">
  <metadata id="CorelCorpID_0Corel-Layer"/>
  <g id="_2320587003632">
   <g>
    <path class="fil0" d="M1209.5 1003.44c-30.03,20.19 -44.16,51.89 -63.73,79.68 -61.62,87.43 -135.5,122.31 -238.7,102.48 -62.01,-11.95 -116.98,-40.96 -171.96,-69.73 -135.12,-70.73 -281.64,-36.32 -375.85,74.94 -91.56,108.13 -95.66,268.64 4,388.54 17.28,25.92 47.49,51.84 82.52,70.73 169.78,91.58 383.06,11.09 439.86,-181 18.47,-62.48 41.29,-122.88 80.81,-176.09 32.93,-44.38 75.36,-71.63 129.27,-82.34 53.54,-10.66 104.53,3.11 155.97,14.53 68.27,15.17 132.95,-26.21 148.31,-94.16 10.6,-46.79 -9.39,-100.22 -46.78,-125.19 -49.46,-32.97 -98.48,-32.81 -143.73,-2.39z"/>
    <path class="fil0" d="M1391.68 657.81c-23.93,-43.57 -71.63,-70.03 -121.56,-63.52 -29.51,3.86 -58.37,12.63 -87.9,16.27 -78.49,9.67 -146.02,-9.57 -198.85,-73.33 -42.27,-51.06 -67.69,-109.63 -84.3,-172.14 -24.55,-92.3 -76.23,-163.48 -160.92,-206.78 -137.11,-70.13 -311.7,-23.63 -389.43,104.17 -17.8,21.82 -29.7,46.5 -36.75,73.62 -0.1,0.05 -0.2,0.09 -0.31,0.12 -0.38,0.13 -0.27,1.6 -0.38,2.46 -14.78,45.71 -18.31,92.28 -9.97,139.58 16.82,95.42 66.64,167.72 151.17,215.72 81.4,46.23 165.9,52.26 253.58,20.05 55.49,-20.36 104.32,-55.49 161.84,-71.54 54.36,-15.18 108.45,-23.05 163.55,-4.04 52.11,17.95 88.22,54.52 117.59,99.37 19.83,30.25 37.2,63.89 67.69,83.94 46.7,30.68 116.15,25.04 160.06,-25.35 30.68,-35.14 37.76,-96.98 14.9,-138.59zm-1080.4 -319.14l0 0z"/>
    <path class="fil0" d="M1059.36 1058.54c86.25,-68.67 99.95,-193.09 30.82,-279.48 -68.02,-85.07 -193.4,-99.56 -278.01,-32.17 -85.87,68.4 -100.45,194.51 -32.28,279.91 68.86,86.29 193.22,100.42 279.47,31.75z"/>
    <path class="fil0" d="M1363.62 247.4c-66.38,-137.35 -244.89,-148 -331.2,-46.5 -94.97,111.64 -43.99,282.06 97.25,321.59 78.92,22.06 176.46,-2.86 232.2,-102.7 34.34,-57.12 33.14,-114.6 1.75,-172.39z"/>
    <path class="fil0" d="M1042.57 1337.12c-89.11,61.72 -95.71,195.83 -38.66,272 67.85,90.63 196.69,106.86 283.27,39.33 85.48,-66.73 100.3,-192.44 34.49,-277.72 -67.31,-87.19 -198.47,-103.96 -279.1,-33.6z"/>
    <path class="fil0" d="M296.38 1035.67c81.12,-63.29 93.64,-181.57 28.24,-256.77 -57.86,-80.19 -180.15,-91.56 -256.18,-29.24 -77.68,63.65 -91.89,177.84 -28.88,255.21 67.85,83.25 176.39,93.54 256.82,30.8z"/>
   </g>
   <polygon class="fil1" points="1903.18,756.14 1903.18,1134.3 1827.67,1134.3 1827.67,756.14 1692.03,756.14 1692.03,687.04 2038.83,687.04 2038.83,756.14 "/>
   <path id="1" class="fil1" d="M2221.2 1031.92c20.47,23.89 48.2,35.84 83.17,35.84 34.98,0 62.71,-11.95 83.18,-35.84 20.48,-23.88 30.72,-56.31 30.72,-97.26l0 -247.62 75.51 0 0 250.82c0,64.41 -17.71,114.01 -53.11,148.78 -35.41,34.76 -80.83,52.15 -136.29,52.15 -55.45,0 -100.88,-17.39 -136.29,-52.15 -35.41,-34.77 -53.11,-84.36 -53.11,-148.78l0 -250.82 75.51 0 0 247.62c0,40.95 10.24,73.38 30.72,97.26z"/>
   <polygon id="2" class="fil1" points="2787.47,1134.3 2787.47,687.04 2862.98,687.04 2862.98,1062.64 3067.1,1062.64 3067.1,1134.3 "/>
   <path id="3" class="fil1" d="M3455.81 792.61c-30.5,-31.56 -67.93,-47.35 -112.3,-47.35 -44.36,0 -81.79,15.79 -112.3,47.35 -30.5,31.57 -45.75,69.86 -45.75,114.86 0,45 15.25,83.28 45.75,114.85 30.5,31.56 67.93,47.35 112.3,47.35 44.36,0 81.79,-15.79 112.3,-47.35 30.5,-31.57 45.75,-69.85 45.75,-114.85 0,-45 -15.25,-83.29 -45.75,-114.86zm55.35 279.95c-45.22,44.15 -101.1,66.22 -167.64,66.22 -66.54,0 -122.42,-22.07 -167.64,-66.22 -45.22,-44.16 -67.83,-99.18 -67.83,-165.09 0,-65.91 22.61,-120.94 67.83,-165.09 45.22,-44.15 101.1,-66.23 167.64,-66.23 66.54,0 122.42,22.08 167.64,66.23 45.22,44.15 67.83,99.17 67.83,165.09 0,65.9 -22.61,120.93 -67.83,165.09z"/>
   <path id="4" class="fil1" d="M3984.02 916.75l75.5 0 0 152.93c-42.22,46.5 -102.59,69.75 -181.08,69.75 -66.12,0 -121.47,-21.76 -166.05,-65.27 -44.58,-43.51 -66.86,-98.54 -66.86,-165.09 0,-66.54 22.72,-122 68.15,-166.36 45.43,-44.36 100.35,-66.55 164.76,-66.55 64.41,0 117.94,18.77 160.6,56.31l-40.31 57.59c-17.5,-14.93 -35.09,-25.27 -52.79,-31.04 -17.7,-5.75 -38.29,-8.63 -61.75,-8.63 -45.22,0 -83.17,14.61 -113.89,43.83 -30.72,29.22 -46.07,67.61 -46.07,115.17 0,47.56 14.93,85.74 44.79,114.53 29.86,28.8 66.01,43.2 108.46,43.2 42.45,0 77.95,-9.18 106.54,-27.52l0 -122.85z"/>
   <path id="5" class="fil1" d="M4477.67 792.61c-30.5,-31.56 -67.93,-47.35 -112.3,-47.35 -44.36,0 -81.79,15.79 -112.3,47.35 -30.5,31.57 -45.75,69.86 -45.75,114.86 0,45 15.25,83.28 45.75,114.85 30.5,31.56 67.93,47.35 112.3,47.35 44.36,0 81.79,-15.79 112.3,-47.35 30.5,-31.57 45.75,-69.85 45.75,-114.85 0,-45 -15.25,-83.29 -45.75,-114.86zm55.35 279.95c-45.22,44.15 -101.1,66.22 -167.64,66.22 -66.54,0 -122.42,-22.07 -167.64,-66.22 -45.22,-44.16 -67.83,-99.18 -67.83,-165.09 0,-65.91 22.61,-120.94 67.83,-165.09 45.22,-44.15 101.1,-66.23 167.64,-66.23 66.54,0 122.42,22.08 167.64,66.23 45.22,44.15 67.83,99.17 67.83,165.09 0,65.9 -22.61,120.93 -67.83,165.09z"/>
   <rect class="fil2" x="5053.4" width="57.87" height="1815.57"/>
   <g>
    <path class="fil0" d="M7792.07 831.41l-1.28 533.84c0,25.79 -13.76,49.83 -36.28,62.6l-462.76 266.17c-22.27,12.81 -50.09,12.81 -72.35,-0.24l-330.06 -191.53c48.58,-17.55 84.91,-61.13 84.91,-116.96l0 -121.92c4.73,7.26 253.66,154.22 253.66,154.22 17.53,10.01 38.78,10.26 56.57,0.25l235.15 -135.22c17.51,-10.27 28.3,-28.8 28.55,-49.09l0.48 -271.44c0,-20.02 -10.77,-38.81 -28.3,-49.08l-234.88 -149.77c-17.53,-10.26 -39.05,-10.26 -56.57,-0.27l-356.35 190.61c-17.51,10.01 -39.05,9.77 -56.6,-0.25l-93.37 -54.34 -0.28 0 0.28 -69.61c0,-26.04 14,-49.83 36.28,-62.85l83.67 -47.8 287.43 -165.29 6.78 -4.01 84.89 -48.8c22.54,-12.79 50.32,-12.79 72.63,0.23l80.38 46.57 5.26 3.01 376.09 218.09c22.28,13.02 36.08,37.07 36.08,62.89z"/>
    <path class="fil0" d="M7380.33 502.64l-80.38 -46.58c-22.29,-13.02 -50.09,-13.02 -72.63,-0.24l-84.89 48.82 -6.77 4c-53.07,-33.3 -261.92,-154.25 -261.92,-154.25 -17.53,-10.01 -39.06,-10.01 -56.59,0l-235.11 135.22c-17.55,10.02 -28.57,28.8 -28.57,49.09l0 33.3 -0.51 237.88c0,20.29 10.77,38.81 28.3,49.09l141.23 81.88 93.4 54.34c17.55,10.02 39.06,10.26 56.6,0.25l92.15 -53.09 -0.51 259.18c-7.49,2.26 -84.38,48.82 -84.38,48.82 -22.27,13.02 -50.34,28.3 -72.87,15.28l-85.12 -43.83 -0.78 -0.74 -375.36 -217.61c-22.29,-13.02 -36.02,-37.05 -36.02,-62.85l0.21 -89.89 0.51 -280.71 0.5 -163.27c0,-25.79 13.78,-49.58 36.33,-62.6l462.73 -265.96c22.56,-12.74 50.08,-12.74 72.37,0.28l461.75 267.68c22.28,13.02 36.3,37.06 36.08,62.82 -1.28,37.57 0.97,59.37 0.22,93.68z"/>
    <path class="fil0" d="M6945.95 1246.57l-0.27 147.73 0 14.52c0,25.79 -14.03,49.83 -36.28,62.6l-56.62 32.55 -27.04 15.52 -379.34 217.86c-22.28,12.76 -50.08,12.76 -72.37,0l-461.74 -267.93c-22.29,-13 -36.09,-37.04 -36.09,-62.86l0 -14.27 1 -519.59c0.28,-25.8 14.06,-49.58 36.31,-62.6l364.09 -209.1 0 274.95c0,1.75 0.24,3.51 0.24,5.25l-129.18 74.41c-17.81,9.98 -28.58,28.76 -28.58,48.79l-0.47 257.43 0 14.05c0,20.26 10.52,39.04 28.04,49.08l234.89 136.21c17.5,10.01 39.03,10.25 56.58,0.23l235.11 -135.22c17.78,-10.26 28.58,-28.8 28.58,-49.08l0 -33.3 1 0.5 9.51 5.53 75.86 44.05c22.53,13.02 50.08,13.02 72.39,0l0.76 -0.22 0.48 -0.27c2.77,-1 5.78,-2.51 8.51,-3.99l74.65 -42.83z"/>
   </g>
   <polygon class="fil1" points="8332.6,756.14 8332.6,1134.3 8257.1,1134.3 8257.1,756.14 8121.45,756.14 8121.45,687.04 8468.25,687.04 8468.25,756.14 "/>
   <path id="1" class="fil1" d="M8650.62 1031.92c20.47,23.89 48.2,35.84 83.17,35.84 34.98,0 62.71,-11.95 83.18,-35.84 20.48,-23.88 30.72,-56.31 30.72,-97.26l0 -247.62 75.51 0 0 250.82c0,64.41 -17.71,114.01 -53.11,148.78 -35.41,34.76 -80.83,52.15 -136.29,52.15 -55.45,0 -100.88,-17.39 -136.29,-52.15 -35.41,-34.77 -53.11,-84.36 -53.11,-148.78l0 -250.82 75.51 0 0 247.62c0,40.95 10.24,73.38 30.72,97.26z"/>
   <polygon id="2" class="fil1" points="9216.89,1134.3 9216.89,687.04 9292.4,687.04 9292.4,1062.64 9496.52,1062.64 9496.52,1134.3 "/>
   <path id="3" class="fil1" d="M9885.24 792.61c-30.5,-31.56 -67.93,-47.35 -112.3,-47.35 -44.36,0 -81.79,15.79 -112.3,47.35 -30.5,31.57 -45.75,69.86 -45.75,114.86 0,45 15.25,83.28 45.75,114.85 30.5,31.56 67.93,47.35 112.3,47.35 44.36,0 81.79,-15.79 112.3,-47.35 30.5,-31.57 45.75,-69.85 45.75,-114.85 0,-45 -15.25,-83.29 -45.75,-114.86zm55.35 279.95c-45.22,44.15 -101.1,66.22 -167.64,66.22 -66.54,0 -122.42,-22.07 -167.64,-66.22 -45.22,-44.16 -67.83,-99.18 -67.83,-165.09 0,-65.91 22.61,-120.94 67.83,-165.09 45.22,-44.15 101.1,-66.23 167.64,-66.23 66.54,0 122.42,22.08 167.64,66.23 45.22,44.15 67.83,99.17 67.83,165.09 0,65.9 -22.61,120.93 -67.83,165.09z"/>
   <path id="4" class="fil1" d="M10413.44 916.75l75.5 0 0 152.93c-42.22,46.5 -102.59,69.75 -181.08,69.75 -66.12,0 -121.47,-21.76 -166.05,-65.27 -44.58,-43.51 -66.86,-98.54 -66.86,-165.09 0,-66.54 22.72,-122 68.15,-166.36 45.43,-44.36 100.35,-66.55 164.76,-66.55 64.41,0 117.94,18.77 160.6,56.31l-40.31 57.59c-17.5,-14.93 -35.09,-25.27 -52.79,-31.04 -17.7,-5.75 -38.29,-8.63 -61.75,-8.63 -45.22,0 -83.17,14.61 -113.89,43.83 -30.72,29.22 -46.07,67.61 -46.07,115.17 0,47.56 14.93,85.74 44.79,114.53 29.86,28.8 66.01,43.2 108.46,43.2 42.45,0 77.95,-9.18 106.54,-27.52l0 -122.85z"/>
   <path id="5" class="fil1" d="M10907.1 792.61c-30.5,-31.56 -67.93,-47.35 -112.3,-47.35 -44.36,0 -81.79,15.79 -112.3,47.35 -30.5,31.57 -45.75,69.86 -45.75,114.86 0,45 15.25,83.28 45.75,114.85 30.5,31.56 67.93,47.35 112.3,47.35 44.36,0 81.79,-15.79 112.3,-47.35 30.5,-31.57 45.75,-69.85 45.75,-114.85 0,-45 -15.25,-83.29 -45.75,-114.86zm55.35 279.95c-45.22,44.15 -101.1,66.22 -167.64,66.22 -66.54,0 -122.42,-22.07 -167.64,-66.22 -45.22,-44.16 -67.83,-99.18 -67.83,-165.09 0,-65.91 22.61,-120.94 67.83,-165.09 45.22,-44.15 101.1,-66.23 167.64,-66.23 66.54,0 122.42,22.08 167.64,66.23 45.22,44.15 67.83,99.17 67.83,165.09 0,65.9 -22.61,120.93 -67.83,165.09z"/>
  </g>
 </g>
</svg>
