<?xml version="1.0" encoding="UTF-8"?>
<!DOCTYPE svg PUBLIC "-//W3C//DTD SVG 1.1//EN" "http://www.w3.org/Graphics/SVG/1.1/DTD/svg11.dtd">
<!-- Creator: CorelDRAW 2017 -->
<svg xmlns="http://www.w3.org/2000/svg" xml:space="preserve" width="51.2624mm" height="15.3135mm" version="1.1" style="shape-rendering:geometricPrecision; text-rendering:geometricPrecision; image-rendering:optimizeQuality; fill-rule:evenodd; clip-rule:evenodd"
viewBox="0 0 163.11 48.73"
 xmlns:xlink="http://www.w3.org/1999/xlink">
 <defs>
  <style type="text/css">
   <![CDATA[
    .fil1 {fill:#FEFEFE;fill-rule:nonzero}
    .fil0 {fill:white;fill-rule:nonzero}
   ]]>
  </style>
 </defs>
 <g id="Capa_x0020_1">
  <metadata id="CorelCorpID_0Corel-Layer"/>
  <g id="_2478002957136">
   <path class="fil0" d="M16.39 37.61c0.06,-0.12 0.02,-0.27 -0.11,-0.34 -0.12,-0.07 -0.28,-0.02 -0.34,0.1 -0.06,0.12 -0.02,0.27 0.1,0.34 0.12,0.06 0.27,0.02 0.34,-0.1z"/>
   <path class="fil0" d="M4.11 20.09c-0.08,-0.07 -0.16,-0.13 -0.23,-0.21l0.23 0.21z"/>
   <polygon class="fil0" points="24.77,32.06 24.77,32.07 24.77,32.06 "/>
   <polygon class="fil0" points="24.77,32.07 24.77,32.06 24.77,32.06 24.77,32.06 "/>
   <path class="fil0" d="M18.99 37.71l-0.3 0.07c-0.02,0.18 -0.06,0.36 -0.12,0.54l0.24 0.19c0.05,0.04 0.06,0.11 0.03,0.16l-0.18 0.34c-0.03,0.05 -0.1,0.08 -0.15,0.06l-0.29 -0.09c-0.11,0.15 -0.24,0.29 -0.38,0.41l0.11 0.29c0.02,0.06 -0,0.13 -0.05,0.16l-0.33 0.21c-0.05,0.03 -0.12,0.02 -0.17,-0.02l-0.21 -0.22c-0.17,0.07 -0.35,0.13 -0.53,0.16l-0.05 0.3c-0.01,0.06 -0.06,0.11 -0.13,0.11l-0.39 0.01c-0.06,0 -0.12,-0.04 -0.13,-0.1l-0.07 -0.3c-0.18,-0.02 -0.36,-0.06 -0.54,-0.12l-0.19 0.24c-0.04,0.05 -0.11,0.06 -0.16,0.03l-0.34 -0.18c-0.05,-0.03 -0.08,-0.1 -0.06,-0.15l0.09 -0.29c-0.15,-0.11 -0.29,-0.24 -0.41,-0.38l-0.29 0.11c-0.06,0.02 -0.13,-0 -0.16,-0.05l-0.21 -0.33c-0.03,-0.05 -0.02,-0.12 0.02,-0.17l0.22 -0.21c-0.07,-0.17 -0.13,-0.35 -0.16,-0.53l-0.3 -0.05c-0.06,-0.01 -0.11,-0.07 -0.11,-0.13l-0.02 -0.39c-0,-0.06 0.04,-0.12 0.1,-0.13l0.3 -0.07c0.01,-0.12 0.04,-0.24 0.07,-0.36l-1.96 -0.87c-0.21,0.28 -0.45,0.54 -0.71,0.76l0.2 0.54c0.04,0.1 -0.01,0.24 -0.1,0.3l-0.61 0.39c-0.09,0.06 -0.23,0.04 -0.31,-0.04l-0.4 -0.42c-0.32,0.14 -0.65,0.24 -0.99,0.31l-0.09 0.57c-0.02,0.11 -0.12,0.2 -0.23,0.21l-0.72 0.03c-0.11,0 -0.22,-0.08 -0.25,-0.19l-0.13 -0.56c-0.34,-0.04 -0.68,-0.12 -1.02,-0.23l-0.36 0.44c-0.07,0.09 -0.21,0.11 -0.31,0.06l-0.64 -0.34c-0.1,-0.05 -0.15,-0.18 -0.12,-0.29l0.16 -0.55c-0.28,-0.21 -0.54,-0.45 -0.76,-0.71l-0.54 0.2c-0.1,0.04 -0.24,-0 -0.3,-0.1l-0.39 -0.61c-0.06,-0.09 -0.04,-0.23 0.04,-0.31l0.42 -0.4c-0.14,-0.32 -0.24,-0.65 -0.31,-0.99l-0.57 -0.09c-0.11,-0.02 -0.2,-0.12 -0.21,-0.23l-0.03 -0.73c-0,-0.11 0.08,-0.22 0.19,-0.25l0.56 -0.13c0.04,-0.34 0.11,-0.68 0.23,-1.02l-0.44 -0.36c-0.09,-0.07 -0.11,-0.21 -0.06,-0.31l0.34 -0.64c0.05,-0.1 0.18,-0.15 0.29,-0.12l0.55 0.16c0.21,-0.28 0.45,-0.54 0.71,-0.76l-0.2 -0.54c-0.04,-0.1 0.01,-0.24 0.1,-0.3l0.62 -0.39c0.09,-0.06 0.23,-0.04 0.31,0.04l0.4 0.42c0.32,-0.14 0.65,-0.24 0.99,-0.31l0.09 -0.57c0.02,-0.11 0.12,-0.2 0.23,-0.21l0.73 -0.03c0.11,-0 0.22,0.08 0.25,0.19l0.13 0.56c0.34,0.04 0.68,0.12 1.01,0.23l0.36 -0.44c0.07,-0.09 0.21,-0.11 0.31,-0.06l0.64 0.34c0.1,0.05 0.15,0.18 0.12,0.29l-0.16 0.55c0.28,0.21 0.54,0.45 0.76,0.71l0.54 -0.2c0.06,-0.02 0.13,-0.01 0.2,0.02 0.04,0.02 0.08,0.04 0.1,0.07l0.39 0.62c0.06,0.09 0.04,0.23 -0.04,0.31l-0.42 0.4c0.14,0.32 0.24,0.65 0.31,0.99l0.57 0.09c0.11,0.02 0.2,0.12 0.21,0.23l0.03 0.73c0,0.11 -0.08,0.22 -0.19,0.25l-0.56 0.13c-0.04,0.34 -0.11,0.68 -0.23,1.01l1.83 1.13c0.08,-0.09 0.16,-0.19 0.25,-0.27l-0.11 -0.29c-0.02,-0.05 0,-0.13 0.05,-0.16l0.33 -0.21c0.05,-0.03 0.13,-0.02 0.17,0.02l0.21 0.22c0.17,-0.07 0.35,-0.13 0.53,-0.16l0.05 -0.3c0.01,-0.06 0.07,-0.11 0.12,-0.11l0.39 -0.01c0.06,-0 0.12,0.04 0.13,0.1l0.07 0.3c0.18,0.02 0.37,0.06 0.54,0.12l0.19 -0.24c0.04,-0.05 0.11,-0.06 0.16,-0.03l0.34 0.18c0.05,0.03 0.08,0.1 0.07,0.15l-0.09 0.29c0.15,0.11 0.29,0.24 0.41,0.38l0.29 -0.11c0.06,-0.02 0.13,0 0.16,0.05l0.21 0.33c0.03,0.05 0.02,0.13 -0.02,0.17l-0.22 0.21c0.07,0.17 0.13,0.35 0.16,0.53l0.3 0.05c0.06,0.01 0.11,0.07 0.11,0.13l0.01 0.39c0,0.06 -0.04,0.12 -0.1,0.13zm0.85 -12.26l-18.75 0c-0.6,0 -1.08,0.49 -1.08,1.09l0 9.45c0,0.6 0.42,1.33 0.94,1.63l13.81 7.97 5.23 3.02c0.52,0.3 0.94,0.05 0.94,-0.54l0 -21.52c0,-0.6 -0.49,-1.09 -1.09,-1.09z"/>
   <path class="fil0" d="M14.45 20.97l-7.86 0c-1.05,0 -2,-0.42 -2.71,-1.09l4.18 0c0.14,0.19 0.36,0.32 0.61,0.35 0.04,0 0.07,0.01 0.11,0.01 0.09,0 0.18,-0.02 0.27,-0.04 0.37,-0.11 0.64,-0.45 0.64,-0.86 0,-0.5 -0.4,-0.9 -0.9,-0.9 -0.29,0 -0.55,0.14 -0.72,0.36l-4.98 0c-0.27,-0.53 -0.42,-1.13 -0.42,-1.76 0,-0.53 0.11,-1.03 0.3,-1.49l5.1 0c0.16,0.22 0.42,0.36 0.72,0.36 0.5,0 0.9,-0.4 0.9,-0.9 0,-0.5 -0.4,-0.9 -0.9,-0.9 -0.29,0 -0.55,0.14 -0.72,0.36l-4.43 0c0.55,-0.64 1.3,-1.09 2.16,-1.27 0.89,-1.71 2.67,-2.88 4.73,-2.88 1.68,0 3.17,0.77 4.15,1.98l-4 0c-0.17,-0.22 -0.42,-0.36 -0.72,-0.36 -0.5,0 -0.9,0.4 -0.9,0.9 0,0.5 0.4,0.9 0.9,0.9 0.29,0 0.55,-0.14 0.72,-0.36l5.21 0c1.34,0.52 2.33,1.77 2.48,3.25l-7.69 0c-0.17,-0.22 -0.42,-0.36 -0.72,-0.36 -0.5,0 -0.9,0.41 -0.9,0.9 0,0.5 0.4,0.9 0.9,0.9 0.29,0 0.55,-0.14 0.72,-0.36l7.66 0 -0 0c-0.32,1.85 -1.93,3.26 -3.87,3.26zm5.52 -20.84l-19.04 10.99c-0.52,0.3 -0.94,1.03 -0.94,1.63l0 9.45c0,0.6 0.49,1.08 1.08,1.08l18.75 0c0.6,0 1.09,-0.49 1.09,-1.08l0 -21.52c0,-0.6 -0.42,-0.84 -0.94,-0.54z"/>
   <path class="fil0" d="M36.36 16.9c-1.02,1.83 -1.28,1.46 -1.45,2.46 -0.04,0.22 -0.08,0.4 -0.13,0.54 0.08,0.04 0.13,0.11 0.13,0.19l0 0.15c0,0.13 -0.12,0.23 -0.28,0.23l-3.71 0c-0.08,0 -0.14,-0.03 -0.19,-0.07l-0.01 -0.01 -0.02 -0.01 0 -0c-0.04,-0.04 -0.06,-0.09 -0.06,-0.14l0 -0.15c0,-0.08 0.05,-0.15 0.13,-0.19 -0.05,-0.14 -0.09,-0.32 -0.13,-0.54 -0.17,-0.99 -0.43,-0.63 -1.45,-2.46 -0.34,-0.61 -0.55,-1.31 -0.55,-2.06 0,-2.28 1.85,-4.13 4.13,-4.13 1.77,0 3.27,1.11 3.86,2.67 0.17,0.46 0.27,0.95 0.27,1.46 0,0.75 -0.21,1.45 -0.55,2.06zm-1.67 4.23c0,0.13 -0.11,0.23 -0.25,0.23l-3.33 0c-0.14,0 -0.25,-0.1 -0.25,-0.23l0 -0.15c0,-0.12 0.1,-0.22 0.23,-0.23l0.02 -0 3.33 0c0.14,0 0.25,0.1 0.25,0.23l0 0.15zm-1.84 1.26l-0.05 0c-0.65,0 -1.39,-0.31 -1.39,-0.77l2.78 0c0,0.45 -0.7,0.75 -1.34,0.76zm-6.09 -10.82c-0.09,-0.05 -0.12,-0.17 -0.07,-0.26 0.05,-0.09 0.17,-0.12 0.26,-0.07l1.8 1.04c0.09,0.05 0.12,0.17 0.07,0.26 -0.04,0.06 -0.1,0.1 -0.17,0.1 -0.03,0 -0.06,-0.01 -0.09,-0.03l-1.8 -1.04zm2.5 -2.83c0.09,-0.05 0.21,-0.02 0.26,0.07l1.04 1.8c0.05,0.09 0.02,0.21 -0.07,0.26 -0.03,0.02 -0.06,0.03 -0.1,0.03 -0.07,0 -0.13,-0.03 -0.17,-0.1l-1.04 -1.8c-0.05,-0.09 -0.02,-0.21 0.07,-0.26zm3.32 -0.75c0,-0.11 0.09,-0.19 0.19,-0.19 0.11,0 0.19,0.09 0.19,0.19l0 2.07c0,0.11 -0.09,0.19 -0.19,0.19 -0.11,0 -0.19,-0.09 -0.19,-0.19l0 -2.07zm2.41 2.62l1.04 -1.8c0.05,-0.09 0.17,-0.12 0.26,-0.07 0.09,0.05 0.12,0.17 0.07,0.26l-1.04 1.8c-0.04,0.06 -0.1,0.1 -0.17,0.1 -0.03,0 -0.06,-0.01 -0.1,-0.03 -0.09,-0.05 -0.12,-0.17 -0.07,-0.26zm1.81 1.67l1.8 -1.04c0.09,-0.05 0.21,-0.02 0.26,0.07 0.05,0.09 0.02,0.21 -0.07,0.26l-1.8 1.04c-0.03,0.02 -0.06,0.03 -0.1,0.03 -0.06,0 -0.13,-0.03 -0.17,-0.1 -0.05,-0.09 -0.02,-0.21 0.07,-0.26zm6.26 -1.16l-19.04 -10.99c-0.52,-0.3 -0.94,-0.05 -0.94,0.54l0 21.52c0,0.6 0.49,1.08 1.08,1.08l18.75 0c0.6,0 1.08,-0.49 1.08,-1.08l0 -9.45c0,-0.6 -0.42,-1.33 -0.94,-1.63z"/>
   <path class="fil0" d="M40.62 32.4l-0.65 0.16 0 4.15c0.16,0.17 0.26,0.43 0.26,0.71 0,0.52 -0.34,0.95 -0.76,0.95 -0.42,0 -0.76,-0.42 -0.76,-0.95 0,-0.28 0.1,-0.54 0.26,-0.71l0 -3.9 -1.35 0.34 -4.35 1.08c-0.14,0.04 -0.28,0.05 -0.42,0.05 -0.14,0 -0.28,-0.02 -0.41,-0.05l-4.35 -1.08 -3.01 -0.75c-0.08,-0.02 -0.15,-0.07 -0.2,-0.13 -0.05,-0.06 -0.09,-0.13 -0.11,-0.2l-0 -0 0 0c-0.07,-0.27 0.03,-0.61 0.31,-0.68l7.35 -1.83c0.14,-0.04 0.28,-0.05 0.41,-0.05 0.14,0 0.28,0.02 0.42,0.05l7.35 1.83c0.14,0.04 0.24,0.14 0.29,0.28 0.11,0.28 0.02,0.67 -0.29,0.74zm-3.01 4.67c0,0.85 -2.13,1.54 -4.76,1.54 -2.63,0 -4.76,-0.69 -4.76,-1.54l0 -3.29 4.25 1.06c0.17,0.04 0.34,0.06 0.51,0.06 0.17,0 0.35,-0.02 0.51,-0.06l4.25 -1.06 0 3.29zm5.31 -11.63l-18.75 0c-0.6,0 -1.08,0.49 -1.08,1.09l0 21.52c0,0.6 0.42,0.84 0.94,0.54l5.14 -2.97 2.38 -1.37 4.46 -2.58 7.05 -4.07c0.08,-0.04 0.15,-0.1 0.22,-0.16 0.41,-0.35 0.72,-0.96 0.72,-1.47l0 -9.45c0,-0.6 -0.49,-1.09 -1.08,-1.09z"/>
   <path class="fil0" d="M15.29 39.14c0.91,0.48 2.04,0.13 2.52,-0.78 0.48,-0.91 0.13,-2.04 -0.78,-2.52 -0.75,-0.4 -1.64,-0.22 -2.2,0.35l1.52 0.94c0.2,0.1 0.27,0.35 0.17,0.55 -0.1,0.2 -0.35,0.27 -0.55,0.17l-1.63 -0.72c-0.16,0.79 0.2,1.62 0.95,2.02z"/>
   <path class="fil0" d="M16.16 37.74c-0.04,0 -0.08,-0.01 -0.12,-0.03 -0.09,-0.04 -0.13,-0.13 -0.13,-0.22 0,-0.04 0.01,-0.08 0.03,-0.12 0.04,-0.09 0.13,-0.13 0.22,-0.13 0.04,0 0.08,0.01 0.12,0.03 0.08,0.04 0.13,0.13 0.13,0.22 0,0.04 -0.01,0.08 -0.03,0.12 -0.04,0.08 -0.13,0.13 -0.22,0.13z"/>
   <path class="fil0" d="M7.55 32.94c-0.12,0.22 -0.03,0.49 0.19,0.61 0.22,0.12 0.49,0.03 0.61,-0.19 0.12,-0.22 0.03,-0.49 -0.19,-0.61 -0.22,-0.12 -0.49,-0.03 -0.61,0.19z"/>
   <path class="fil0" d="M10.56 35.44l-3.1 -1.38c-0.51,-0.27 -0.7,-0.9 -0.43,-1.4 0.27,-0.51 0.89,-0.7 1.4,-0.43l2.88 1.78c0.39,-1.52 -0.29,-3.17 -1.74,-3.94 -1.7,-0.9 -3.8,-0.25 -4.7,1.45 -0.9,1.7 -0.25,3.8 1.45,4.7 1.45,0.77 3.2,0.4 4.24,-0.78z"/>
   <path class="fil0" d="M12.36 29.93l-0.05 -0.04c0.02,0.01 0.04,0.02 0.05,0.04z"/>
   <path class="fil0" d="M12.31 29.89c-0.01,-0.01 -0.02,-0.01 -0.04,-0.02l0 -0.01 0.03 0.03z"/>
  </g>
  <path class="fil1" d="M50.31 18.6c0,2.75 1.38,4.57 4.15,4.57 2.8,0 4.18,-1.82 4.18,-4.57l0 -9.4c0,-2.78 -1.38,-4.57 -4.18,-4.57 -2.78,0 -4.15,1.79 -4.15,4.57l0 9.4zm2 -9.5c0,-1.64 0.7,-2.62 2.15,-2.62 1.48,0 2.15,0.99 2.15,2.62l0 9.61c0,1.66 -0.67,2.62 -2.15,2.62 -1.45,0 -2.15,-0.96 -2.15,-2.62l0 -9.61z"/>
  <path id="1" class="fil1" d="M60.56 4.81l0 18.17 4.18 0c2.83,0 4.15,-1.53 4.15,-4.26l0 -1.53c0,-2 -0.67,-3.4 -2.44,-3.89 1.58,-0.49 2.13,-1.69 2.13,-3.61l0 -0.86c0,-2.67 -1.12,-4.02 -3.95,-4.02l-4.08 0zm2.02 7.71l0 -5.87 2 0c1.45,0 2,0.78 2,2.39l0 1.06c0,1.9 -0.83,2.41 -2.44,2.41l-1.56 0zm0 8.62l0 -6.78 1.77 0c1.74,0 2.54,0.68 2.54,2.7l0 1.61c0,1.69 -0.67,2.47 -2.15,2.47l-2.15 0z"/>
  <path id="2" class="fil1" d="M74.55 4.63c-2.73,0 -4.02,1.74 -4.02,4.54 0,5.11 6.08,5.5 6.08,9.55 0,1.64 -0.68,2.6 -2.13,2.6 -1.45,0 -2.13,-0.96 -2.13,-2.6l0 -1.14 -1.9 0 0 1.04c0,2.75 1.3,4.54 4.08,4.54 2.78,0 4.1,-1.79 4.1,-4.54 0,-5.11 -6.1,-5.5 -6.1,-9.58 0,-1.61 0.62,-2.57 2.08,-2.57 1.45,0 2.08,0.96 2.08,2.6l0 0.6 1.92 0 0 -0.49c0,-2.75 -1.3,-4.54 -4.05,-4.54l0 0z"/>
  <polygon id="3" class="fil1" points="82.42,12.86 82.42,6.66 87.87,6.66 87.87,4.81 80.4,4.81 80.4,22.99 87.87,22.99 87.87,21.14 82.42,21.14 82.42,14.68 86.86,14.68 86.86,12.86 "/>
  <path id="4" class="fil1" d="M89.74 4.81l0 18.17 2.02 0 0 -7.76 1.43 0c1.69,0 2.65,0.65 2.65,2.7l0 2.86c0,1.22 0.1,1.69 0.34,2.21l2.05 0c-0.34,-0.62 -0.36,-1.38 -0.36,-2.18l0 -2.83c0,-1.95 -0.62,-3.3 -2.28,-3.79 1.56,-0.49 2.26,-1.74 2.26,-3.74l0 -1.48c0,-2.7 -1.19,-4.15 -4.05,-4.15l-4.05 0zm2.02 8.57l0 -6.72 1.97 0c1.51,0 2.1,0.86 2.1,2.49l0 1.74c0,1.97 -0.96,2.49 -2.57,2.49l-1.51 0z"/>
  <polygon id="5" class="fil1" points="99.4,4.81 102.83,22.99 105.81,22.99 109.21,4.81 107.34,4.81 104.41,20.62 101.45,4.81 "/>
  <path id="6" class="fil1" d="M116.77 19.33l0.7 3.66 2.02 0 -3.48 -18.17 -2.93 0 -3.48 18.17 1.87 0 0.7 -3.66 4.6 0zm-2.34 -12.23l2.05 10.49 -4.05 0 2 -10.49z"/>
  <polygon id="7" class="fil1" points="125.75,22.99 125.75,6.66 129.1,6.66 129.1,4.81 120.38,4.81 120.38,6.66 123.73,6.66 123.73,22.99 "/>
  <path id="8" class="fil1" d="M130.35 18.6c0,2.75 1.38,4.57 4.15,4.57 2.8,0 4.18,-1.82 4.18,-4.57l0 -9.4c0,-2.78 -1.38,-4.57 -4.18,-4.57 -2.78,0 -4.15,1.79 -4.15,4.57l0 9.4zm2 -9.5c0,-1.64 0.7,-2.62 2.15,-2.62 1.48,0 2.15,0.99 2.15,2.62l0 9.61c0,1.66 -0.67,2.62 -2.15,2.62 -1.45,0 -2.15,-0.96 -2.15,-2.62l0 -9.61z"/>
  <path id="9" class="fil1" d="M140.6 4.81l0 18.17 2.02 0 0 -7.76 1.43 0c1.69,0 2.65,0.65 2.65,2.7l0 2.86c0,1.22 0.1,1.69 0.34,2.21l2.05 0c-0.34,-0.62 -0.36,-1.38 -0.36,-2.18l0 -2.83c0,-1.95 -0.62,-3.3 -2.28,-3.79 1.56,-0.49 2.26,-1.74 2.26,-3.74l0 -1.48c0,-2.7 -1.19,-4.15 -4.05,-4.15l-4.05 0zm2.02 8.57l0 -6.72 1.97 0c1.51,0 2.1,0.86 2.1,2.49l0 1.74c0,1.97 -0.96,2.49 -2.57,2.49l-1.51 0z"/>
  <polygon id="10" class="fil1" points="150.83,4.81 150.83,22.99 152.86,22.99 152.86,4.81 "/>
  <path id="11" class="fil1" d="M154.78 18.6c0,2.75 1.38,4.57 4.15,4.57 2.8,0 4.18,-1.82 4.18,-4.57l0 -9.4c0,-2.78 -1.38,-4.57 -4.18,-4.57 -2.78,0 -4.15,1.79 -4.15,4.57l0 9.4zm2 -9.5c0,-1.64 0.7,-2.62 2.15,-2.62 1.48,0 2.15,0.99 2.15,2.62l0 9.61c0,1.66 -0.67,2.62 -2.15,2.62 -1.45,0 -2.15,-0.96 -2.15,-2.62l0 -9.61z"/>
  <polygon id="12" class="fil1" points="49.63,28.31 52.62,28.31 52.62,43.89 55.47,43.89 55.47,28.31 58.46,28.31 58.46,25.71 49.63,25.71 "/>
  <polygon id="13" class="fil1" points="62.56,28.31 67.49,28.31 67.49,25.71 59.7,25.71 59.7,43.89 67.49,43.89 67.49,41.29 62.56,41.29 62.56,35.97 66.48,35.97 66.48,33.37 62.56,33.37 "/>
  <path id="14" class="fil1" d="M74.84 37.11l0 2.6c0,1.3 -0.57,1.77 -1.48,1.77 -0.91,0 -1.48,-0.47 -1.48,-1.77l0 -9.81c0,-1.3 0.57,-1.79 1.48,-1.79 0.91,0 1.48,0.49 1.48,1.79l0 1.95 2.7 0 0 -1.77c0,-2.91 -1.45,-4.57 -4.26,-4.57 -2.8,0 -4.26,1.66 -4.26,4.57l0 9.45c0,2.91 1.45,4.57 4.26,4.57 2.8,0 4.26,-1.66 4.26,-4.57l0 -2.41 -2.7 0z"/>
  <polygon id="15" class="fil1" points="85.38,43.89 88.31,43.89 88.31,25.71 85.77,25.71 85.77,36.59 82.84,25.71 79.25,25.71 79.25,43.89 81.82,43.89 81.82,30.72 "/>
  <path id="16" class="fil1" d="M92.99 29.89c0,-1.3 0.57,-1.79 1.48,-1.79 0.91,0 1.48,0.49 1.48,1.79l0 9.81c0,1.3 -0.57,1.79 -1.48,1.79 -0.91,0 -1.48,-0.49 -1.48,-1.79l0 -9.81zm-2.86 9.63c0,2.91 1.53,4.57 4.34,4.57 2.8,0 4.34,-1.66 4.34,-4.57l0 -9.45c0,-2.91 -1.53,-4.57 -4.34,-4.57 -2.8,0 -4.34,1.66 -4.34,4.57l0 9.45z"/>
  <polygon id="17" class="fil1" points="100.65,43.89 108.2,43.89 108.2,41.29 103.5,41.29 103.5,25.71 100.65,25.71 "/>
  <path id="18" class="fil1" d="M112.07 29.89c0,-1.3 0.57,-1.79 1.48,-1.79 0.91,0 1.48,0.49 1.48,1.79l0 9.81c0,1.3 -0.57,1.79 -1.48,1.79 -0.91,0 -1.48,-0.49 -1.48,-1.79l0 -9.81zm-2.86 9.63c0,2.91 1.53,4.57 4.34,4.57 2.8,0 4.34,-1.66 4.34,-4.57l0 -9.45c0,-2.91 -1.53,-4.57 -4.34,-4.57 -2.8,0 -4.34,1.66 -4.34,4.57l0 9.45zm4.6 -17.65l-1.77 2.88 1.92 0 2.65 -2.88 -2.8 0z"/>
  <path id="19" class="fil1" d="M124.01 36.36l1.3 0 0 3.35c0,1.3 -0.57,1.77 -1.48,1.77 -0.91,0 -1.48,-0.47 -1.48,-1.77l0 -9.81c0,-1.3 0.57,-1.79 1.48,-1.79 0.91,0 1.48,0.49 1.48,1.79l0 1.95 2.7 0 0 -1.77c0,-2.91 -1.45,-4.57 -4.26,-4.57 -2.8,0 -4.26,1.66 -4.26,4.57l0 9.45c0,2.91 1.45,4.57 4.26,4.57 2.8,0 4.26,-1.66 4.26,-4.57l0 -5.76 -4 0 0 2.6z"/>
  <polygon id="20" class="fil1" points="129.85,43.89 132.71,43.89 132.71,25.71 129.85,25.71 "/>
  <path id="21" class="fil1" d="M140.37 37.11l0 2.6c0,1.3 -0.57,1.77 -1.48,1.77 -0.91,0 -1.48,-0.47 -1.48,-1.77l0 -9.81c0,-1.3 0.57,-1.79 1.48,-1.79 0.91,0 1.48,0.49 1.48,1.79l0 1.95 2.7 0 0 -1.77c0,-2.91 -1.45,-4.57 -4.26,-4.57 -2.8,0 -4.26,1.66 -4.26,4.57l0 9.45c0,2.91 1.45,4.57 4.26,4.57 2.8,0 4.26,-1.66 4.26,-4.57l0 -2.41 -2.7 0z"/>
  <path id="22" class="fil1" d="M147.43 29.89c0,-1.3 0.57,-1.79 1.48,-1.79 0.91,0 1.48,0.49 1.48,1.79l0 9.81c0,1.3 -0.57,1.79 -1.48,1.79 -0.91,0 -1.48,-0.49 -1.48,-1.79l0 -9.81zm-2.86 9.63c0,2.91 1.53,4.57 4.34,4.57 2.8,0 4.34,-1.66 4.34,-4.57l0 -9.45c0,-2.91 -1.53,-4.57 -4.34,-4.57 -2.8,0 -4.34,1.66 -4.34,4.57l0 9.45z"/>
 </g>
</svg>
